  0
SECTION
  2
HEADER
  9
$ACADVER
  1
AC1015
  9
$ACADMAINTVER
 70
     6
  9
$DWGCODEPAGE
  3
ANSI_1252
  9
$INSBASE
 10
0.0
 20
0.0
 30
0.0
  9
$EXTMIN
 10
0.0
 20
0.0
 30
0.0
  9
$EXTMAX
 10
152.4
 20
152.4
 30
0.0
  9
$LIMMIN
 10
0.0
 20
0.0
  9
$LIMMAX
 10
152.4
 20
152.4
  9
$ORTHOMODE
 70
     0
  9
$REGENMODE
 70
     1
  9
$FILLMODE
 70
     1
  9
$QTEXTMODE
 70
     0
  9
$MIRRTEXT
 70
     1
  9
$LTSCALE
 40
1.0
  9
$ATTMODE
 70
     1
  9
$TEXTSIZE
 40
3.5
  9
$TRACEWID
 40
1.0
  9
$TEXTSTYLE
  7
Standard
  9
$CLAYER
  8
0
  9
$CELTYPE
  6
ByLayer
  9
$CECOLOR
 62
   256
  9
$CELTSCALE
 40
1.0
  9
$DISPSILH
 70
     0
  9
$DIMSCALE
 40
1.0
  9
$DIMASZ
 40
6.0
  9
$DIMEXO
 40
1.0
  9
$DIMDLI
 40
3.75
  9
$DIMRND
 40
0.0
  9
$DIMDLE
 40
0.0
  9
$DIMEXE
 40
1.0
  9
$DIMTP
 40
0.0
  9
$DIMTM
 40
0.0
  9
$DIMTXT
 40
3.5
  9
$DIMCEN
 40
2.5
  9
$DIMTSZ
 40
0.0
  9
$DIMTOL
 70
     0
  9
$DIMLIM
 70
     0
  9
$DIMTIH
 70
     1
  9
$DIMTOH
 70
     1
  9
$DIMSE1
 70
     0
  9
$DIMSE2
 70
     0
  9
$DIMTAD
 70
     1
  9
$DIMZIN
 70
     0
  9
$DIMBLK
  1

  9
$DIMASO
 70
     1
  9
$DIMSHO
 70
     1
  9
$DIMPOST
  1

  9
$DIMAPOST
  1

  9
$DIMALT
 70
     0
  9
$DIMALTD
 70
     3
  9
$DIMALTF
 40
0.0393700787
  9
$DIMLFAC
 40
1.0
  9
$DIMTOFL
 70
     1
  9
$DIMTVP
 40
0.0
  9
$DIMTIX
 70
     0
  9
$DIMSOXD
 70
     0
  9
$DIMSAH
 70
     0
  9
$DIMBLK1
  1

  9
$DIMBLK2
  1

  9
$DIMSTYLE
  2
ISO-25
  9
$DIMCLRD
 70
     0
  9
$DIMCLRE
 70
     0
  9
$DIMCLRT
 70
     0
  9
$DIMTFAC
 40
1.0
  9
$DIMGAP
 40
1.524
  9
$DIMJUST
 70
     0
  9
$DIMSD1
 70
     0
  9
$DIMSD2
 70
     0
  9
$DIMTOLJ
 70
     0
  9
$DIMTZIN
 70
     0
  9
$DIMALTZ
 70
     0
  9
$DIMALTTZ
 70
     0
  9
$DIMUPT
 70
     0
  9
$DIMDEC
 70
     3
  9
$DIMTDEC
 70
     3
  9
$DIMALTU
 70
     2
  9
$DIMALTTD
 70
     3
  9
$DIMTXSTY
  7
Standard
  9
$DIMAUNIT
 70
     0
  9
$DIMADEC
 70
     2
  9
$DIMALTRND
 40
0.0
  9
$DIMAZIN
 70
     0
  9
$DIMDSEP
 70
    44
  9
$DIMATFIT
 70
     3
  9
$DIMFRAC
 70
     0
  9
$DIMLDRBLK
  1

  9
$DIMLUNIT
 70
     2
  9
$DIMLWD
 70
    -2
  9
$DIMLWE
 70
    -2
  9
$DIMTMOVE
 70
     0
  9
$LUNITS
 70
     2
  9
$LUPREC
 70
     2
  9
$SKETCHINC
 40
1.0
  9
$FILLETRAD
 40
10.0
  9
$AUNITS
 70
     0
  9
$AUPREC
 70
     2
  9
$MENU
  1
.
  9
$ELEVATION
 40
0.0
  9
$PELEVATION
 40
0.0
  9
$THICKNESS
 40
0.0
  9
$LIMCHECK
 70
     0
  9
$CHAMFERA
 40
10.0
  9
$CHAMFERB
 40
10.0
  9
$CHAMFERC
 40
20.0
  9
$CHAMFERD
 40
0.0
  9
$SKPOLY
 70
     0
  9
$TDCREATE
 40
2456142.784879769
  9
$TDUCREATE
 40
2456142.993213102
  9
$TDUPDATE
 40
2456142.78487978
  9
$TDUUPDATE
 40
2456142.993213113
  9
$TDINDWG
 40
0.0000000116
  9
$TDUSRTIMER
 40
0.0000000116
  9
$USRTIMER
 70
     1
  9
$ANGBASE
 50
0.0
  9
$ANGDIR
 70
     0
  9
$PDMODE
 70
     0
  9
$PDSIZE
 40
-1.0
  9
$PLINEWID
 40
0.0
  9
$SPLFRAME
 70
     0
  9
$SPLINETYPE
 70
     6
  9
$SPLINESEGS
 70
     8
  9
$HANDSEED
  5
32E
  9
$SURFTAB1
 70
     6
  9
$SURFTAB2
 70
     6
  9
$SURFTYPE
 70
     6
  9
$SURFU
 70
     6
  9
$SURFV
 70
     6
  9
$UCSBASE
  2

  9
$UCSNAME
  2

  9
$UCSORG
 10
0.0
 20
0.0
 30
0.0
  9
$UCSXDIR
 10
1.0
 20
0.0
 30
0.0
  9
$UCSYDIR
 10
0.0
 20
1.0
 30
0.0
  9
$UCSORTHOREF
  2

  9
$UCSORTHOVIEW
 70
     0
  9
$UCSORGTOP
 10
0.0
 20
0.0
 30
0.0
  9
$UCSORGBOTTOM
 10
0.0
 20
0.0
 30
0.0
  9
$UCSORGLEFT
 10
0.0
 20
0.0
 30
0.0
  9
$UCSORGRIGHT
 10
0.0
 20
0.0
 30
0.0
  9
$UCSORGFRONT
 10
0.0
 20
0.0
 30
0.0
  9
$UCSORGBACK
 10
0.0
 20
0.0
 30
0.0
  9
$PUCSBASE
  2

  9
$PUCSNAME
  2

  9
$PUCSORG
 10
0.0
 20
0.0
 30
0.0
  9
$PUCSXDIR
 10
1.0
 20
0.0
 30
0.0
  9
$PUCSYDIR
 10
0.0
 20
1.0
 30
0.0
  9
$PUCSORTHOREF
  2

  9
$PUCSORTHOVIEW
 70
     0
  9
$PUCSORGTOP
 10
0.0
 20
0.0
 30
0.0
  9
$PUCSORGBOTTOM
 10
0.0
 20
0.0
 30
0.0
  9
$PUCSORGLEFT
 10
0.0
 20
0.0
 30
0.0
  9
$PUCSORGRIGHT
 10
0.0
 20
0.0
 30
0.0
  9
$PUCSORGFRONT
 10
0.0
 20
0.0
 30
0.0
  9
$PUCSORGBACK
 10
0.0
 20
0.0
 30
0.0
  9
$USERI1
 70
     0
  9
$USERI2
 70
     0
  9
$USERI3
 70
     0
  9
$USERI4
 70
     0
  9
$USERI5
 70
     0
  9
$USERR1
 40
0.0
  9
$USERR2
 40
0.0
  9
$USERR3
 40
0.0
  9
$USERR4
 40
0.0
  9
$USERR5
 40
0.0
  9
$WORLDVIEW
 70
     1
  9
$SHADEDGE
 70
     3
  9
$SHADEDIF
 70
    70
  9
$TILEMODE
 70
     1
  9
$MAXACTVP
 70
    64
  9
$PINSBASE
 10
0.0
 20
0.0
 30
0.0
  9
$PLIMCHECK
 70
     0
  9
$PEXTMIN
 10
1.0000000000E+20
 20
1.0000000000E+20
 30
1.0000000000E+20
  9
$PEXTMAX
 10
-1.0000000000E+20
 20
-1.0000000000E+20
 30
-1.0000000000E+20
  9
$PLIMMIN
 10
0.0
 20
0.0
  9
$PLIMMAX
 10
420.0
 20
297.0
  9
$UNITMODE
 70
     0
  9
$VISRETAIN
 70
     1
  9
$PLINEGEN
 70
     0
  9
$PSLTSCALE
 70
     1
  9
$TREEDEPTH
 70
  3020
  9
$CMLSTYLE
  2
Standard
  9
$CMLJUST
 70
     0
  9
$CMLSCALE
 40
20.0
  9
$PROXYGRAPHICS
 70
     1
  9
$MEASUREMENT
 70
     1
  9
$CELWEIGHT
370
    -1
  9
$ENDCAPS
280
     0
  9
$JOINSTYLE
280
     0
  9
$LWDISPLAY
290
     1
  9
$INSUNITS
 70
     4
  9
$HYPERLINKBASE
  1

  9
$STYLESHEET
  1

  9
$XEDIT
290
     1
  9
$CEPSNTYPE
380
     0
  9
$PSTYLEMODE
290
     1
  9
$FINGERPRINTGUID
  2
{9BFC996E-F59E-4232-A3D8-E7792683092D}
  9
$VERSIONGUID
  2
{FAEB1C32-E019-11D5-929B-00C0DF256EC4}
  9
$EXTNAMES
290
     1
  9
$PSVPSCALE
 40
0.0
  9
$OLESTARTUP
290
     0
  0
ENDSEC
  0
SECTION
  2
CLASSES
  0
CLASS
  1
ACDBDICTIONARYWDFLT
  2
AcDbDictionaryWithDefault
  3
ObjectDBX Classes
 90
        0
280
     0
281
     0
  0
CLASS
  1
VISUALSTYLE
  2
AcDbVisualStyle
  3
ObjectDBX Classes
 90
     4095
280
     0
281
     0
  0
CLASS
  1
MATERIAL
  2
AcDbMaterial
  3
ObjectDBX Classes
 90
     1153
280
     0
281
     0
  0
CLASS
  1
ACDBPLACEHOLDER
  2
AcDbPlaceHolder
  3
ObjectDBX Classes
 90
        0
280
     0
281
     0
  0
CLASS
  1
LAYOUT
  2
AcDbLayout
  3
ObjectDBX Classes
 90
        0
280
     0
281
     0
  0
ENDSEC
  0
SECTION
  2
TABLES
  0
TABLE
  2
VPORT
  5
8
330
0
100
AcDbSymbolTable
 70
     1
  0
VPORT
  5
29
330
8
100
AcDbSymbolTableRecord
100
AcDbViewportTableRecord
  2
*Active
 70
     0
 10
0.0
 20
0.0
 11
1.0
 21
1.0
 12
76.2
 22
76.2
 13
0.0
 23
0.0
 14
10.0
 24
10.0
 15
10.0
 25
10.0
 16
0.0
 26
0.0
 36
1.0
 17
0.0
 27
0.0
 37
0.0
 40
152.4
 41
1.0
 42
50.0
 43
0.0
 44
0.0
 50
0.0
 51
0.0
 71
     0
 72
  2000
 73
     1
 74
     3
 75
     0
 76
     0
 77
     0
 78
     0
281
     0
 65
     1
110
0.0
120
0.0
130
0.0
111
1.0
121
0.0
131
0.0
112
0.0
122
1.0
132
0.0
 79
     0
146
0.0
  0
ENDTAB
  0
TABLE
  2
LTYPE
  5
5
330
0
100
AcDbSymbolTable
 70
     6
  0
LTYPE
  5
14
330
5
100
AcDbSymbolTableRecord
100
AcDbLinetypeTableRecord
  2
ByBlock
 70
     0
  3

 72
    65
 73
     0
 40
0.0
  0
LTYPE
  5
15
330
5
100
AcDbSymbolTableRecord
100
AcDbLinetypeTableRecord
  2
ByLayer
 70
     0
  3

 72
    65
 73
     0
 40
0.0
  0
LTYPE
  5
16
330
5
100
AcDbSymbolTableRecord
100
AcDbLinetypeTableRecord
  2
Continuous
 70
     0
  3
Solid line
 72
    65
 73
     0
 40
0.0
  0
LTYPE
  5
3F
330
5
100
AcDbSymbolTableRecord
100
AcDbLinetypeTableRecord
  2
HIDDEN
 70
     0
  3
Hidden __ __ __ __ __ __ __ __ __ __ __ __ __ __
 72
    65
 73
     2
 40
1.905
 49
1.27
 74
     0
 49
-0.635
 74
     0
  0
LTYPE
  5
40
330
5
100
AcDbSymbolTableRecord
100
AcDbLinetypeTableRecord
  2
PHANTOM
 70
     0
  3
Phantom ______  __  __  ______  __  __  ______
 72
    65
 73
     6
 40
12.7
 49
6.35
 74
     0
 49
-1.27
 74
     0
 49
1.27
 74
     0
 49
-1.27
 74
     0
 49
1.27
 74
     0
 49
-1.27
 74
     0
  0
LTYPE
  5
41
330
5
100
AcDbSymbolTableRecord
100
AcDbLinetypeTableRecord
  2
CENTER
 70
     0
  3
Center ____ _ ____ _ ____ _ ____ _ ____ _ ____
 72
    65
 73
     4
 40
10.16
 49
6.35
 74
     0
 49
-1.27
 74
     0
 49
1.27
 74
     0
 49
-1.27
 74
     0
  0
LTYPE
  5
42
330
5
100
AcDbSymbolTableRecord
100
AcDbLinetypeTableRecord
  2
CENTERX2
 70
     0
  3
Center (2x) ________  __  ________  __  _____
 72
    65
 73
     4
 40
20.32
 49
12.7
 74
     0
 49
-2.54
 74
     0
 49
2.54
 74
     0
 49
-2.54
 74
     0
  0
LTYPE
  5
43
330
5
100
AcDbSymbolTableRecord
100
AcDbLinetypeTableRecord
  2
DOT2
 70
     0
  3
Dot (.5x) ........................................
 72
    65
 73
     2
 40
0.635
 49
0.0
 74
     0
 49
-0.635
 74
     0
  0
ENDTAB
  0
TABLE
  2
LAYER
  5
2
330
0
100
AcDbSymbolTable
 70
     1
  0
LAYER
  5
10
330
2
100
AcDbSymbolTableRecord
100
AcDbLayerTableRecord
  2
0
 70
     0
 62
     7
  6
Continuous
370
    -3
390
F
  0
ENDTAB
  0
TABLE
  2
STYLE
  5
3
330
0
100
AcDbSymbolTable
 70
     1
  0
STYLE
  5
11
330
3
100
AcDbSymbolTableRecord
100
AcDbTextStyleTableRecord
  2
Standard
 70
     0
 40
0.0
 41
1.0
 50
0.0
 71
     0
 42
2.5
  3
txt
  4

  0
ENDTAB
  0
TABLE
  2
VIEW
  5
6
330
0
100
AcDbSymbolTable
 70
     0
  0
ENDTAB
  0
TABLE
  2
UCS
  5
7
330
0
100
AcDbSymbolTable
 70
     0
  0
ENDTAB
  0
TABLE
  2
APPID
  5
9
330
0
100
AcDbSymbolTable
 70
     1
  0
APPID
  5
12
330
9
100
AcDbSymbolTableRecord
100
AcDbRegAppTableRecord
  2
ACAD
 70
     0
  0
ENDTAB
  0
TABLE
  2
DIMSTYLE
  5
A
330
0
100
AcDbSymbolTable
 70
     1
100
AcDbDimStyleTable
  0
DIMSTYLE
105
27
330
A
100
AcDbSymbolTableRecord
100
AcDbDimStyleTableRecord
  2
ISO-25
 70
     0
 41
2.5
 42
0.625
 43
3.75
 44
1.25
 73
     0
 74
     0
 77
     1
 78
     8
140
2.5
141
2.5
143
0.0393700787
147
0.625
171
     3
172
     1
178
     0
271
     2
272
     2
274
     3
278
    44
283
     0
284
     8
340
11
  0
ENDTAB
  0
TABLE
  2
BLOCK_RECORD
  5
1
330
0
100
AcDbSymbolTable
 70
     1
  0
BLOCK_RECORD
  5
1F
330
1
100
AcDbSymbolTableRecord
100
AcDbBlockTableRecord
  2
*Model_Space
340
22
  0
BLOCK_RECORD
  5
1B
330
1
100
AcDbSymbolTableRecord
100
AcDbBlockTableRecord
  2
*Paper_Space
340
1E
  0
BLOCK_RECORD
  5
23
330
1
100
AcDbSymbolTableRecord
100
AcDbBlockTableRecord
  2
*Paper_Space0
340
26
  0
ENDTAB
  0
ENDSEC
  0
SECTION
  2
BLOCKS
  0
BLOCK
  5
20
330
1F
100
AcDbEntity
  8
0
100
AcDbBlockBegin
  2
*Model_Space
 70
     0
 10
0.0
 20
0.0
 30
0.0
  3
*Model_Space
  1

  0
ENDBLK
  5
21
330
1F
100
AcDbEntity
  8
0
100
AcDbBlockEnd
  0
BLOCK
  5
1C
330
1B
100
AcDbEntity
 67
     1
  8
0
100
AcDbBlockBegin
  2
*Paper_Space
 70
     0
 10
0.0
 20
0.0
 30
0.0
  3
*Paper_Space
  1

  0
ENDBLK
  5
1D
330
1B
100
AcDbEntity
 67
     1
  8
0
100
AcDbBlockEnd
  0
BLOCK
  5
24
330
23
100
AcDbEntity
  8
0
100
AcDbBlockBegin
  2
*Paper_Space0
 70
     0
 10
0.0
 20
0.0
 30
0.0
  3
*Paper_Space0
  1

  0
ENDBLK
  5
25
330
23
100
AcDbEntity
  8
0
100
AcDbBlockEnd
  0
ENDSEC
  0
SECTION
  2
ENTITIES
  0
CIRCLE
  5
44
330
1F
100
AcDbEntity
  8
0
  6
Continuous
 62
     7
370
    15
100
AcDbCircle
 10
39.2766401665
 20
60.693955852
 30
0.0
 40
36.34584314500012
  0
CIRCLE
  5
45
330
1F
100
AcDbEntity
  8
0
  6
Continuous
 62
     7
370
    15
100
AcDbCircle
 10
39.2766401665
 20
60.693955852
 30
0.0
 40
38.02605314500009
  0
LINE
  5
46
330
1F
100
AcDbEntity
  8
0
  6
Continuous
 62
     7
370
    15
100
AcDbLine
 10
30.7576397927
 20
67.175955849
 30
0.0
 11
30.7576397927
 21
66.241955722
 31
0.0
  0
LINE
  5
47
330
1F
100
AcDbEntity
  8
0
  6
Continuous
 62
     7
370
    15
100
AcDbLine
 10
44.267640219
 20
67.175955849
 30
0.0
 11
30.7576397927
 21
67.175955849
 31
0.0
  0
LINE
  5
48
330
1F
100
AcDbEntity
  8
0
  6
Continuous
 62
     7
370
    15
100
AcDbLine
 10
44.267640219
 20
68.7458476632
 30
0.0
 11
44.267640219
 21
67.175955849
 31
0.0
  0
LINE
  5
49
330
1F
100
AcDbEntity
  8
0
  6
Continuous
 62
     7
370
    15
100
AcDbLine
 10
47.7956405403
 20
66.7089557855
 30
0.0
 11
44.267640219
 21
68.7458476632
 31
0.0
  0
LINE
  5
4A
330
1F
100
AcDbEntity
  8
0
  6
Continuous
 62
     7
370
    15
100
AcDbLine
 10
44.267640219
 20
64.6720639079
 30
0.0
 11
47.7956405403
 21
66.7089557855
 31
0.0
  0
LINE
  5
4B
330
1F
100
AcDbEntity
  8
0
  6
Continuous
 62
     7
370
    15
100
AcDbLine
 10
44.267640219
 20
66.241955722
 30
0.0
 11
44.267640219
 21
64.6720639079
 31
0.0
  0
LINE
  5
4C
330
1F
100
AcDbEntity
  8
0
  6
Continuous
 62
     7
370
    15
100
AcDbLine
 10
30.7576397927
 20
66.241955722
 30
0.0
 11
44.267640219
 21
66.241955722
 31
0.0
  0
LINE
  5
4D
330
1F
100
AcDbEntity
  8
0
  6
Continuous
 62
     7
370
    15
100
AcDbLine
 10
44.267640219
 20
61.1609558573
 30
0.0
 11
30.7576397927
 21
61.1609558573
 31
0.0
  0
LINE
  5
4E
330
1F
100
AcDbEntity
  8
0
  6
Continuous
 62
     7
370
    15
100
AcDbLine
 10
44.267640219
 20
62.7308474968
 30
0.0
 11
44.267640219
 21
61.1609558573
 31
0.0
  0
LINE
  5
4F
330
1F
100
AcDbEntity
  8
0
  6
Continuous
 62
     7
370
    15
100
AcDbLine
 10
47.7956405403
 20
60.693955852
 30
0.0
 11
44.267640219
 21
62.7308474968
 31
0.0
  0
LINE
  5
50
330
1F
100
AcDbEntity
  8
0
  6
Continuous
 62
     7
370
    15
100
AcDbLine
 10
44.267640219
 20
58.6570642072
 30
0.0
 11
47.7956405403
 21
60.693955852
 31
0.0
  0
LINE
  5
51
330
1F
100
AcDbEntity
  8
0
  6
Continuous
 62
     7
370
    15
100
AcDbLine
 10
44.267640219
 20
60.2269558467
 30
0.0
 11
44.267640219
 21
58.6570642072
 31
0.0
  0
LINE
  5
52
330
1F
100
AcDbEntity
  8
0
  6
Continuous
 62
     7
370
    15
100
AcDbLine
 10
30.7576397927
 20
60.2269558467
 30
0.0
 11
44.267640219
 21
60.2269558467
 31
0.0
  0
LINE
  5
53
330
1F
100
AcDbEntity
  8
0
  6
Continuous
 62
     7
370
    15
100
AcDbLine
 10
30.7576397927
 20
61.1609558573
 30
0.0
 11
30.7576397927
 21
60.2269558467
 31
0.0
  0
LINE
  5
54
330
1F
100
AcDbEntity
  8
0
  6
Continuous
 62
     7
370
    15
100
AcDbLine
 10
44.267640219
 20
55.1459559819
 30
0.0
 11
30.7576397927
 21
55.1459559819
 31
0.0
  0
LINE
  5
55
330
1F
100
AcDbEntity
  8
0
  6
Continuous
 62
     7
370
    15
100
AcDbLine
 10
44.267640219
 20
56.7158477961
 30
0.0
 11
44.267640219
 21
55.1459559819
 31
0.0
  0
LINE
  5
56
330
1F
100
AcDbEntity
  8
0
  6
Continuous
 62
     7
370
    15
100
AcDbLine
 10
47.7956405403
 20
54.6789559184
 30
0.0
 11
44.267640219
 21
56.7158477961
 31
0.0
  0
LINE
  5
57
330
1F
100
AcDbEntity
  8
0
  6
Continuous
 62
     7
370
    15
100
AcDbLine
 10
44.267640219
 20
52.6420640408
 30
0.0
 11
47.7956405403
 21
54.6789559184
 31
0.0
  0
LINE
  5
58
330
1F
100
AcDbEntity
  8
0
  6
Continuous
 62
     7
370
    15
100
AcDbLine
 10
44.267640219
 20
54.2119558549
 30
0.0
 11
44.267640219
 21
52.6420640408
 31
0.0
  0
LINE
  5
59
330
1F
100
AcDbEntity
  8
0
  6
Continuous
 62
     7
370
    15
100
AcDbLine
 10
30.7576397927
 20
54.2119558549
 30
0.0
 11
44.267640219
 21
54.2119558549
 31
0.0
  0
LINE
  5
5A
330
1F
100
AcDbEntity
  8
0
  6
Continuous
 62
     7
370
    15
100
AcDbLine
 10
30.7576397927
 20
55.1459559819
 30
0.0
 11
30.7576397927
 21
54.2119558549
 31
0.0
  0
LINE
  5
5B
330
1F
100
AcDbEntity
  8
0
  6
Continuous
 62
     7
370
    15
100
AcDbLine
 10
21.2301400052
 20
56.3565444781
 30
0.0
 11
27.1323409425
 21
66.5794558472
 31
0.0
  0
LINE
  5
5C
330
1F
100
AcDbEntity
  8
0
  6
Continuous
 62
     7
370
    15
100
AcDbLine
 10
27.1323409425
 20
66.5794558472
 30
0.0
 11
15.3279390679
 21
66.5794558472
 31
0.0
  0
LINE
  5
5D
330
1F
100
AcDbEntity
  8
0
  6
Continuous
 62
     7
370
    15
100
AcDbLine
 10
15.3279390679
 20
66.5794558472
 30
0.0
 11
21.2301400052
 21
56.3565444781
 31
0.0
  0
LINE
  5
5E
330
1F
100
AcDbEntity
  8
0
  6
Continuous
 62
     7
370
    15
100
AcDbLine
 10
22.0407408224
 20
54.9525444976
 30
0.0
 11
29.5641406001
 21
67.9834558277
 31
0.0
  0
LINE
  5
5F
330
1F
100
AcDbEntity
  8
0
  6
Continuous
 62
     7
370
    15
100
AcDbLine
 10
28.5021404298
 20
54.9525444976
 30
0.0
 11
22.0407408224
 21
54.9525444976
 31
0.0
  0
LINE
  5
60
330
1F
100
AcDbEntity
  8
0
  6
Continuous
 62
     7
370
    15
100
AcDbLine
 10
28.5021404298
 20
53.5485445171
 30
0.0
 11
28.5021404298
 21
54.9525444976
 31
0.0
  0
LINE
  5
61
330
1F
100
AcDbEntity
  8
0
  6
Continuous
 62
     7
370
    15
100
AcDbLine
 10
21.932139297
 20
53.5485445171
 30
0.0
 11
28.5021404298
 21
53.5485445171
 31
0.0
  0
LINE
  5
62
330
1F
100
AcDbEntity
  8
0
  6
Continuous
 62
     7
370
    15
100
AcDbLine
 10
21.932139297
 20
41.1960751398
 30
0.0
 11
21.932139297
 21
53.5485445171
 31
0.0
  0
ARC
  5
63
330
1F
100
AcDbEntity
  8
0
  6
Continuous
 62
     7
370
    15
100
AcDbCircle
 10
21.2301401665
 20
40.123955852
 30
0.0
 40
1.281499999999989
100
AcDbArc
 50
123.2159096862
 51
56.7840903138
  0
LINE
  5
64
330
1F
100
AcDbEntity
  8
0
  6
Continuous
 62
     7
370
    15
100
AcDbLine
 10
20.5281407134
 20
53.5485445171
 30
0.0
 11
20.5281407134
 21
41.1960751398
 31
0.0
  0
LINE
  5
65
330
1F
100
AcDbEntity
  8
0
  6
Continuous
 62
     7
370
    15
100
AcDbLine
 10
13.958140512
 20
53.5485445171
 30
0.0
 11
20.5281407134
 21
53.5485445171
 31
0.0
  0
LINE
  5
66
330
1F
100
AcDbEntity
  8
0
  6
Continuous
 62
     7
370
    15
100
AcDbLine
 10
13.958140512
 20
54.9525444976
 30
0.0
 11
13.958140512
 21
53.5485445171
 31
0.0
  0
LINE
  5
67
330
1F
100
AcDbEntity
  8
0
  6
Continuous
 62
     7
370
    15
100
AcDbLine
 10
20.4195410506
 20
54.9525444976
 30
0.0
 11
13.958140512
 21
54.9525444976
 31
0.0
  0
LINE
  5
68
330
1F
100
AcDbEntity
  8
0
  6
Continuous
 62
     7
370
    15
100
AcDbLine
 10
12.8961403416
 20
67.9834558277
 30
0.0
 11
20.4195410506
 21
54.9525444976
 31
0.0
  0
LINE
  5
69
330
1F
100
AcDbEntity
  8
0
  6
Continuous
 62
     7
370
    15
100
AcDbLine
 10
20.5281407134
 20
67.9834558277
 30
0.0
 11
12.8961403416
 21
67.9834558277
 31
0.0
  0
LINE
  5
6A
330
1F
100
AcDbEntity
  8
0
  6
Continuous
 62
     7
370
    15
100
AcDbLine
 10
20.5281407134
 20
80.1918365641
 30
0.0
 11
20.5281407134
 21
67.9834558277
 31
0.0
  0
ARC
  5
6B
330
1F
100
AcDbEntity
  8
0
  6
Continuous
 62
     7
370
    15
100
AcDbCircle
 10
21.2301401665
 20
81.263955852
 30
0.0
 40
1.281499999999996
100
AcDbArc
 50
303.2159096862
 51
236.7840903138
  0
LINE
  5
6C
330
1F
100
AcDbEntity
  8
0
  6
Continuous
 62
     7
370
    15
100
AcDbLine
 10
21.932139297
 20
67.9834558277
 30
0.0
 11
21.932139297
 21
80.1918365641
 31
0.0
  0
LINE
  5
6D
330
1F
100
AcDbEntity
  8
0
  6
Continuous
 62
     7
370
    15
100
AcDbLine
 10
29.5641406001
 20
67.9834558277
 30
0.0
 11
21.932139297
 21
67.9834558277
 31
0.0
  0
LINE
  5
6E
330
1F
100
AcDbEntity
  8
0
  6
Continuous
 62
     7
370
    15
100
AcDbLine
 10
57.3231403278
 20
65.0313672258
 30
0.0
 11
51.4209393905
 21
54.8084558568
 31
0.0
  0
LINE
  5
6F
330
1F
100
AcDbEntity
  8
0
  6
Continuous
 62
     7
370
    15
100
AcDbLine
 10
51.4209393905
 20
54.8084558568
 30
0.0
 11
63.225341265
 21
54.8084558568
 31
0.0
  0
LINE
  5
70
330
1F
100
AcDbEntity
  8
0
  6
Continuous
 62
     7
370
    15
100
AcDbLine
 10
63.225341265
 20
54.8084558568
 30
0.0
 11
57.3231403278
 21
65.0313672258
 31
0.0
  0
LINE
  5
71
330
1F
100
AcDbEntity
  8
0
  6
Continuous
 62
     7
370
    15
100
AcDbLine
 10
56.5125395106
 20
66.4353672064
 30
0.0
 11
48.9891397329
 21
53.4044558762
 31
0.0
  0
LINE
  5
72
330
1F
100
AcDbEntity
  8
0
  6
Continuous
 62
     7
370
    15
100
AcDbLine
 10
50.0511399032
 20
66.4353672064
 30
0.0
 11
56.5125395106
 21
66.4353672064
 31
0.0
  0
LINE
  5
73
330
1F
100
AcDbEntity
  8
0
  6
Continuous
 62
     7
370
    15
100
AcDbLine
 10
50.0511399032
 20
67.8393671869
 30
0.0
 11
50.0511399032
 21
66.4353672064
 31
0.0
  0
LINE
  5
74
330
1F
100
AcDbEntity
  8
0
  6
Continuous
 62
     7
370
    15
100
AcDbLine
 10
56.621141036
 20
67.8393671869
 30
0.0
 11
50.0511399032
 21
67.8393671869
 31
0.0
  0
LINE
  5
75
330
1F
100
AcDbEntity
  8
0
  6
Continuous
 62
     7
370
    15
100
AcDbLine
 10
56.621141036
 20
80.1918365641
 30
0.0
 11
56.621141036
 21
67.8393671869
 31
0.0
  0
ARC
  5
76
330
1F
100
AcDbEntity
  8
0
  6
Continuous
 62
     7
370
    15
100
AcDbCircle
 10
57.3231401665
 20
81.263955852
 30
0.0
 40
1.281499999999993
100
AcDbArc
 50
303.2159096862
 51
236.7840903138
  0
LINE
  5
77
330
1F
100
AcDbEntity
  8
0
  6
Continuous
 62
     7
370
    15
100
AcDbLine
 10
58.0251396196
 20
67.8393671869
 30
0.0
 11
58.0251396196
 21
80.1918365641
 31
0.0
  0
LINE
  5
78
330
1F
100
AcDbEntity
  8
0
  6
Continuous
 62
     7
370
    15
100
AcDbLine
 10
64.595139821
 20
67.8393671869
 30
0.0
 11
58.0251396196
 21
67.8393671869
 31
0.0
  0
LINE
  5
79
330
1F
100
AcDbEntity
  8
0
  6
Continuous
 62
     7
370
    15
100
AcDbLine
 10
64.595139821
 20
66.4353672064
 30
0.0
 11
64.595139821
 21
67.8393671869
 31
0.0
  0
LINE
  5
7A
330
1F
100
AcDbEntity
  8
0
  6
Continuous
 62
     7
370
    15
100
AcDbLine
 10
58.1337392823
 20
66.4353672064
 30
0.0
 11
64.595139821
 21
66.4353672064
 31
0.0
  0
LINE
  5
7B
330
1F
100
AcDbEntity
  8
0
  6
Continuous
 62
     7
370
    15
100
AcDbLine
 10
65.6571399914
 20
53.4044558762
 30
0.0
 11
58.1337392823
 21
66.4353672064
 31
0.0
  0
LINE
  5
7C
330
1F
100
AcDbEntity
  8
0
  6
Continuous
 62
     7
370
    15
100
AcDbLine
 10
58.0251396196
 20
53.4044558762
 30
0.0
 11
65.6571399914
 21
53.4044558762
 31
0.0
  0
LINE
  5
7D
330
1F
100
AcDbEntity
  8
0
  6
Continuous
 62
     7
370
    15
100
AcDbLine
 10
58.0251396196
 20
41.1960751398
 30
0.0
 11
58.0251396196
 21
53.4044558762
 31
0.0
  0
ARC
  5
7E
330
1F
100
AcDbEntity
  8
0
  6
Continuous
 62
     7
370
    15
100
AcDbCircle
 10
57.3231401665
 20
40.123955852
 30
0.0
 40
1.281499999999999
100
AcDbArc
 50
123.2159096862
 51
56.7840903138
  0
LINE
  5
7F
330
1F
100
AcDbEntity
  8
0
  6
Continuous
 62
     7
370
    15
100
AcDbLine
 10
56.621141036
 20
53.4044558762
 30
0.0
 11
56.621141036
 21
41.1960751398
 31
0.0
  0
LINE
  5
80
330
1F
100
AcDbEntity
  8
0
  6
Continuous
 62
     7
370
    15
100
AcDbLine
 10
48.9891397329
 20
53.4044558762
 30
0.0
 11
56.621141036
 21
53.4044558762
 31
0.0
  0
LINE
  5
81
330
1F
100
AcDbEntity
  8
0
  6
Continuous
 62
     7
370
    15
100
AcDbLine
 10
77.3026936249
 20
21.9286446108
 30
0.0
 11
1.250586708
 21
21.9286446108
 31
0.0
  0
LINE
  5
82
330
1F
100
AcDbEntity
  8
0
  6
Continuous
 62
     7
370
    15
100
AcDbLine
 10
77.3026936249
 20
20.5979187622
 30
0.0
 11
77.3026936249
 21
21.9286446108
 31
0.0
  0
LINE
  5
83
330
1F
100
AcDbEntity
  8
0
  6
Continuous
 62
     7
370
    15
100
AcDbLine
 10
1.250586708
 20
20.5979187622
 30
0.0
 11
77.3026936249
 21
20.5979187622
 31
0.0
  0
LINE
  5
84
330
1F
100
AcDbEntity
  8
0
  6
Continuous
 62
     7
370
    15
100
AcDbLine
 10
1.250586708
 20
21.9286446108
 30
0.0
 11
1.250586708
 21
20.5979187622
 31
0.0
  0
LINE
  5
85
330
1F
100
AcDbEntity
  8
0
  6
Continuous
 62
     7
370
    15
100
AcDbLine
 10
40.2290411321
 20
19.9247439041
 30
0.0
 11
34.7407443942
 21
8.4334601297
 31
0.0
  0
LINE
  5
86
330
1F
100
AcDbEntity
  8
0
  6
Continuous
 62
     7
370
    15
100
AcDbLine
 10
42.7070527831
 20
19.9247439041
 30
0.0
 11
40.2290411321
 21
19.9247439041
 31
0.0
  0
LINE
  5
87
330
1F
100
AcDbEntity
  8
0
  6
Continuous
 62
     7
370
    15
100
AcDbLine
 10
37.2083222055
 20
8.4334601297
 30
0.0
 11
42.7070527831
 21
19.9247439041
 31
0.0
  0
LINE
  5
88
330
1F
100
AcDbEntity
  8
0
  6
Continuous
 62
     7
370
    15
100
AcDbLine
 10
77.3026936249
 20
7.102734281
 30
0.0
 11
77.3026936249
 21
8.4334601297
 31
0.0
  0
LINE
  5
89
330
1F
100
AcDbEntity
  8
0
  6
Continuous
 62
     7
370
    15
100
AcDbLine
 10
1.250586708
 20
7.102734281
 30
0.0
 11
77.3026936249
 21
7.102734281
 31
0.0
  0
LINE
  5
8A
330
1F
100
AcDbEntity
  8
0
  6
Continuous
 62
     7
370
    15
100
AcDbLine
 10
1.250586708
 20
8.4334601297
 30
0.0
 11
1.250586708
 21
7.102734281
 31
0.0
  0
LINE
  5
8B
330
1F
100
AcDbEntity
  8
0
  6
Continuous
 62
     7
370
    15
100
AcDbLine
 10
77.3026936249
 20
8.4334601297
 30
0.0
 11
37.2083222055
 21
8.4334601297
 31
0.0
  0
LINE
  5
8C
330
1F
100
AcDbEntity
  8
0
  6
Continuous
 62
     7
370
    15
100
AcDbLine
 10
34.7407443942
 20
8.4334601297
 30
0.0
 11
1.250586708
 21
8.4334601297
 31
0.0
  0
LINE
  5
8D
330
1F
100
AcDbEntity
  8
0
  6
Continuous
 62
     7
370
    15
100
AcDbLine
 10
16.6097946958
 20
17.7991714909
 30
0.0
 11
16.6097946958
 21
19.9247439041
 31
0.0
  0
LINE
  5
8E
330
1F
100
AcDbEntity
  8
0
  6
Continuous
 62
     7
370
    15
100
AcDbLine
 10
11.0844981419
 20
17.7991714909
 30
0.0
 11
16.6097946958
 21
17.7991714909
 31
0.0
  0
LINE
  5
8F
330
1F
100
AcDbEntity
  8
0
  6
Continuous
 62
     7
370
    15
100
AcDbLine
 10
11.0844981419
 20
9.0193141832
 30
0.0
 11
11.0844981419
 21
17.7991714909
 31
0.0
  0
LINE
  5
90
330
1F
100
AcDbEntity
  8
0
  6
Continuous
 62
     7
370
    15
100
AcDbLine
 10
6.7870460944
 20
9.0193141832
 30
0.0
 11
11.0844981419
 21
9.0193141832
 31
0.0
  0
LINE
  5
91
330
1F
100
AcDbEntity
  8
0
  6
Continuous
 62
     7
370
    15
100
AcDbLine
 10
6.7870460944
 20
17.7991714909
 30
0.0
 11
6.7870460944
 21
9.0193141832
 31
0.0
  0
LINE
  5
92
330
1F
100
AcDbEntity
  8
0
  6
Continuous
 62
     7
370
    15
100
AcDbLine
 10
1.250586708
 20
17.7991714909
 30
0.0
 11
6.7870460944
 21
17.7991714909
 31
0.0
  0
LINE
  5
93
330
1F
100
AcDbEntity
  8
0
  6
Continuous
 62
     7
370
    15
100
AcDbLine
 10
1.250586708
 20
19.9247439041
 30
0.0
 11
1.250586708
 21
17.7991714909
 31
0.0
  0
LINE
  5
94
330
1F
100
AcDbEntity
  8
0
  6
Continuous
 62
     7
370
    15
100
AcDbLine
 10
16.6097946958
 20
19.9247439041
 30
0.0
 11
1.250586708
 21
19.9247439041
 31
0.0
  0
LINE
  5
95
330
1F
100
AcDbEntity
  8
0
  6
Continuous
 62
     7
370
    15
100
AcDbLine
 10
29.4240175308
 20
9.0193141832
 30
0.0
 11
33.9000651175
 21
9.0193141832
 31
0.0
  0
LINE
  5
96
330
1F
100
AcDbEntity
  8
0
  6
Continuous
 62
     7
370
    15
100
AcDbLine
 10
25.5284041659
 20
12.744544877
 30
0.0
 11
29.4240175308
 21
9.0193141832
 31
0.0
  0
LINE
  5
97
330
1F
100
AcDbEntity
  8
0
  6
Continuous
 62
     7
370
    15
100
AcDbLine
 10
21.6662783669
 20
9.0193141832
 30
0.0
 11
25.5284041659
 21
12.744544877
 31
0.0
  0
LINE
  5
98
330
1F
100
AcDbEntity
  8
0
  6
Continuous
 62
     7
370
    15
100
AcDbLine
 10
17.1679046498
 20
9.0193141832
 30
0.0
 11
21.6662783669
 21
9.0193141832
 31
0.0
  0
LINE
  5
99
330
1F
100
AcDbEntity
  8
0
  6
Continuous
 62
     7
370
    15
100
AcDbLine
 10
22.94993331
 20
14.5852480664
 30
0.0
 11
17.1679046498
 21
9.0193141832
 31
0.0
  0
LINE
  5
9A
330
1F
100
AcDbEntity
  8
0
  6
Continuous
 62
     7
370
    15
100
AcDbLine
 10
17.3911501215
 20
19.9247439041
 30
0.0
 11
22.94993331
 21
14.5852480664
 31
0.0
  0
LINE
  5
9B
330
1F
100
AcDbEntity
  8
0
  6
Continuous
 62
     7
370
    15
100
AcDbLine
 10
21.8783591436
 20
19.9247439041
 30
0.0
 11
17.3911501215
 21
19.9247439041
 31
0.0
  0
LINE
  5
9C
330
1F
100
AcDbEntity
  8
0
  6
Continuous
 62
     7
370
    15
100
AcDbLine
 10
25.5284041659
 20
16.4113406672
 30
0.0
 11
21.8783591436
 21
19.9247439041
 31
0.0
  0
LINE
  5
9D
330
1F
100
AcDbEntity
  8
0
  6
Continuous
 62
     7
370
    15
100
AcDbLine
 10
29.1672863559
 20
19.9247439041
 30
0.0
 11
25.5284041659
 21
16.4113406672
 31
0.0
  0
LINE
  5
9E
330
1F
100
AcDbEntity
  8
0
  6
Continuous
 62
     7
370
    15
100
AcDbLine
 10
33.6768210427
 20
19.9247439041
 30
0.0
 11
29.1672863559
 21
19.9247439041
 31
0.0
  0
LINE
  5
9F
330
1F
100
AcDbEntity
  8
0
  6
Continuous
 62
     7
370
    15
100
AcDbLine
 10
28.1180378543
 20
14.5852480664
 30
0.0
 11
33.6768210427
 21
19.9247439041
 31
0.0
  0
LINE
  5
A0
330
1F
100
AcDbEntity
  8
0
  6
Continuous
 62
     7
370
    15
100
AcDbLine
 10
33.9000651175
 20
9.0193141832
 30
0.0
 11
28.1180378543
 21
14.5852480664
 31
0.0
  0
ARC
  5
A1
330
1F
100
AcDbEntity
  8
0
  6
Continuous
 62
     7
370
    15
100
AcDbCircle
 10
50.7632518235
 20
24.1350866344
 30
0.0
 40
9.04704957682789
100
AcDbArc
 50
270.9375219614
 51
279.6327256683
  0
ARC
  5
A2
330
1F
100
AcDbEntity
  8
0
  6
Continuous
 62
     7
370
    15
100
AcDbCircle
 10
51.9819983724
 20
16.9543694924
 30
0.0
 40
1.763640908949171
100
AcDbArc
 50
279.6327256683
 51
299.4055429495
  0
ARC
  5
A3
330
1F
100
AcDbEntity
  8
0
  6
Continuous
 62
     7
370
    15
100
AcDbCircle
 10
52.3052474848
 20
16.3808244805
 30
0.0
 40
1.105276367566945
100
AcDbArc
 50
299.4055429495
 51
338.9446959937
  0
ARC
  5
A4
330
1F
100
AcDbEntity
  8
0
  6
Continuous
 62
     7
370
    15
100
AcDbCircle
 10
51.9611978485
 20
16.5132739269
 30
0.0
 40
1.473940182032443
100
AcDbArc
 50
338.9446959937
 51
13.0079159876
  0
ARC
  5
A5
330
1F
100
AcDbEntity
  8
0
  6
Continuous
 62
     7
370
    15
100
AcDbCircle
 10
52.3785587985
 20
16.6096900324
 30
0.0
 40
1.045587257468756
100
AcDbArc
 50
13.0079159876
 51
50.8967752623
  0
ARC
  5
A6
330
1F
100
AcDbEntity
  8
0
  6
Continuous
 62
     7
370
    15
100
AcDbCircle
 10
52.0311865511
 20
16.1822977279
 30
0.0
 40
1.596342793260875
100
AcDbArc
 50
50.8967752623
 51
72.6537629447
  0
ARC
  5
A7
330
1F
100
AcDbEntity
  8
0
  6
Continuous
 62
     7
370
    15
100
AcDbCircle
 10
51.4415964239
 20
14.2947081953
 30
0.0
 40
3.573869218338843
100
AcDbArc
 50
72.6537629447
 51
89.1059865457
  0
ARC
  5
A8
330
1F
100
AcDbEntity
  8
0
  6
Continuous
 62
     7
370
    15
100
AcDbCircle
 10
49.1030018896
 20
-135.5696162617
 30
0.0
 40
153.4564391500818
100
AcDbArc
 50
89.1059865457
 51
90.0
  0
LINE
  5
A9
330
1F
100
AcDbEntity
  8
0
  6
Continuous
 62
     7
370
    15
100
AcDbLine
 10
49.1030022995
 20
17.8868238463
 30
0.0
 11
49.1030022995
 21
15.0892463161
 31
0.0
  0
ARC
  5
AA
330
1F
100
AcDbEntity
  8
0
  6
Continuous
 62
     7
370
    15
100
AcDbCircle
 10
49.1030018896
 20
-95.423255469
 30
0.0
 40
110.5125036402842
100
AcDbArc
 50
89.5312390193
 51
90.0
  0
ARC
  5
AB
330
1F
100
AcDbEntity
  8
0
  6
Continuous
 62
     7
370
    15
100
AcDbCircle
 10
50.308527813
 20
51.9226398268
 30
0.0
 40
36.83832314153868
100
AcDbArc
 50
269.5312390193
 51
270.9375219614
  0
ARC
  5
AC
330
1F
100
AcDbEntity
  8
0
  6
Continuous
 62
     7
370
    15
100
AcDbCircle
 10
49.1030018896
 20
-41.432625326
 30
0.0
 40
54.57891037778865
100
AcDbArc
 50
88.2173035853
 51
90.0
  0
LINE
  5
AD
330
1F
100
AcDbEntity
  8
0
  6
Continuous
 62
     7
370
    15
100
AcDbLine
 10
49.1030022995
 20
9.0193141832
 30
0.0
 11
49.1030022995
 21
13.1462839081
 31
0.0
  0
LINE
  5
AE
330
1F
100
AcDbEntity
  8
0
  6
Continuous
 62
     7
370
    15
100
AcDbLine
 10
44.8055493207
 20
9.0193141832
 30
0.0
 11
49.1030022995
 21
9.0193141832
 31
0.0
  0
LINE
  5
AF
330
1F
100
AcDbEntity
  8
0
  6
Continuous
 62
     7
370
    15
100
AcDbLine
 10
44.8055493207
 20
19.9247439041
 30
0.0
 11
44.8055493207
 21
9.0193141832
 31
0.0
  0
LINE
  5
B0
330
1F
100
AcDbEntity
  8
0
  6
Continuous
 62
     7
370
    15
100
AcDbLine
 10
48.0872404323
 20
19.9305665328
 30
0.0
 11
44.8055493207
 21
19.9247439041
 31
0.0
  0
ARC
  5
B1
330
1F
100
AcDbEntity
  8
0
  6
Continuous
 62
     7
370
    15
100
AcDbCircle
 10
49.1811419874
 20
-288.2468178501
 30
0.0
 40
308.1793264456144
100
AcDbArc
 50
89.5932492955
 51
90.2033753523
  0
ARC
  5
B2
330
1F
100
AcDbEntity
  8
0
  6
Continuous
 62
     7
370
    15
100
AcDbCircle
 10
51.1671265263
 20
-8.5014617376
 30
0.0
 40
28.42692091340082
100
AcDbArc
 50
85.291177522
 51
89.5932492955
  0
ARC
  5
B3
330
1F
100
AcDbEntity
  8
0
  6
Continuous
 62
     7
370
    15
100
AcDbCircle
 10
52.6200264509
 20
9.1372429394
 30
0.0
 40
10.72847971437766
100
AcDbArc
 50
78.2856312287
 51
85.291177522
  0
ARC
  5
B4
330
1F
100
AcDbEntity
  8
0
  6
Continuous
 62
     7
370
    15
100
AcDbCircle
 10
53.4249552567
 20
13.019194288
 30
0.0
 40
6.763954943960861
100
AcDbArc
 50
63.4280003186
 51
78.2856312287
  0
ARC
  5
B5
330
1F
100
AcDbEntity
  8
0
  6
Continuous
 62
     7
370
    15
100
AcDbCircle
 10
55.4166797245
 20
17.0014357917
 30
0.0
 40
2.31140356872269
100
AcDbArc
 50
24.7620196893
 51
63.4280003186
  0
ARC
  5
B6
330
1F
100
AcDbEntity
  8
0
  6
Continuous
 62
     7
370
    15
100
AcDbCircle
 10
55.2588296403
 20
16.9286257502
 30
0.0
 40
2.485236681908011
100
AcDbArc
 50
346.5297277571
 51
24.7620196893
  0
ARC
  5
B7
330
1F
100
AcDbEntity
  8
0
  6
Continuous
 62
     7
370
    15
100
AcDbCircle
 10
55.4583343407
 20
16.8808383744
 30
0.0
 40
2.280088543258082
100
AcDbArc
 50
316.7964218189
 51
346.5297277571
  0
ARC
  5
B8
330
1F
100
AcDbEntity
  8
0
  6
Continuous
 62
     7
370
    15
100
AcDbCircle
 10
54.9317240084
 20
17.375420285
 30
0.0
 40
3.002535571376368
100
AcDbArc
 50
291.5891042724
 51
316.7964218189
  0
ARC
  5
B9
330
1F
100
AcDbEntity
  8
0
  6
Continuous
 62
     7
370
    15
100
AcDbCircle
 10
52.2779353673
 20
24.0818510726
 30
0.0
 40
10.21494210878889
100
AcDbArc
 50
282.7240731585
 51
291.5891042724
  0
ARC
  5
BA
330
1F
100
AcDbEntity
  8
0
  6
Continuous
 62
     7
370
    15
100
AcDbCircle
 10
53.207321769
 20
7.5634089635
 30
0.0
 40
6.686057735827769
100
AcDbArc
 50
72.06750538
 51
78.6090204054
  0
ARC
  5
BB
330
1F
100
AcDbEntity
  8
0
  6
Continuous
 62
     7
370
    15
100
AcDbCircle
 10
54.1901390146
 20
10.6003797307
 30
0.0
 40
3.49401745115127
100
AcDbArc
 50
53.2240595896
 51
72.06750538
  0
ARC
  5
BC
330
1F
100
AcDbEntity
  8
0
  6
Continuous
 62
     7
370
    15
100
AcDbCircle
 10
53.0795557281
 20
9.1145320237
 30
0.0
 40
5.349048082826831
100
AcDbArc
 50
37.0805309551
 51
53.2240595896
  0
LINE
  5
BD
330
1F
100
AcDbEntity
  8
0
  6
Continuous
 62
     7
370
    15
100
AcDbLine
 10
59.8522138344
 20
9.0193141832
 30
0.0
 11
57.3469672845
 21
12.3396691515
 31
0.0
  0
LINE
  5
BE
330
1F
100
AcDbEntity
  8
0
  6
Continuous
 62
     7
370
    15
100
AcDbLine
 10
55.2757058786
 20
9.0193141832
 30
0.0
 11
59.8522138344
 21
9.0193141832
 31
0.0
  0
ARC
  5
BF
330
1F
100
AcDbEntity
  8
0
  6
Continuous
 62
     7
370
    15
100
AcDbCircle
 10
183.6697719731
 20
105.2713414042
 30
0.0
 40
160.4664721473321
100
AcDbArc
 50
216.252803868
 51
216.8574657317
  0
ARC
  5
C0
330
1F
100
AcDbEntity
  8
0
  6
Continuous
 62
     7
370
    15
100
AcDbCircle
 10
11.1312678066
 20
-21.2521073948
 30
0.0
 40
53.49080984142203
100
AcDbArc
 50
36.252803868
 51
38.066789459
  0
ARC
  5
C1
330
1F
100
AcDbEntity
  8
0
  6
Continuous
 62
     7
370
    15
100
AcDbCircle
 10
48.7337759667
 20
8.1968452587
 30
0.0
 40
5.729010960665233
100
AcDbArc
 50
38.066789459
 51
48.6131257531
  0
ARC
  5
C2
330
1F
100
AcDbEntity
  8
0
  6
Continuous
 62
     7
370
    15
100
AcDbCircle
 10
50.9712023649
 20
10.7358796748
 30
0.0
 40
2.344816425242457
100
AcDbArc
 50
48.6131257531
 51
72.9656994621
  0
ARC
  5
C3
330
1F
100
AcDbEntity
  8
0
  6
Continuous
 62
     7
370
    15
100
AcDbCircle
 10
50.699045823
 20
9.8475980277
 30
0.0
 40
3.273855427604108
100
AcDbArc
 50
72.9656994621
 51
88.2173035853
  0
LINE
  5
C4
330
1F
100
AcDbEntity
  8
0
  6
Continuous
 62
     7
370
    15
100
AcDbLine
 10
73.001302083
 20
9.0193141832
 30
0.0
 11
77.4773501353
 21
9.0193141832
 31
0.0
  0
LINE
  5
C5
330
1F
100
AcDbEntity
  8
0
  6
Continuous
 62
     7
370
    15
100
AcDbLine
 10
69.1056915121
 20
12.744544877
 30
0.0
 11
73.001302083
 21
9.0193141832
 31
0.0
  0
LINE
  5
C6
330
1F
100
AcDbEntity
  8
0
  6
Continuous
 62
     7
370
    15
100
AcDbLine
 10
65.2435638504
 20
9.0193141832
 30
0.0
 11
69.1056915121
 21
12.744544877
 31
0.0
  0
LINE
  5
C7
330
1F
100
AcDbEntity
  8
0
  6
Continuous
 62
     7
370
    15
100
AcDbLine
 10
60.7451919959
 20
9.0193141832
 30
0.0
 11
65.2435638504
 21
9.0193141832
 31
0.0
  0
LINE
  5
C8
330
1F
100
AcDbEntity
  8
0
  6
Continuous
 62
     7
370
    15
100
AcDbLine
 10
66.5272187935
 20
14.5852480664
 30
0.0
 11
60.7451919959
 21
9.0193141832
 31
0.0
  0
LINE
  5
C9
330
1F
100
AcDbEntity
  8
0
  6
Continuous
 62
     7
370
    15
100
AcDbLine
 10
60.968435605
 20
19.9247439041
 30
0.0
 11
66.5272187935
 21
14.5852480664
 31
0.0
  0
LINE
  5
CA
330
1F
100
AcDbEntity
  8
0
  6
Continuous
 62
     7
370
    15
100
AcDbLine
 10
65.4556464897
 20
19.9247439041
 30
0.0
 11
60.968435605
 21
19.9247439041
 31
0.0
  0
LINE
  5
CB
330
1F
100
AcDbEntity
  8
0
  6
Continuous
 62
     7
370
    15
100
AcDbLine
 10
69.1056915121
 20
16.4113406672
 30
0.0
 11
65.4556464897
 21
19.9247439041
 31
0.0
  0
LINE
  5
CC
330
1F
100
AcDbEntity
  8
0
  6
Continuous
 62
     7
370
    15
100
AcDbLine
 10
72.7445737021
 20
19.9247439041
 30
0.0
 11
69.1056915121
 21
16.4113406672
 31
0.0
  0
LINE
  5
CD
330
1F
100
AcDbEntity
  8
0
  6
Continuous
 62
     7
370
    15
100
AcDbLine
 10
77.2541083889
 20
19.9247439041
 30
0.0
 11
72.7445737021
 21
19.9247439041
 31
0.0
  0
LINE
  5
CE
330
1F
100
AcDbEntity
  8
0
  6
Continuous
 62
     7
370
    15
100
AcDbLine
 10
71.6953233378
 20
14.5852480664
 30
0.0
 11
77.2541083889
 21
19.9247439041
 31
0.0
  0
LINE
  5
CF
330
1F
100
AcDbEntity
  8
0
  6
Continuous
 62
     7
370
    15
100
AcDbLine
 10
77.4773501353
 20
9.0193141832
 30
0.0
 11
71.6953233378
 21
14.5852480664
 31
0.0
  0
LINE
  5
D0
330
1F
100
AcDbEntity
  8
0
  6
Continuous
 62
     7
370
    15
100
AcDbLine
 10
1.8210106091
 20
3.6733586921
 30
0.0
 11
1.8210106091
 21
4.6739046111
 31
0.0
  0
LINE
  5
D1
330
1F
100
AcDbEntity
  8
0
  6
Continuous
 62
     7
370
    15
100
AcDbLine
 10
2.6625685887
 20
3.6733586921
 30
0.0
 11
1.8210106091
 21
3.6733586921
 31
0.0
  0
LINE
  5
D2
330
1F
100
AcDbEntity
  8
0
  6
Continuous
 62
     7
370
    15
100
AcDbLine
 10
2.6625685887
 20
4.6739046111
 30
0.0
 11
2.6625685887
 21
3.6733586921
 31
0.0
  0
LINE
  5
D3
330
1F
100
AcDbEntity
  8
0
  6
Continuous
 62
     7
370
    15
100
AcDbLine
 10
3.2329924898
 20
4.6739046111
 30
0.0
 11
2.6625685887
 21
4.6739046111
 31
0.0
  0
LINE
  5
D4
330
1F
100
AcDbEntity
  8
0
  6
Continuous
 62
     7
370
    15
100
AcDbLine
 10
3.2329924898
 20
2.0485658779
 30
0.0
 11
3.2329924898
 21
4.6739046111
 31
0.0
  0
LINE
  5
D5
330
1F
100
AcDbEntity
  8
0
  6
Continuous
 62
     7
370
    15
100
AcDbLine
 10
2.6625685887
 20
2.0485658779
 30
0.0
 11
3.2329924898
 21
2.0485658779
 31
0.0
  0
LINE
  5
D6
330
1F
100
AcDbEntity
  8
0
  6
Continuous
 62
     7
370
    15
100
AcDbLine
 10
2.6625685887
 20
3.1616528167
 30
0.0
 11
2.6625685887
 21
2.0485658779
 31
0.0
  0
LINE
  5
D7
330
1F
100
AcDbEntity
  8
0
  6
Continuous
 62
     7
370
    15
100
AcDbLine
 10
1.8210106091
 20
3.1616528167
 30
0.0
 11
2.6625685887
 21
3.1616528167
 31
0.0
  0
LINE
  5
D8
330
1F
100
AcDbEntity
  8
0
  6
Continuous
 62
     7
370
    15
100
AcDbLine
 10
1.8210106091
 20
2.0485658779
 30
0.0
 11
1.8210106091
 21
3.1616528167
 31
0.0
  0
LINE
  5
D9
330
1F
100
AcDbEntity
  8
0
  6
Continuous
 62
     7
370
    15
100
AcDbLine
 10
1.250586708
 20
2.0485658779
 30
0.0
 11
1.8210106091
 21
2.0485658779
 31
0.0
  0
LINE
  5
DA
330
1F
100
AcDbEntity
  8
0
  6
Continuous
 62
     7
370
    15
100
AcDbLine
 10
1.250586708
 20
4.6739046111
 30
0.0
 11
1.250586708
 21
2.0485658779
 31
0.0
  0
LINE
  5
DB
330
1F
100
AcDbEntity
  8
0
  6
Continuous
 62
     7
370
    15
100
AcDbLine
 10
1.8210106091
 20
4.6739046111
 30
0.0
 11
1.250586708
 21
4.6739046111
 31
0.0
  0
ARC
  5
DC
330
1F
100
AcDbEntity
  8
0
  6
Continuous
 62
     7
370
    15
100
AcDbCircle
 10
4.8050539248
 20
3.7207538589
 30
0.0
 40
0.5099026232980549
100
AcDbArc
 50
83.3331496059
 51
86.7911279736
  0
ARC
  5
DD
330
1F
100
AcDbEntity
  8
0
  6
Continuous
 62
     7
370
    15
100
AcDbCircle
 10
4.8006322718
 20
3.6418859207
 30
0.0
 40
0.5888944119675281
100
AcDbArc
 50
86.7911279736
 51
90.00877451
  0
ARC
  5
DE
330
1F
100
AcDbEntity
  8
0
  6
Continuous
 62
     7
370
    15
100
AcDbCircle
 10
4.8006143028
 20
3.7592199471
 30
0.0
 40
0.4715603842341625
100
AcDbArc
 50
90.00877451
 51
152.4453826105
  0
ARC
  5
DF
330
1F
100
AcDbEntity
  8
0
  6
Continuous
 62
     7
370
    15
100
AcDbCircle
 10
5.3450026941
 20
3.4751693926
 30
0.0
 40
1.085599013437963
100
AcDbArc
 50
152.4453826104
 51
171.072943811
  0
ARC
  5
E0
330
1F
100
AcDbEntity
  8
0
  6
Continuous
 62
     7
370
    15
100
AcDbCircle
 10
6.1396650671
 20
3.3503441002
 30
0.0
 40
1.890005403660319
100
AcDbArc
 50
171.072943811
 51
190.0677043498
  0
ARC
  5
E1
330
1F
100
AcDbEntity
  8
0
  6
Continuous
 62
     7
370
    15
100
AcDbCircle
 10
5.1112395367
 20
3.1677516329
 30
0.0
 40
0.8454963894318586
100
AcDbArc
 50
190.0677043498
 51
212.2348648177
  0
ARC
  5
E2
330
1F
100
AcDbEntity
  8
0
  6
Continuous
 62
     7
370
    15
100
AcDbCircle
 10
4.8165223992
 20
2.9819077945
 30
0.0
 40
0.4970769247019349
100
AcDbArc
 50
212.2348648177
 51
254.9381106475
  0
ARC
  5
E3
330
1F
100
AcDbEntity
  8
0
  6
Continuous
 62
     7
370
    15
100
AcDbCircle
 10
4.8071066061
 20
2.9469187971
 30
0.0
 40
0.4608431407833896
100
AcDbArc
 50
254.9381106475
 51
299.374283104
  0
ARC
  5
E4
330
1F
100
AcDbEntity
  8
0
  6
Continuous
 62
     7
370
    15
100
AcDbCircle
 10
4.7903105392
 20
2.976758322
 30
0.0
 40
0.4950850027436762
100
AcDbArc
 50
299.374283104
 51
341.2673963913
  0
ARC
  5
E5
330
1F
100
AcDbEntity
  8
0
  6
Continuous
 62
     7
370
    15
100
AcDbCircle
 10
3.6171942081
 20
3.3745804679
 30
0.0
 40
1.733819996992005
100
AcDbArc
 50
341.2673963913
 51
8.927056189
  0
ARC
  5
E6
330
1F
100
AcDbEntity
  8
0
  6
Continuous
 62
     7
370
    15
100
AcDbCircle
 10
4.3313318173
 20
3.4867569581
 30
0.0
 40
1.010925751746398
100
AcDbArc
 50
8.927056189
 51
31.8827938598
  0
ARC
  5
E7
330
1F
100
AcDbEntity
  8
0
  6
Continuous
 62
     7
370
    15
100
AcDbCircle
 10
4.8127016819
 20
3.7861827833
 30
0.0
 40
0.4440282554091629
100
AcDbArc
 50
31.8827938598
 51
83.333149606
  0
ARC
  5
E8
330
1F
100
AcDbEntity
  8
0
  6
Continuous
 62
     7
370
    15
100
AcDbCircle
 10
4.8121348214
 20
3.4421128571
 30
0.0
 40
1.279465634495022
100
AcDbArc
 50
79.1587551231
 51
87.4525133623
  0
ARC
  5
E9
330
1F
100
AcDbEntity
  8
0
  6
Continuous
 62
     7
370
    15
100
AcDbCircle
 10
4.8640373809
 20
3.7131354997
 30
0.0
 40
1.003517906688789
100
AcDbArc
 50
32.313619643
 51
79.1587551231
  0
ARC
  5
EA
330
1F
100
AcDbEntity
  8
0
  6
Continuous
 62
     7
370
    15
100
AcDbCircle
 10
4.5438037139
 20
3.5105856195
 30
0.0
 40
1.382432218136965
100
AcDbArc
 50
12.0211499758
 51
32.313619643
  0
ARC
  5
EB
330
1F
100
AcDbEntity
  8
0
  6
Continuous
 62
     7
370
    15
100
AcDbCircle
 10
3.8232916468
 20
3.3571580461
 30
0.0
 40
2.119098804260597
100
AcDbArc
 50
345.9914838951
 51
12.0211499758
  0
ARC
  5
EC
330
1F
100
AcDbEntity
  8
0
  6
Continuous
 62
     7
370
    15
100
AcDbCircle
 10
4.6724344693
 20
3.1453088996
 30
0.0
 40
1.243928195894066
100
AcDbArc
 50
326.2741425064
 51
345.9914838951
  0
ARC
  5
ED
330
1F
100
AcDbEntity
  8
0
  6
Continuous
 62
     7
370
    15
100
AcDbCircle
 10
4.8702944226
 20
3.0132236654
 30
0.0
 40
1.006031011755332
100
AcDbArc
 50
285.2057638578
 51
326.2741425064
  0
ARC
  5
EE
330
1F
100
AcDbEntity
  8
0
  6
Continuous
 62
     7
370
    15
100
AcDbCircle
 10
4.7935773
 20
3.2954773598
 30
0.0
 40
1.298524883398517
100
AcDbArc
 50
259.1389324518
 51
285.2057638578
  0
ARC
  5
EF
330
1F
100
AcDbEntity
  8
0
  6
Continuous
 62
     7
370
    15
100
AcDbCircle
 10
4.7383006812
 20
3.0073757955
 30
0.0
 40
1.005168417734574
100
AcDbArc
 50
212.3698665775
 51
259.1389324518
  0
ARC
  5
F0
330
1F
100
AcDbEntity
  8
0
  6
Continuous
 62
     7
370
    15
100
AcDbCircle
 10
5.0557967844
 20
3.2086307979
 30
0.0
 40
1.381077118737593
100
AcDbArc
 50
192.0733198145
 51
212.3698665775
  0
ARC
  5
F1
330
1F
100
AcDbEntity
  8
0
  6
Continuous
 62
     7
370
    15
100
AcDbCircle
 10
5.770851725
 20
3.3615770557
 30
0.0
 40
2.112306307058903
100
AcDbArc
 50
165.9557163779
 51
192.0733198145
  0
ARC
  5
F2
330
1F
100
AcDbEntity
  8
0
  6
Continuous
 62
     7
370
    15
100
AcDbCircle
 10
4.9296729957
 20
3.5719971602
 30
0.0
 40
1.245208691493315
100
AcDbArc
 50
146.2237156017
 51
165.9557163779
  0
ARC
  5
F3
330
1F
100
AcDbEntity
  8
0
  6
Continuous
 62
     7
370
    15
100
AcDbCircle
 10
4.7259933265
 20
3.70822676
 30
0.0
 40
1.000170099546936
100
AcDbArc
 50
120.1731034161
 51
146.2237156017
  0
ARC
  5
F4
330
1F
100
AcDbEntity
  8
0
  6
Continuous
 62
     7
370
    15
100
AcDbCircle
 10
4.7698092843
 20
3.6328620514
 30
0.0
 40
1.087346228539702
100
AcDbArc
 50
95.206171585
 51
120.1731034161
  0
ARC
  5
F5
330
1F
100
AcDbEntity
  8
0
  6
Continuous
 62
     7
370
    15
100
AcDbCircle
 10
4.8039505193
 20
3.2581602037
 30
0.0
 40
1.463600263239039
100
AcDbArc
 50
87.4525133623
 51
95.206171585
  0
ARC
  5
F6
330
1F
100
AcDbEntity
  8
0
  6
Continuous
 62
     7
370
    15
100
AcDbCircle
 10
-77.9706486255
 20
4.673904892
 30
0.0
 40
84.91064610109923
100
AcDbArc
 50
359.4690116046
 51
0.0
  0
ARC
  5
F7
330
1F
100
AcDbEntity
  8
0
  6
Continuous
 62
     7
370
    15
100
AcDbCircle
 10
35.239494707
 20
3.6247003277
 30
0.0
 40
28.30435901564394
100
AcDbArc
 50
179.4690116046
 51
181.0619767908
  0
ARC
  5
F8
330
1F
100
AcDbEntity
  8
0
  6
Continuous
 62
     7
370
    15
100
AcDbCircle
 10
9.1469754
 20
3.141020312
 30
0.0
 40
2.207357077746212
100
AcDbArc
 50
181.0619767908
 51
187.4879201806
  0
ARC
  5
F9
330
1F
100
AcDbEntity
  8
0
  6
Continuous
 62
     7
370
    15
100
AcDbCircle
 10
7.6646211376
 20
2.9461826077
 30
0.0
 40
0.7122531047373709
100
AcDbArc
 50
187.4879201806
 51
198.8128514301
  0
ARC
  5
FA
330
1F
100
AcDbEntity
  8
0
  6
Continuous
 62
     7
370
    15
100
AcDbCircle
 10
7.2988950888
 20
2.821587759
 30
0.0
 40
0.3258861558977577
100
AcDbArc
 50
198.8128514302
 51
249.8416757881
  0
ARC
  5
FB
330
1F
100
AcDbEntity
  8
0
  6
Continuous
 62
     7
370
    15
100
AcDbCircle
 10
7.3250802707
 20
2.8929170612
 30
0.0
 40
0.4018699246158159
100
AcDbArc
 50
249.8416757881
 51
295.4876576979
  0
ARC
  5
FC
330
1F
100
AcDbEntity
  8
0
  6
Continuous
 62
     7
370
    15
100
AcDbCircle
 10
7.3703018892
 20
2.7980553833
 30
0.0
 40
0.2967807590715411
100
AcDbArc
 50
295.4876576979
 51
346.6220810271
  0
ARC
  5
FD
330
1F
100
AcDbEntity
  8
0
  6
Continuous
 62
     7
370
    15
100
AcDbCircle
 10
5.9645026648
 20
3.1323915269
 30
0.0
 40
1.741790141805364
100
AcDbArc
 50
346.6220810271
 51
358.9380232092
  0
ARC
  5
FE
330
1F
100
AcDbEntity
  8
0
  6
Continuous
 62
     7
370
    15
100
AcDbCircle
 10
-20.5935036087
 20
3.6247003277
 30
0.0
 40
28.30435901566672
100
AcDbArc
 50
358.9380232092
 51
0.5309883954
  0
ARC
  5
FF
330
1F
100
AcDbEntity
  8
0
  6
Continuous
 62
     7
370
    15
100
AcDbCircle
 10
92.616639724
 20
4.673904892
 30
0.0
 40
84.91064610130083
100
AcDbArc
 50
180.0
 51
180.5309883954
  0
LINE
  5
100
330
1F
100
AcDbEntity
  8
0
  6
Continuous
 62
     7
370
    15
100
AcDbLine
 10
8.2764171557
 20
4.6739046111
 30
0.0
 11
7.7059932546
 21
4.6739046111
 31
0.0
  0
ARC
  5
101
330
1F
100
AcDbEntity
  8
0
  6
Continuous
 62
     7
370
    15
100
AcDbCircle
 10
123.6650512822
 20
4.673904892
 30
0.0
 40
115.3886349967651
100
AcDbArc
 50
180.0
 51
180.3907340772
  0
ARC
  5
102
330
1F
100
AcDbEntity
  8
0
  6
Continuous
 62
     7
370
    15
100
AcDbCircle
 10
-30.1834807379
 20
3.6247037709
 30
0.0
 40
38.46347460113437
100
AcDbArc
 50
359.2185318457
 51
0.3907340772
  0
ARC
  5
103
330
1F
100
AcDbEntity
  8
0
  6
Continuous
 62
     7
370
    15
100
AcDbCircle
 10
5.7554065782
 20
3.1344959782
 30
0.0
 40
2.521244214063174
100
AcDbArc
 50
351.0679977267
 51
359.2185318457
  0
ARC
  5
104
330
1F
100
AcDbEntity
  8
0
  6
Continuous
 62
     7
370
    15
100
AcDbCircle
 10
7.1601951372
 20
2.9137080113
 30
0.0
 40
1.09921108447381
100
AcDbArc
 50
338.7105491413
 51
351.0679977267
  0
ARC
  5
105
330
1F
100
AcDbEntity
  8
0
  6
Continuous
 62
     7
370
    15
100
AcDbCircle
 10
7.4416663991
 20
2.8040266491
 30
0.0
 40
0.7971248839797592
100
AcDbArc
 50
311.8385327391
 51
338.7105491413
  0
ARC
  5
106
330
1F
100
AcDbEntity
  8
0
  6
Continuous
 62
     7
370
    15
100
AcDbCircle
 10
7.4498322369
 20
2.7949060087
 30
0.0
 40
0.7848828666170793
100
AcDbArc
 50
284.7538024162
 51
311.8385327391
  0
ARC
  5
107
330
1F
100
AcDbEntity
  8
0
  6
Continuous
 62
     7
370
    15
100
AcDbCircle
 10
7.316789482
 20
3.300101615
 30
0.0
 40
1.307303171820084
100
AcDbArc
 50
262.6049270401
 51
284.7538024162
  0
ARC
  5
108
330
1F
100
AcDbEntity
  8
0
  6
Continuous
 62
     7
370
    15
100
AcDbCircle
 10
7.2877559103
 20
3.0764048872
 30
0.0
 40
1.081730180705239
100
AcDbArc
 50
249.120102611
 51
262.6049270401
  0
ARC
  5
109
330
1F
100
AcDbEntity
  8
0
  6
Continuous
 62
     7
370
    15
100
AcDbCircle
 10
7.1567586505
 20
2.7329954873
 30
0.0
 40
0.7141838598131061
100
AcDbArc
 50
220.8336142521
 51
249.120102611
  0
ARC
  5
10A
330
1F
100
AcDbEntity
  8
0
  6
Continuous
 62
     7
370
    15
100
AcDbCircle
 10
7.3099331263
 20
2.8653690474
 30
0.0
 40
0.9166318270077896
100
AcDbArc
 50
195.9224967628
 51
220.8336142521
  0
ARC
  5
10B
330
1F
100
AcDbEntity
  8
0
  6
Continuous
 62
     7
370
    15
100
AcDbCircle
 10
7.8719216796
 20
3.0256942905
 30
0.0
 40
1.501042057682137
100
AcDbArc
 50
180.0907166038
 51
195.9224967628
  0
LINE
  5
10C
330
1F
100
AcDbEntity
  8
0
  6
Continuous
 62
     7
370
    15
100
AcDbLine
 10
6.3695751624
 20
4.6739046111
 30
0.0
 11
6.3708827393
 21
3.0233178868
 31
0.0
  0
LINE
  5
10D
330
1F
100
AcDbEntity
  8
0
  6
Continuous
 62
     7
370
    15
100
AcDbLine
 10
6.9399990635
 20
4.6739046111
 30
0.0
 11
6.3695751624
 21
4.6739046111
 31
0.0
  0
LINE
  5
10E
330
1F
100
AcDbEntity
  8
0
  6
Continuous
 62
     7
370
    15
100
AcDbLine
 10
10.3729043649
 20
4.0355947449
 30
0.0
 11
10.3729043649
 21
4.5912590458
 31
0.0
  0
ARC
  5
10F
330
1F
100
AcDbEntity
  8
0
  6
Continuous
 62
     7
370
    15
100
AcDbCircle
 10
12.2182330086
 20
7.7175046502
 30
0.0
 40
4.118458281174368
100
AcDbArc
 50
242.6758633248
 51
243.3805325645
  0
ARC
  5
110
330
1F
100
AcDbEntity
  8
0
  6
Continuous
 62
     7
370
    15
100
AcDbCircle
 10
9.6975737634
 20
2.8388605701
 30
0.0
 40
1.37288864741637
100
AcDbArc
 50
62.6758633249
 51
64.7898710438
  0
ARC
  5
111
330
1F
100
AcDbEntity
  8
0
  6
Continuous
 62
     7
370
    15
100
AcDbCircle
 10
9.5998168962
 20
2.6312119449
 30
0.0
 40
1.602397594200485
100
AcDbArc
 50
64.7898710438
 51
87.6618286821
  0
ARC
  5
112
330
1F
100
AcDbEntity
  8
0
  6
Continuous
 62
     7
370
    15
100
AcDbCircle
 10
9.6436446507
 20
3.7045940356
 30
0.0
 40
0.5281211005892272
100
AcDbArc
 50
87.661828682
 51
112.306558765
  0
ARC
  5
113
330
1F
100
AcDbEntity
  8
0
  6
Continuous
 62
     7
370
    15
100
AcDbCircle
 10
9.533951414
 20
3.9719665994
 30
0.0
 40
0.2391216299287952
100
AcDbArc
 50
112.306558765
 51
147.065770036
  0
ARC
  5
114
330
1F
100
AcDbEntity
  8
0
  6
Continuous
 62
     7
370
    15
100
AcDbCircle
 10
9.5600163152
 20
3.9550823612
 30
0.0
 40
0.2701773310414757
100
AcDbArc
 50
147.065770036
 51
179.7067611625
  0
ARC
  5
115
330
1F
100
AcDbEntity
  8
0
  6
Continuous
 62
     7
370
    15
100
AcDbCircle
 10
9.5056692234
 20
3.9553605111
 30
0.0
 40
0.2158295274918813
100
AcDbArc
 50
179.7067611625
 51
235.7084925238
  0
ARC
  5
116
330
1F
100
AcDbEntity
  8
0
  6
Continuous
 62
     7
370
    15
100
AcDbCircle
 10
9.6695322436
 20
4.1956512156
 30
0.0
 40
0.5066743522040035
100
AcDbArc
 50
235.7084925237
 51
252.2534825857
  0
ARC
  5
117
330
1F
100
AcDbEntity
  8
0
  6
Continuous
 62
     7
370
    15
100
AcDbCircle
 10
10.3650532326
 20
6.3689131129
 30
0.0
 40
2.788519377764317
100
AcDbArc
 50
252.2534825857
 51
259.1102561713
  0
ARC
  5
118
330
1F
100
AcDbEntity
  8
0
  6
Continuous
 62
     7
370
    15
100
AcDbCircle
 10
9.614415421
 20
2.4671449525
 30
0.0
 40
1.184798115438972
100
AcDbArc
 50
62.9281769251
 51
79.1102561713
  0
ARC
  5
119
330
1F
100
AcDbEntity
  8
0
  6
Continuous
 62
     7
370
    15
100
AcDbCircle
 10
9.8440765491
 20
2.916486919
 30
0.0
 40
0.6801671249304042
100
AcDbArc
 50
45.670440012
 51
62.9281769251
  0
ARC
  5
11A
330
1F
100
AcDbEntity
  8
0
  6
Continuous
 62
     7
370
    15
100
AcDbCircle
 10
9.8764864289
 20
2.9496642956
 30
0.0
 40
0.6337867559829095
100
AcDbArc
 50
12.0854278023
 51
45.670440012
  0
ARC
  5
11B
330
1F
100
AcDbEntity
  8
0
  6
Continuous
 62
     7
370
    15
100
AcDbCircle
 10
9.345753187
 20
2.8360261262
 30
0.0
 40
1.176549510470243
100
AcDbArc
 50
356.937726665
 51
12.0854278023
  0
ARC
  5
11C
330
1F
100
AcDbEntity
  8
0
  6
Continuous
 62
     7
370
    15
100
AcDbCircle
 10
9.4096092358
 20
2.8326099743
 30
0.0
 40
1.112602148734545
100
AcDbArc
 50
341.3581691659
 51
356.937726665
  0
ARC
  5
11D
330
1F
100
AcDbEntity
  8
0
  6
Continuous
 62
     7
370
    15
100
AcDbCircle
 10
9.83945852
 20
2.6876002519
 30
0.0
 40
0.6589522543559835
100
AcDbArc
 50
301.4441774583
 51
341.3581691658
  0
ARC
  5
11E
330
1F
100
AcDbEntity
  8
0
  6
Continuous
 62
     7
370
    15
100
AcDbCircle
 10
9.7676558425
 20
2.8050282266
 30
0.0
 40
0.7965929232868051
100
AcDbArc
 50
282.5174711087
 51
301.4441774583
  0
ARC
  5
11F
330
1F
100
AcDbEntity
  8
0
  6
Continuous
 62
     7
370
    15
100
AcDbCircle
 10
9.640059263
 20
3.3797497981
 30
0.0
 40
1.385308280522194
100
AcDbArc
 50
262.1481376797
 51
282.5174711087
  0
ARC
  5
120
330
1F
100
AcDbEntity
  8
0
  6
Continuous
 62
     7
370
    15
100
AcDbCircle
 10
9.8180978483
 20
4.6707710847
 30
0.0
 40
2.688547974602998
100
AcDbArc
 50
247.564204013
 51
262.1481376797
  0
LINE
  5
121
330
1F
100
AcDbEntity
  8
0
  6
Continuous
 62
     7
370
    15
100
AcDbLine
 10
8.7920196848
 20
2.7572166755
 30
0.0
 11
8.7920196848
 21
2.1857236161
 31
0.0
  0
ARC
  5
122
330
1F
100
AcDbEntity
  8
0
  6
Continuous
 62
     7
370
    15
100
AcDbCircle
 10
12.0379298252
 20
8.1959287393
 30
0.0
 40
6.333682993114197
100
AcDbArc
 50
239.1705751925
 51
240.6511861203
  0
ARC
  5
123
330
1F
100
AcDbEntity
  8
0
  6
Continuous
 62
     7
370
    15
100
AcDbCircle
 10
9.5926035044
 20
3.8470941288
 30
0.0
 40
1.344496357579863
100
AcDbArc
 50
240.6511861203
 51
243.86509938
  0
ARC
  5
124
330
1F
100
AcDbEntity
  8
0
  6
Continuous
 62
     7
370
    15
100
AcDbCircle
 10
9.6615972039
 20
3.9877109238
 30
0.0
 40
1.501127177075683
100
AcDbArc
 50
243.86509938
 51
267.8010837219
  0
ARC
  5
125
330
1F
100
AcDbEntity
  8
0
  6
Continuous
 62
     7
370
    15
100
AcDbCircle
 10
9.6215878165
 20
2.945723343
 30
0.0
 40
0.4583717552556518
100
AcDbArc
 50
267.8010837219
 51
294.8281542752
  0
ARC
  5
126
330
1F
100
AcDbEntity
  8
0
  6
Continuous
 62
     7
370
    15
100
AcDbCircle
 10
9.7061431114
 20
2.7629648231
 30
0.0
 40
0.257000768087315
100
AcDbArc
 50
294.8281542752
 51
333.5145370584
  0
ARC
  5
127
330
1F
100
AcDbEntity
  8
0
  6
Continuous
 62
     7
370
    15
100
AcDbCircle
 10
9.6649764883
 20
2.7834767047
 30
0.0
 40
0.3029945518222035
100
AcDbArc
 50
333.5145370584
 51
9.0371249796
  0
ARC
  5
128
330
1F
100
AcDbEntity
  8
0
  6
Continuous
 62
     7
370
    15
100
AcDbCircle
 10
9.733329113
 20
2.7943481019
 30
0.0
 40
0.2337827856841655
100
AcDbArc
 50
9.0371249796
 51
58.2835045136
  0
ARC
  5
129
330
1F
100
AcDbEntity
  8
0
  6
Continuous
 62
     7
370
    15
100
AcDbCircle
 10
9.5180321357
 20
2.4459769659
 30
0.0
 40
0.643313293471927
100
AcDbArc
 50
58.2835045137
 51
71.2831716242
  0
ARC
  5
12A
330
1F
100
AcDbEntity
  8
0
  6
Continuous
 62
     7
370
    15
100
AcDbCircle
 10
8.8522000352
 20
0.4807616014
 30
0.0
 40
2.718259995187957
100
AcDbArc
 50
71.2831716242
 51
77.9456876847
  0
ARC
  5
12B
330
1F
100
AcDbEntity
  8
0
  6
Continuous
 62
     7
370
    15
100
AcDbCircle
 10
9.642963719
 20
4.1837486043
 30
0.0
 40
1.068218572983308
100
AcDbArc
 50
240.938993977
 51
257.9456876847
  0
ARC
  5
12C
330
1F
100
AcDbEntity
  8
0
  6
Continuous
 62
     7
370
    15
100
AcDbCircle
 10
9.4466629191
 20
3.8305001442
 30
0.0
 40
0.6640917629011769
100
AcDbArc
 50
196.530054064
 51
240.938993977
  0
ARC
  5
12D
330
1F
100
AcDbEntity
  8
0
  6
Continuous
 62
     7
370
    15
100
AcDbCircle
 10
9.7587534511
 20
3.9231236677
 30
0.0
 40
0.9896368708145157
100
AcDbArc
 50
160.4626352857
 51
196.530054064
  0
ARC
  5
12E
330
1F
100
AcDbEntity
  8
0
  6
Continuous
 62
     7
370
    15
100
AcDbCircle
 10
9.4454146665
 20
4.0343127681
 30
0.0
 40
0.6571549765639497
100
AcDbArc
 50
122.9217391807
 51
160.4626352857
  0
ARC
  5
12F
330
1F
100
AcDbEntity
  8
0
  6
Continuous
 62
     7
370
    15
100
AcDbCircle
 10
9.5328221668
 20
3.8993136842
 30
0.0
 40
0.8179804216138375
100
AcDbArc
 50
98.5543269867
 51
122.9217391807
  0
ARC
  5
130
330
1F
100
AcDbEntity
  8
0
  6
Continuous
 62
     7
370
    15
100
AcDbCircle
 10
9.6252072413
 20
3.2851349436
 30
0.0
 40
1.439068601598623
100
AcDbArc
 50
80.7446811116
 51
98.5543269867
  0
ARC
  5
131
330
1F
100
AcDbEntity
  8
0
  6
Continuous
 62
     7
370
    15
100
AcDbCircle
 10
9.0995576232
 20
0.0594127413
 30
0.0
 40
4.707338977112019
100
AcDbArc
 50
74.3058269115
 51
80.7446811116
  0
LINE
  5
132
330
1F
100
AcDbEntity
  8
0
  6
Continuous
 62
     7
370
    15
100
AcDbLine
 10
12.7938680844
 20
4.162202461
 30
0.0
 11
12.7938680844
 21
4.6739046111
 31
0.0
  0
LINE
  5
133
330
1F
100
AcDbEntity
  8
0
  6
Continuous
 62
     7
370
    15
100
AcDbLine
 10
12.060466458
 20
4.162202461
 30
0.0
 11
12.7938680844
 21
4.162202461
 31
0.0
  0
LINE
  5
134
330
1F
100
AcDbEntity
  8
0
  6
Continuous
 62
     7
370
    15
100
AcDbLine
 10
12.060466458
 20
2.0485658779
 30
0.0
 11
12.060466458
 21
4.162202461
 31
0.0
  0
LINE
  5
135
330
1F
100
AcDbEntity
  8
0
  6
Continuous
 62
     7
370
    15
100
AcDbLine
 10
11.4900444196
 20
2.0485658779
 30
0.0
 11
12.060466458
 21
2.0485658779
 31
0.0
  0
LINE
  5
136
330
1F
100
AcDbEntity
  8
0
  6
Continuous
 62
     7
370
    15
100
AcDbLine
 10
11.4900444196
 20
4.162202461
 30
0.0
 11
11.4900444196
 21
2.0485658779
 31
0.0
  0
LINE
  5
137
330
1F
100
AcDbEntity
  8
0
  6
Continuous
 62
     7
370
    15
100
AcDbLine
 10
10.7551619904
 20
4.162202461
 30
0.0
 11
11.4900444196
 21
4.162202461
 31
0.0
  0
LINE
  5
138
330
1F
100
AcDbEntity
  8
0
  6
Continuous
 62
     7
370
    15
100
AcDbLine
 10
10.7551619904
 20
4.6739046111
 30
0.0
 11
10.7551619904
 21
4.162202461
 31
0.0
  0
LINE
  5
139
330
1F
100
AcDbEntity
  8
0
  6
Continuous
 62
     7
370
    15
100
AcDbLine
 10
12.7938680844
 20
4.6739046111
 30
0.0
 11
10.7551619904
 21
4.6739046111
 31
0.0
  0
ARC
  5
13A
330
1F
100
AcDbEntity
  8
0
  6
Continuous
 62
     7
370
    15
100
AcDbCircle
 10
14.1036841358
 20
3.7207538589
 30
0.0
 40
0.5099026232981636
100
AcDbArc
 50
83.3331496059
 51
86.7911279736
  0
ARC
  5
13B
330
1F
100
AcDbEntity
  8
0
  6
Continuous
 62
     7
370
    15
100
AcDbCircle
 10
14.0992624828
 20
3.6418859207
 30
0.0
 40
0.5888944119671992
100
AcDbArc
 50
86.7911279736
 51
90.00877451
  0
ARC
  5
13C
330
1F
100
AcDbEntity
  8
0
  6
Continuous
 62
     7
370
    15
100
AcDbCircle
 10
14.0992445138
 20
3.7592199471
 30
0.0
 40
0.471560384234154
100
AcDbArc
 50
90.00877451
 51
152.4453826104
  0
ARC
  5
13D
330
1F
100
AcDbEntity
  8
0
  6
Continuous
 62
     7
370
    15
100
AcDbCircle
 10
14.6436329052
 20
3.4751693926
 30
0.0
 40
1.085599013438076
100
AcDbArc
 50
152.4453826104
 51
171.072943811
  0
ARC
  5
13E
330
1F
100
AcDbEntity
  8
0
  6
Continuous
 62
     7
370
    15
100
AcDbCircle
 10
15.4382952781
 20
3.3503441002
 30
0.0
 40
1.890005403660363
100
AcDbArc
 50
171.072943811
 51
190.0677043498
  0
ARC
  5
13F
330
1F
100
AcDbEntity
  8
0
  6
Continuous
 62
     7
370
    15
100
AcDbCircle
 10
14.4098697477
 20
3.1677516329
 30
0.0
 40
0.8454963894317524
100
AcDbArc
 50
190.0677043498
 51
212.2348648177
  0
ARC
  5
140
330
1F
100
AcDbEntity
  8
0
  6
Continuous
 62
     7
370
    15
100
AcDbCircle
 10
14.1151526102
 20
2.9819077945
 30
0.0
 40
0.4970769247019802
100
AcDbArc
 50
212.2348648177
 51
254.9381106475
  0
ARC
  5
141
330
1F
100
AcDbEntity
  8
0
  6
Continuous
 62
     7
370
    15
100
AcDbCircle
 10
14.1057368172
 20
2.9469187971
 30
0.0
 40
0.4608431407838207
100
AcDbArc
 50
254.9381106475
 51
299.374283104
  0
ARC
  5
142
330
1F
100
AcDbEntity
  8
0
  6
Continuous
 62
     7
370
    15
100
AcDbCircle
 10
14.0889407502
 20
2.976758322
 30
0.0
 40
0.4950850027436134
100
AcDbArc
 50
299.374283104
 51
341.2673963914
  0
ARC
  5
143
330
1F
100
AcDbEntity
  8
0
  6
Continuous
 62
     7
370
    15
100
AcDbCircle
 10
12.9158244191
 20
3.3745804679
 30
0.0
 40
1.73381999699185
100
AcDbArc
 50
341.2673963913
 51
8.927056189
  0
ARC
  5
144
330
1F
100
AcDbEntity
  8
0
  6
Continuous
 62
     7
370
    15
100
AcDbCircle
 10
13.6299620283
 20
3.4867569581
 30
0.0
 40
1.010925751746428
100
AcDbArc
 50
8.927056189
 51
31.8827938598
  0
ARC
  5
145
330
1F
100
AcDbEntity
  8
0
  6
Continuous
 62
     7
370
    15
100
AcDbCircle
 10
14.1113318929
 20
3.7861827833
 30
0.0
 40
0.4440282554091556
100
AcDbArc
 50
31.8827938599
 51
83.3331496059
  0
ARC
  5
146
330
1F
100
AcDbEntity
  8
0
  6
Continuous
 62
     7
370
    15
100
AcDbCircle
 10
14.1107650324
 20
3.4421128571
 30
0.0
 40
1.279465634495145
100
AcDbArc
 50
79.1587551231
 51
87.4525133623
  0
ARC
  5
147
330
1F
100
AcDbEntity
  8
0
  6
Continuous
 62
     7
370
    15
100
AcDbCircle
 10
14.1626675919
 20
3.7131354997
 30
0.0
 40
1.003517906688688
100
AcDbArc
 50
32.313619643
 51
79.1587551231
  0
ARC
  5
148
330
1F
100
AcDbEntity
  8
0
  6
Continuous
 62
     7
370
    15
100
AcDbCircle
 10
13.842433925
 20
3.5105856195
 30
0.0
 40
1.382432218136954
100
AcDbArc
 50
12.0211499758
 51
32.313619643
  0
ARC
  5
149
330
1F
100
AcDbEntity
  8
0
  6
Continuous
 62
     7
370
    15
100
AcDbCircle
 10
13.1219218579
 20
3.3571580461
 30
0.0
 40
2.119098804260512
100
AcDbArc
 50
345.9914838952
 51
12.0211499758
  0
ARC
  5
14A
330
1F
100
AcDbEntity
  8
0
  6
Continuous
 62
     7
370
    15
100
AcDbCircle
 10
13.9710646803
 20
3.1453088996
 30
0.0
 40
1.243928195893994
100
AcDbArc
 50
326.2741425064
 51
345.9914838952
  0
ARC
  5
14B
330
1F
100
AcDbEntity
  8
0
  6
Continuous
 62
     7
370
    15
100
AcDbCircle
 10
14.1689246336
 20
3.0132236654
 30
0.0
 40
1.006031011755363
100
AcDbArc
 50
285.2057638578
 51
326.2741425064
  0
ARC
  5
14C
330
1F
100
AcDbEntity
  8
0
  6
Continuous
 62
     7
370
    15
100
AcDbCircle
 10
14.092207511
 20
3.2954773598
 30
0.0
 40
1.29852488339875
100
AcDbArc
 50
259.1389324518
 51
285.2057638578
  0
ARC
  5
14D
330
1F
100
AcDbEntity
  8
0
  6
Continuous
 62
     7
370
    15
100
AcDbCircle
 10
14.0369308922
 20
3.0073757955
 30
0.0
 40
1.005168417734578
100
AcDbArc
 50
212.3698665775
 51
259.1389324518
  0
ARC
  5
14E
330
1F
100
AcDbEntity
  8
0
  6
Continuous
 62
     7
370
    15
100
AcDbCircle
 10
14.3544269954
 20
3.2086307979
 30
0.0
 40
1.381077118737688
100
AcDbArc
 50
192.0733198145
 51
212.3698665775
  0
ARC
  5
14F
330
1F
100
AcDbEntity
  8
0
  6
Continuous
 62
     7
370
    15
100
AcDbCircle
 10
15.069481936
 20
3.3615770557
 30
0.0
 40
2.112306307058866
100
AcDbArc
 50
165.9557163779
 51
192.0733198145
  0
ARC
  5
150
330
1F
100
AcDbEntity
  8
0
  6
Continuous
 62
     7
370
    15
100
AcDbCircle
 10
14.2283032067
 20
3.5719971602
 30
0.0
 40
1.24520869149328
100
AcDbArc
 50
146.2237156017
 51
165.9557163779
  0
ARC
  5
151
330
1F
100
AcDbEntity
  8
0
  6
Continuous
 62
     7
370
    15
100
AcDbCircle
 10
14.0246235375
 20
3.70822676
 30
0.0
 40
1.000170099546784
100
AcDbArc
 50
120.1731034161
 51
146.2237156017
  0
ARC
  5
152
330
1F
100
AcDbEntity
  8
0
  6
Continuous
 62
     7
370
    15
100
AcDbCircle
 10
14.0684394953
 20
3.6328620514
 30
0.0
 40
1.0873462285397
100
AcDbArc
 50
95.206171585
 51
120.1731034161
  0
ARC
  5
153
330
1F
100
AcDbEntity
  8
0
  6
Continuous
 62
     7
370
    15
100
AcDbCircle
 10
14.1025807303
 20
3.2581602037
 30
0.0
 40
1.463600263239151
100
AcDbArc
 50
87.4525133623
 51
95.206171585
  0
LINE
  5
154
330
1F
100
AcDbEntity
  8
0
  6
Continuous
 62
     7
370
    15
100
AcDbLine
 10
17.1098180608
 20
2.8732706441
 30
0.0
 11
16.3053006427
 21
4.6739046111
 31
0.0
  0
LINE
  5
155
330
1F
100
AcDbEntity
  8
0
  6
Continuous
 62
     7
370
    15
100
AcDbLine
 10
17.1098180608
 20
4.6739046111
 30
0.0
 11
17.1098180608
 21
2.8732706441
 31
0.0
  0
LINE
  5
156
330
1F
100
AcDbEntity
  8
0
  6
Continuous
 62
     7
370
    15
100
AcDbLine
 10
17.6506091402
 20
4.6739046111
 30
0.0
 11
17.1098180608
 21
4.6739046111
 31
0.0
  0
LINE
  5
157
330
1F
100
AcDbEntity
  8
0
  6
Continuous
 62
     7
370
    15
100
AcDbLine
 10
17.6506091402
 20
2.0485658779
 30
0.0
 11
17.6506091402
 21
4.6739046111
 31
0.0
  0
LINE
  5
158
330
1F
100
AcDbEntity
  8
0
  6
Continuous
 62
     7
370
    15
100
AcDbLine
 10
17.0135137187
 20
2.0485658779
 30
0.0
 11
17.6506091402
 21
2.0485658779
 31
0.0
  0
LINE
  5
159
330
1F
100
AcDbEntity
  8
0
  6
Continuous
 62
     7
370
    15
100
AcDbLine
 10
16.2089944379
 20
3.8491998448
 30
0.0
 11
17.0135137187
 21
2.0485658779
 31
0.0
  0
LINE
  5
15A
330
1F
100
AcDbEntity
  8
0
  6
Continuous
 62
     7
370
    15
100
AcDbLine
 10
16.2089944379
 20
2.0485658779
 30
0.0
 11
16.2089944379
 21
3.8491998448
 31
0.0
  0
LINE
  5
15B
330
1F
100
AcDbEntity
  8
0
  6
Continuous
 62
     7
370
    15
100
AcDbLine
 10
15.6682052211
 20
2.0485658779
 30
0.0
 11
16.2089944379
 21
2.0485658779
 31
0.0
  0
LINE
  5
15C
330
1F
100
AcDbEntity
  8
0
  6
Continuous
 62
     7
370
    15
100
AcDbLine
 10
15.6682052211
 20
4.6739046111
 30
0.0
 11
15.6682052211
 21
2.0485658779
 31
0.0
  0
LINE
  5
15D
330
1F
100
AcDbEntity
  8
0
  6
Continuous
 62
     7
370
    15
100
AcDbLine
 10
16.3053006427
 20
4.6739046111
 30
0.0
 11
15.6682052211
 21
4.6739046111
 31
0.0
  0
LINE
  5
15E
330
1F
100
AcDbEntity
  8
0
  6
Continuous
 62
     7
370
    15
100
AcDbLine
 10
18.2180677102
 20
3.6979754104
 30
0.0
 11
18.5692117111
 21
3.6979754104
 31
0.0
  0
LINE
  5
15F
330
1F
100
AcDbEntity
  8
0
  6
Continuous
 62
     7
370
    15
100
AcDbLine
 10
18.2180677102
 20
4.6739046111
 30
0.0
 11
18.2180677102
 21
3.6979754104
 31
0.0
  0
LINE
  5
160
330
1F
100
AcDbEntity
  8
0
  6
Continuous
 62
     7
370
    15
100
AcDbLine
 10
18.5692117111
 20
3.6979754104
 30
0.0
 11
18.5692117111
 21
4.6739046111
 31
0.0
  0
LINE
  5
161
330
1F
100
AcDbEntity
  8
0
  6
Continuous
 62
     7
370
    15
100
AcDbLine
 10
18.5692117111
 20
4.6739046111
 30
0.0
 11
18.2180677102
 21
4.6739046111
 31
0.0
  0
LINE
  5
162
330
1F
100
AcDbEntity
  8
0
  6
Continuous
 62
     7
370
    15
100
AcDbLine
 10
20.6760719912
 20
4.0355947449
 30
0.0
 11
20.6760719912
 21
4.5912590458
 31
0.0
  0
ARC
  5
163
330
1F
100
AcDbEntity
  8
0
  6
Continuous
 62
     7
370
    15
100
AcDbCircle
 10
22.5213997529
 20
7.7175046501
 30
0.0
 40
4.11845828114922
100
AcDbArc
 50
242.6758633248
 51
243.3805325644
  0
ARC
  5
164
330
1F
100
AcDbEntity
  8
0
  6
Continuous
 62
     7
370
    15
100
AcDbCircle
 10
20.0007405077
 20
2.8388605701
 30
0.0
 40
1.372888647424582
100
AcDbArc
 50
62.6758633249
 51
64.7898710438
  0
ARC
  5
165
330
1F
100
AcDbEntity
  8
0
  6
Continuous
 62
     7
370
    15
100
AcDbCircle
 10
19.9029836405
 20
2.6312119449
 30
0.0
 40
1.602397594200311
100
AcDbArc
 50
64.7898710438
 51
87.6618286821
  0
ARC
  5
166
330
1F
100
AcDbEntity
  8
0
  6
Continuous
 62
     7
370
    15
100
AcDbCircle
 10
19.946811395
 20
3.7045940356
 30
0.0
 40
0.5281211005892256
100
AcDbArc
 50
87.6618286821
 51
112.306558765
  0
ARC
  5
167
330
1F
100
AcDbEntity
  8
0
  6
Continuous
 62
     7
370
    15
100
AcDbCircle
 10
19.8371181583
 20
3.9719665994
 30
0.0
 40
0.2391216299285824
100
AcDbArc
 50
112.306558765
 51
147.065770036
  0
ARC
  5
168
330
1F
100
AcDbEntity
  8
0
  6
Continuous
 62
     7
370
    15
100
AcDbCircle
 10
19.8631830595
 20
3.9550823612
 30
0.0
 40
0.2701773310412859
100
AcDbArc
 50
147.065770036
 51
179.7067611624
  0
ARC
  5
169
330
1F
100
AcDbEntity
  8
0
  6
Continuous
 62
     7
370
    15
100
AcDbCircle
 10
19.8088359677
 20
3.9553605111
 30
0.0
 40
0.2158295274918044
100
AcDbArc
 50
179.7067611624
 51
235.7084925237
  0
ARC
  5
16A
330
1F
100
AcDbEntity
  8
0
  6
Continuous
 62
     7
370
    15
100
AcDbCircle
 10
19.972698988
 20
4.1956512156
 30
0.0
 40
0.5066743522041387
100
AcDbArc
 50
235.7084925237
 51
252.2534825857
  0
ARC
  5
16B
330
1F
100
AcDbEntity
  8
0
  6
Continuous
 62
     7
370
    15
100
AcDbCircle
 10
20.668219977
 20
6.3689131129
 30
0.0
 40
2.788519377764499
100
AcDbArc
 50
252.2534825857
 51
259.1102561713
  0
ARC
  5
16C
330
1F
100
AcDbEntity
  8
0
  6
Continuous
 62
     7
370
    15
100
AcDbCircle
 10
19.9175821654
 20
2.4671449525
 30
0.0
 40
1.184798115438838
100
AcDbArc
 50
62.9281769251
 51
79.1102561713
  0
ARC
  5
16D
330
1F
100
AcDbEntity
  8
0
  6
Continuous
 62
     7
370
    15
100
AcDbCircle
 10
20.1472432935
 20
2.916486919
 30
0.0
 40
0.6801671249304015
100
AcDbArc
 50
45.6704400121
 51
62.9281769251
  0
ARC
  5
16E
330
1F
100
AcDbEntity
  8
0
  6
Continuous
 62
     7
370
    15
100
AcDbCircle
 10
20.1796531732
 20
2.9496642956
 30
0.0
 40
0.633786755983026
100
AcDbArc
 50
12.0854278023
 51
45.6704400121
  0
ARC
  5
16F
330
1F
100
AcDbEntity
  8
0
  6
Continuous
 62
     7
370
    15
100
AcDbCircle
 10
19.6489199313
 20
2.8360261262
 30
0.0
 40
1.176549510470389
100
AcDbArc
 50
356.937726665
 51
12.0854278023
  0
ARC
  5
170
330
1F
100
AcDbEntity
  8
0
  6
Continuous
 62
     7
370
    15
100
AcDbCircle
 10
19.7127759802
 20
2.8326099743
 30
0.0
 40
1.112602148734863
100
AcDbArc
 50
341.3581691659
 51
356.937726665
  0
ARC
  5
171
330
1F
100
AcDbEntity
  8
0
  6
Continuous
 62
     7
370
    15
100
AcDbCircle
 10
20.1426252643
 20
2.6876002519
 30
0.0
 40
0.6589522543557904
100
AcDbArc
 50
301.4441774583
 51
341.3581691658
  0
ARC
  5
172
330
1F
100
AcDbEntity
  8
0
  6
Continuous
 62
     7
370
    15
100
AcDbCircle
 10
20.0708225868
 20
2.8050282266
 30
0.0
 40
0.7965929232868794
100
AcDbArc
 50
282.5174711087
 51
301.4441774583
  0
ARC
  5
173
330
1F
100
AcDbEntity
  8
0
  6
Continuous
 62
     7
370
    15
100
AcDbCircle
 10
19.9432260073
 20
3.3797497981
 30
0.0
 40
1.38530828052211
100
AcDbArc
 50
262.1481376797
 51
282.5174711087
  0
ARC
  5
174
330
1F
100
AcDbEntity
  8
0
  6
Continuous
 62
     7
370
    15
100
AcDbCircle
 10
20.1212645927
 20
4.6707710847
 30
0.0
 40
2.688547974602932
100
AcDbArc
 50
247.564204013
 51
262.1481376797
  0
LINE
  5
175
330
1F
100
AcDbEntity
  8
0
  6
Continuous
 62
     7
370
    15
100
AcDbLine
 10
19.0951854484
 20
2.7572166755
 30
0.0
 11
19.0951854484
 21
2.1857236161
 31
0.0
  0
ARC
  5
176
330
1F
100
AcDbEntity
  8
0
  6
Continuous
 62
     7
370
    15
100
AcDbCircle
 10
22.3410965695
 20
8.1959287393
 30
0.0
 40
6.333682993118082
100
AcDbArc
 50
239.1705751925
 51
240.6511861203
  0
ARC
  5
177
330
1F
100
AcDbEntity
  8
0
  6
Continuous
 62
     7
370
    15
100
AcDbCircle
 10
19.8957702487
 20
3.8470941288
 30
0.0
 40
1.344496357578712
100
AcDbArc
 50
240.6511861203
 51
243.86509938
  0
ARC
  5
178
330
1F
100
AcDbEntity
  8
0
  6
Continuous
 62
     7
370
    15
100
AcDbCircle
 10
19.9647639482
 20
3.9877109238
 30
0.0
 40
1.50112717707558
100
AcDbArc
 50
243.86509938
 51
267.8010837219
  0
ARC
  5
179
330
1F
100
AcDbEntity
  8
0
  6
Continuous
 62
     7
370
    15
100
AcDbCircle
 10
19.9247545609
 20
2.945723343
 30
0.0
 40
0.4583717552555278
100
AcDbArc
 50
267.8010837219
 51
294.8281542752
  0
ARC
  5
17A
330
1F
100
AcDbEntity
  8
0
  6
Continuous
 62
     7
370
    15
100
AcDbCircle
 10
20.0093098557
 20
2.7629648231
 30
0.0
 40
0.25700076808735
100
AcDbArc
 50
294.8281542751
 51
333.5145370584
  0
ARC
  5
17B
330
1F
100
AcDbEntity
  8
0
  6
Continuous
 62
     7
370
    15
100
AcDbCircle
 10
19.9681432327
 20
2.7834767047
 30
0.0
 40
0.3029945518222601
100
AcDbArc
 50
333.5145370584
 51
9.0371249796
  0
ARC
  5
17C
330
1F
100
AcDbEntity
  8
0
  6
Continuous
 62
     7
370
    15
100
AcDbCircle
 10
20.0364958573
 20
2.7943481019
 30
0.0
 40
0.233782785684103
100
AcDbArc
 50
9.0371249796
 51
58.2835045137
  0
ARC
  5
17D
330
1F
100
AcDbEntity
  8
0
  6
Continuous
 62
     7
370
    15
100
AcDbCircle
 10
19.82119888
 20
2.4459769659
 30
0.0
 40
0.643313293472222
100
AcDbArc
 50
58.2835045137
 51
71.2831716242
  0
ARC
  5
17E
330
1F
100
AcDbEntity
  8
0
  6
Continuous
 62
     7
370
    15
100
AcDbCircle
 10
19.1553667795
 20
0.4807616014
 30
0.0
 40
2.718259995188159
100
AcDbArc
 50
71.2831716242
 51
77.9456876847
  0
ARC
  5
17F
330
1F
100
AcDbEntity
  8
0
  6
Continuous
 62
     7
370
    15
100
AcDbCircle
 10
19.9461304633
 20
4.1837486043
 30
0.0
 40
1.068218572983434
100
AcDbArc
 50
240.938993977
 51
257.9456876847
  0
ARC
  5
180
330
1F
100
AcDbEntity
  8
0
  6
Continuous
 62
     7
370
    15
100
AcDbCircle
 10
19.7498296634
 20
3.8305001442
 30
0.0
 40
0.6640917629011771
100
AcDbArc
 50
196.530054064
 51
240.938993977
  0
ARC
  5
181
330
1F
100
AcDbEntity
  8
0
  6
Continuous
 62
     7
370
    15
100
AcDbCircle
 10
20.0619201954
 20
3.9231236677
 30
0.0
 40
0.9896368708145662
100
AcDbArc
 50
160.4626352857
 51
196.530054064
  0
ARC
  5
182
330
1F
100
AcDbEntity
  8
0
  6
Continuous
 62
     7
370
    15
100
AcDbCircle
 10
19.7485814108
 20
4.0343127681
 30
0.0
 40
0.6571549765639363
100
AcDbArc
 50
122.9217391807
 51
160.4626352857
  0
ARC
  5
183
330
1F
100
AcDbEntity
  8
0
  6
Continuous
 62
     7
370
    15
100
AcDbCircle
 10
19.8359889111
 20
3.8993136842
 30
0.0
 40
0.8179804216137855
100
AcDbArc
 50
98.5543269867
 51
122.9217391807
  0
ARC
  5
184
330
1F
100
AcDbEntity
  8
0
  6
Continuous
 62
     7
370
    15
100
AcDbCircle
 10
19.9283739857
 20
3.2851349436
 30
0.0
 40
1.439068601598899
100
AcDbArc
 50
80.7446811116
 51
98.5543269867
  0
ARC
  5
185
330
1F
100
AcDbEntity
  8
0
  6
Continuous
 62
     7
370
    15
100
AcDbCircle
 10
19.4027243675
 20
0.0594127413
 30
0.0
 40
4.707338977112372
100
AcDbArc
 50
74.3058269115
 51
80.7446811116
  0
LINE
  5
186
330
1F
100
AcDbEntity
  8
0
  6
Continuous
 62
     7
370
    15
100
AcDbLine
 10
22.9488716023
 20
3.6733586921
 30
0.0
 11
22.9488716023
 21
4.6739046111
 31
0.0
  0
LINE
  5
187
330
1F
100
AcDbEntity
  8
0
  6
Continuous
 62
     7
370
    15
100
AcDbLine
 10
23.7904314445
 20
3.6733586921
 30
0.0
 11
22.9488716023
 21
3.6733586921
 31
0.0
  0
LINE
  5
188
330
1F
100
AcDbEntity
  8
0
  6
Continuous
 62
     7
370
    15
100
AcDbLine
 10
23.7904314445
 20
4.6739046111
 30
0.0
 11
23.7904314445
 21
3.6733586921
 31
0.0
  0
LINE
  5
189
330
1F
100
AcDbEntity
  8
0
  6
Continuous
 62
     7
370
    15
100
AcDbLine
 10
24.3608534829
 20
4.6739046111
 30
0.0
 11
23.7904314445
 21
4.6739046111
 31
0.0
  0
LINE
  5
18A
330
1F
100
AcDbEntity
  8
0
  6
Continuous
 62
     7
370
    15
100
AcDbLine
 10
24.3608534829
 20
2.0485658779
 30
0.0
 11
24.3608534829
 21
4.6739046111
 31
0.0
  0
LINE
  5
18B
330
1F
100
AcDbEntity
  8
0
  6
Continuous
 62
     7
370
    15
100
AcDbLine
 10
23.7904314445
 20
2.0485658779
 30
0.0
 11
24.3608534829
 21
2.0485658779
 31
0.0
  0
LINE
  5
18C
330
1F
100
AcDbEntity
  8
0
  6
Continuous
 62
     7
370
    15
100
AcDbLine
 10
23.7904314445
 20
3.1616528167
 30
0.0
 11
23.7904314445
 21
2.0485658779
 31
0.0
  0
LINE
  5
18D
330
1F
100
AcDbEntity
  8
0
  6
Continuous
 62
     7
370
    15
100
AcDbLine
 10
22.9488716023
 20
3.1616528167
 30
0.0
 11
23.7904314445
 21
3.1616528167
 31
0.0
  0
LINE
  5
18E
330
1F
100
AcDbEntity
  8
0
  6
Continuous
 62
     7
370
    15
100
AcDbLine
 10
22.9488716023
 20
2.0485658779
 30
0.0
 11
22.9488716023
 21
3.1616528167
 31
0.0
  0
LINE
  5
18F
330
1F
100
AcDbEntity
  8
0
  6
Continuous
 62
     7
370
    15
100
AcDbLine
 10
22.3784495638
 20
2.0485658779
 30
0.0
 11
22.9488716023
 21
2.0485658779
 31
0.0
  0
LINE
  5
190
330
1F
100
AcDbEntity
  8
0
  6
Continuous
 62
     7
370
    15
100
AcDbLine
 10
22.3784495638
 20
4.6739046111
 30
0.0
 11
22.3784495638
 21
2.0485658779
 31
0.0
  0
LINE
  5
191
330
1F
100
AcDbEntity
  8
0
  6
Continuous
 62
     7
370
    15
100
AcDbLine
 10
22.9488716023
 20
4.6739046111
 30
0.0
 11
22.3784495638
 21
4.6739046111
 31
0.0
  0
LINE
  5
192
330
1F
100
AcDbEntity
  8
0
  6
Continuous
 62
     7
370
    15
100
AcDbLine
 10
26.1165706934
 20
3.0139450564
 30
0.0
 11
25.8143201964
 21
4.0584531261
 31
0.0
  0
LINE
  5
193
330
1F
100
AcDbEntity
  8
0
  6
Continuous
 62
     7
370
    15
100
AcDbLine
 10
25.8143201964
 20
4.0584531261
 30
0.0
 11
25.5105888964
 21
3.0139450564
 31
0.0
  0
LINE
  5
194
330
1F
100
AcDbEntity
  8
0
  6
Continuous
 62
     7
370
    15
100
AcDbLine
 10
25.5105888964
 20
3.0139450564
 30
0.0
 11
26.1165706934
 21
3.0139450564
 31
0.0
  0
LINE
  5
195
330
1F
100
AcDbEntity
  8
0
  6
Continuous
 62
     7
370
    15
100
AcDbLine
 10
25.2276000129
 20
2.0485658779
 30
0.0
 11
25.3683535875
 21
2.5268596246
 31
0.0
  0
LINE
  5
196
330
1F
100
AcDbEntity
  8
0
  6
Continuous
 62
     7
370
    15
100
AcDbLine
 10
25.473548335
 20
4.6739046111
 30
0.0
 11
24.6542135747
 21
2.0485658779
 31
0.0
  0
LINE
  5
197
330
1F
100
AcDbEntity
  8
0
  6
Continuous
 62
     7
370
    15
100
AcDbLine
 10
26.1536103235
 20
4.6739046111
 30
0.0
 11
25.473548335
 21
4.6739046111
 31
0.0
  0
LINE
  5
198
330
1F
100
AcDbEntity
  8
0
  6
Continuous
 62
     7
370
    15
100
AcDbLine
 10
26.9729450838
 20
2.0485658779
 30
0.0
 11
26.1536103235
 21
4.6739046111
 31
0.0
  0
LINE
  5
199
330
1F
100
AcDbEntity
  8
0
  6
Continuous
 62
     7
370
    15
100
AcDbLine
 10
26.399559577
 20
2.0485658779
 30
0.0
 11
26.9729450838
 21
2.0485658779
 31
0.0
  0
LINE
  5
19A
330
1F
100
AcDbEntity
  8
0
  6
Continuous
 62
     7
370
    15
100
AcDbLine
 10
26.2602868052
 20
2.5268596246
 30
0.0
 11
26.399559577
 21
2.0485658779
 31
0.0
  0
LINE
  5
19B
330
1F
100
AcDbEntity
  8
0
  6
Continuous
 62
     7
370
    15
100
AcDbLine
 10
25.3683535875
 20
2.5268596246
 30
0.0
 11
26.2602868052
 21
2.5268596246
 31
0.0
  0
LINE
  5
19C
330
1F
100
AcDbEntity
  8
0
  6
Continuous
 62
     7
370
    15
100
AcDbLine
 10
24.6542135747
 20
2.0485658779
 30
0.0
 11
25.2276000129
 21
2.0485658779
 31
0.0
  0
ARC
  5
19D
330
1F
100
AcDbEntity
  8
0
  6
Continuous
 62
     7
370
    15
100
AcDbCircle
 10
28.5005971414
 20
2.9149486739
 30
0.0
 40
0.8835076313734394
100
AcDbArc
 50
294.0144141648
 51
297.8790031116
  0
ARC
  5
19E
330
1F
100
AcDbEntity
  8
0
  6
Continuous
 62
     7
370
    15
100
AcDbCircle
 10
28.3218588123
 20
3.3161298821
 30
0.0
 40
1.322704343680009
100
AcDbArc
 50
260.617287102
 51
294.0144141648
  0
ARC
  5
19F
330
1F
100
AcDbEntity
  8
0
  6
Continuous
 62
     7
370
    15
100
AcDbCircle
 10
28.2912752783
 20
3.1310431765
 30
0.0
 40
1.135107858807872
100
AcDbArc
 50
240.7372929213
 51
260.617287102
  0
ARC
  5
1A0
330
1F
100
AcDbEntity
  8
0
  6
Continuous
 62
     7
370
    15
100
AcDbCircle
 10
28.26413356
 20
3.0826033536
 30
0.0
 40
1.079582285278818
100
AcDbArc
 50
197.7655973751
 51
240.7372929213
  0
ARC
  5
1A1
330
1F
100
AcDbEntity
  8
0
  6
Continuous
 62
     7
370
    15
100
AcDbCircle
 10
29.1702841632
 20
3.3729364256
 30
0.0
 40
2.031108537330987
100
AcDbArc
 50
176.0777263755
 51
197.7655973751
  0
ARC
  5
1A2
330
1F
100
AcDbEntity
  8
0
  6
Continuous
 62
     7
370
    15
100
AcDbCircle
 10
28.7834953223
 20
3.3994561096
 30
0.0
 40
1.643411618242436
100
AcDbArc
 50
153.2944977609
 51
176.0777263755
  0
ARC
  5
1A3
330
1F
100
AcDbEntity
  8
0
  6
Continuous
 62
     7
370
    15
100
AcDbCircle
 10
28.2444430915
 20
3.6706360013
 30
0.0
 40
1.039991498286438
100
AcDbArc
 50
112.7489819089
 51
153.2944977609
  0
ARC
  5
1A4
330
1F
100
AcDbEntity
  8
0
  6
Continuous
 62
     7
370
    15
100
AcDbCircle
 10
28.3113426311
 20
3.5110907578
 30
0.0
 40
1.2129950622031
100
AcDbArc
 50
80.8130374271
 51
112.7489819089
  0
ARC
  5
1A5
330
1F
100
AcDbEntity
  8
0
  6
Continuous
 62
     7
370
    15
100
AcDbCircle
 10
28.2606385822
 20
3.1975825166
 30
0.0
 40
1.530577048291798
100
AcDbArc
 50
60.2325788072
 51
80.8130374271
  0
LINE
  5
1A6
330
1F
100
AcDbEntity
  8
0
  6
Continuous
 62
     7
370
    15
100
AcDbLine
 10
29.0205397205
 20
3.982840909
 30
0.0
 11
29.0205397205
 21
4.5261968507
 31
0.0
  0
ARC
  5
1A7
330
1F
100
AcDbEntity
  8
0
  6
Continuous
 62
     7
370
    15
100
AcDbCircle
 10
30.7480781251
 20
6.2610364991
 30
0.0
 40
2.859118645072229
100
AcDbArc
 50
231.8339147484
 51
232.8272334313
  0
ARC
  5
1A8
330
1F
100
AcDbEntity
  8
0
  6
Continuous
 62
     7
370
    15
100
AcDbCircle
 10
28.3923221922
 20
3.2637557105
 30
0.0
 40
0.9531350375559984
100
AcDbArc
 50
51.8339147484
 51
54.813870797
  0
ARC
  5
1A9
330
1F
100
AcDbEntity
  8
0
  6
Continuous
 62
     7
370
    15
100
AcDbCircle
 10
28.3367327531
 20
3.1849121414
 30
0.0
 40
1.049605209809269
100
AcDbArc
 50
54.813870797
 51
86.5104373161
  0
ARC
  5
1AA
330
1F
100
AcDbEntity
  8
0
  6
Continuous
 62
     7
370
    15
100
AcDbCircle
 10
28.3658529898
 20
3.6624514023
 30
0.0
 40
0.5711789000278065
100
AcDbArc
 50
86.5104373161
 51
129.966121703
  0
ARC
  5
1AB
330
1F
100
AcDbEntity
  8
0
  6
Continuous
 62
     7
370
    15
100
AcDbCircle
 10
28.4109697473
 20
3.6086187332
 30
0.0
 40
0.6414176220128283
100
AcDbArc
 50
129.966121703
 51
162.3345052245
  0
ARC
  5
1AC
330
1F
100
AcDbEntity
  8
0
  6
Continuous
 62
     7
370
    15
100
AcDbCircle
 10
29.2342916941
 20
3.3464094077
 30
0.0
 40
1.50548518785757
100
AcDbArc
 50
162.3345052244
 51
183.2991721929
  0
ARC
  5
1AD
330
1F
100
AcDbEntity
  8
0
  6
Continuous
 62
     7
370
    15
100
AcDbCircle
 10
28.8940622058
 20
3.3267968308
 30
0.0
 40
1.164690883529688
100
AcDbArc
 50
183.2991721929
 51
207.2327867025
  0
ARC
  5
1AE
330
1F
100
AcDbEntity
  8
0
  6
Continuous
 62
     7
370
    15
100
AcDbCircle
 10
28.3560436302
 20
3.0499035363
 30
0.0
 40
0.5596009032031016
100
AcDbArc
 50
207.2327867025
 51
257.9257751494
  0
ARC
  5
1AF
330
1F
100
AcDbEntity
  8
0
  6
Continuous
 62
     7
370
    15
100
AcDbCircle
 10
28.4000707418
 20
3.2557233652
 30
0.0
 40
0.7700770028454993
100
AcDbArc
 50
257.9257751494
 51
295.240823526
  0
ARC
  5
1B0
330
1F
100
AcDbEntity
  8
0
  6
Continuous
 62
     7
370
    15
100
AcDbCircle
 10
28.0279063842
 20
4.0451523999
 30
0.0
 40
1.642833847553855
100
AcDbArc
 50
295.240823526
 51
307.1727665687
  0
LINE
  5
1B1
330
1F
100
AcDbEntity
  8
0
  6
Continuous
 62
     7
370
    15
100
AcDbLine
 10
29.0205397205
 20
2.1927606894
 30
0.0
 11
29.0205397205
 21
2.7361129059
 31
0.0
  0
ARC
  5
1B2
330
1F
100
AcDbEntity
  8
0
  6
Continuous
 62
     7
370
    15
100
AcDbCircle
 10
27.1840126632
 20
5.4037491063
 30
0.0
 40
3.699093233114924
100
AcDbArc
 50
297.8790031116
 51
299.7674211928
  0
LINE
  5
1B3
330
1F
100
AcDbEntity
  8
0
  6
Continuous
 62
     7
370
    15
100
AcDbLine
 10
30.0635986523
 20
3.7155587806
 30
0.0
 11
30.0635986523
 21
4.6739046111
 31
0.0
  0
LINE
  5
1B4
330
1F
100
AcDbEntity
  8
0
  6
Continuous
 62
     7
370
    15
100
AcDbLine
 10
30.8858959497
 20
4.6739046111
 30
0.0
 11
30.0635986523
 21
3.7155587806
 31
0.0
  0
LINE
  5
1B5
330
1F
100
AcDbEntity
  8
0
  6
Continuous
 62
     7
370
    15
100
AcDbLine
 10
31.548179456
 20
4.6739046111
 30
0.0
 11
30.8858959497
 21
4.6739046111
 31
0.0
  0
LINE
  5
1B6
330
1F
100
AcDbEntity
  8
0
  6
Continuous
 62
     7
370
    15
100
AcDbLine
 10
30.4828968392
 20
3.4306932821
 30
0.0
 11
31.548179456
 21
4.6739046111
 31
0.0
  0
LINE
  5
1B7
330
1F
100
AcDbEntity
  8
0
  6
Continuous
 62
     7
370
    15
100
AcDbLine
 10
31.6578189404
 20
2.0485658779
 30
0.0
 11
30.4828968392
 21
3.4306932821
 31
0.0
  0
LINE
  5
1B8
330
1F
100
AcDbEntity
  8
0
  6
Continuous
 62
     7
370
    15
100
AcDbLine
 10
30.9436798589
 20
2.0485658779
 30
0.0
 11
31.6578189404
 21
2.0485658779
 31
0.0
  0
LINE
  5
1B9
330
1F
100
AcDbEntity
  8
0
  6
Continuous
 62
     7
370
    15
100
AcDbLine
 10
30.0635986523
 20
2.0485658779
 30
0.0
 11
30.0635986523
 21
3.0825239255
 31
0.0
  0
LINE
  5
1BA
330
1F
100
AcDbEntity
  8
0
  6
Continuous
 62
     7
370
    15
100
AcDbLine
 10
29.4931756826
 20
2.0485658779
 30
0.0
 11
30.0635986523
 21
2.0485658779
 31
0.0
  0
LINE
  5
1BB
330
1F
100
AcDbEntity
  8
0
  6
Continuous
 62
     7
370
    15
100
AcDbLine
 10
29.4931756826
 20
4.6739046111
 30
0.0
 11
29.4931756826
 21
2.0485658779
 31
0.0
  0
LINE
  5
1BC
330
1F
100
AcDbEntity
  8
0
  6
Continuous
 62
     7
370
    15
100
AcDbLine
 10
30.0635986523
 20
4.6739046111
 30
0.0
 11
29.4931756826
 21
4.6739046111
 31
0.0
  0
LINE
  5
1BD
330
1F
100
AcDbEntity
  8
0
  6
Continuous
 62
     7
370
    15
100
AcDbLine
 10
30.0635986523
 20
3.0825239255
 30
0.0
 11
30.9436798589
 21
2.0485658779
 31
0.0
  0
LINE
  5
1BE
330
1F
100
AcDbEntity
  8
0
  6
Continuous
 62
     7
370
    15
100
AcDbLine
 10
32.4149255203
 20
4.162202461
 30
0.0
 11
33.3839033292
 21
4.162202461
 31
0.0
  0
LINE
  5
1BF
330
1F
100
AcDbEntity
  8
0
  6
Continuous
 62
     7
370
    15
100
AcDbLine
 10
32.4149255203
 20
3.6733586921
 30
0.0
 11
32.4149255203
 21
4.162202461
 31
0.0
  0
LINE
  5
1C0
330
1F
100
AcDbEntity
  8
0
  6
Continuous
 62
     7
370
    15
100
AcDbLine
 10
33.3261198857
 20
3.6733586921
 30
0.0
 11
32.4149255203
 21
3.6733586921
 31
0.0
  0
LINE
  5
1C1
330
1F
100
AcDbEntity
  8
0
  6
Continuous
 62
     7
370
    15
100
AcDbLine
 10
33.3261198857
 20
3.1616528167
 30
0.0
 11
33.3261198857
 21
3.6733586921
 31
0.0
  0
LINE
  5
1C2
330
1F
100
AcDbEntity
  8
0
  6
Continuous
 62
     7
370
    15
100
AcDbLine
 10
32.4149255203
 20
3.1616528167
 30
0.0
 11
33.3261198857
 21
3.1616528167
 31
0.0
  0
LINE
  5
1C3
330
1F
100
AcDbEntity
  8
0
  6
Continuous
 62
     7
370
    15
100
AcDbLine
 10
32.4149255203
 20
2.5602717533
 30
0.0
 11
32.4149255203
 21
3.1616528167
 31
0.0
  0
LINE
  5
1C4
330
1F
100
AcDbEntity
  8
0
  6
Continuous
 62
     7
370
    15
100
AcDbLine
 10
33.416498688
 20
2.5602717533
 30
0.0
 11
32.4149255203
 21
2.5602717533
 31
0.0
  0
LINE
  5
1C5
330
1F
100
AcDbEntity
  8
0
  6
Continuous
 62
     7
370
    15
100
AcDbLine
 10
33.416498688
 20
2.0485658779
 30
0.0
 11
33.416498688
 21
2.5602717533
 31
0.0
  0
LINE
  5
1C6
330
1F
100
AcDbEntity
  8
0
  6
Continuous
 62
     7
370
    15
100
AcDbLine
 10
31.8445025505
 20
4.6739046111
 30
0.0
 11
31.8445025505
 21
2.0485658779
 31
0.0
  0
LINE
  5
1C7
330
1F
100
AcDbEntity
  8
0
  6
Continuous
 62
     7
370
    15
100
AcDbLine
 10
33.3839033292
 20
4.6739046111
 30
0.0
 11
31.8445025505
 21
4.6739046111
 31
0.0
  0
LINE
  5
1C8
330
1F
100
AcDbEntity
  8
0
  6
Continuous
 62
     7
370
    15
100
AcDbLine
 10
33.3839033292
 20
4.162202461
 30
0.0
 11
33.3839033292
 21
4.6739046111
 31
0.0
  0
LINE
  5
1C9
330
1F
100
AcDbEntity
  8
0
  6
Continuous
 62
     7
370
    15
100
AcDbLine
 10
31.8445025505
 20
2.0485658779
 30
0.0
 11
33.416498688
 21
2.0485658779
 31
0.0
  0
ARC
  5
1CA
330
1F
100
AcDbEntity
  8
0
  6
Continuous
 62
     7
370
    15
100
AcDbCircle
 10
34.5215057784
 20
3.8532448512
 30
0.0
 40
0.5455126817447133
100
AcDbArc
 50
342.9810349287
 51
15.5741225284
  0
ARC
  5
1CB
330
1F
100
AcDbEntity
  8
0
  6
Continuous
 62
     7
370
    15
100
AcDbCircle
 10
34.8145320707
 20
3.9349166186
 30
0.0
 40
0.241317537827808
100
AcDbArc
 50
15.5741225284
 51
45.127014142
  0
ARC
  5
1CC
330
1F
100
AcDbEntity
  8
0
  6
Continuous
 62
     7
370
    15
100
AcDbCircle
 10
34.8217272908
 20
3.9421438106
 30
0.0
 40
0.2311193274668489
100
AcDbArc
 50
45.127014142
 51
86.5567790271
  0
ARC
  5
1CD
330
1F
100
AcDbEntity
  8
0
  6
Continuous
 62
     7
370
    15
100
AcDbCircle
 10
34.4877080418
 20
-1.6093003669
 30
0.0
 40
5.792603060626011
100
AcDbArc
 50
86.5567790271
 51
90.0
  0
LINE
  5
1CE
330
1F
100
AcDbEntity
  8
0
  6
Continuous
 62
     7
370
    15
100
AcDbLine
 10
34.4877082416
 20
4.1833025052
 30
0.0
 11
34.4877082416
 21
3.5098221733
 31
0.0
  0
ARC
  5
1CF
330
1F
100
AcDbEntity
  8
0
  6
Continuous
 62
     7
370
    15
100
AcDbCircle
 10
34.4877080418
 20
13.2151728749
 30
0.0
 40
9.705349184532169
100
AcDbArc
 50
270.0
 51
271.9039083027
  0
ARC
  5
1D0
330
1F
100
AcDbEntity
  8
0
  6
Continuous
 62
     7
370
    15
100
AcDbCircle
 10
34.8017661484
 20
3.767459209
 30
0.0
 40
0.2524170464588555
100
AcDbArc
 50
271.9039083027
 51
342.9810349287
  0
ARC
  5
1D1
330
1F
100
AcDbEntity
  8
0
  6
Continuous
 62
     7
370
    15
100
AcDbCircle
 10
34.4877080418
 20
0.2466899203
 30
0.0
 40
2.795391172441472
100
AcDbArc
 50
85.448414028
 51
90.0
  0
LINE
  5
1D2
330
1F
100
AcDbEntity
  8
0
  6
Continuous
 62
     7
370
    15
100
AcDbLine
 10
34.4877082416
 20
2.0485658779
 30
0.0
 11
34.4877082416
 21
3.042082174
 31
0.0
  0
LINE
  5
1D3
330
1F
100
AcDbEntity
  8
0
  6
Continuous
 62
     7
370
    15
100
AcDbLine
 10
33.9172852719
 20
2.0485658779
 30
0.0
 11
34.4877082416
 21
2.0485658779
 31
0.0
  0
LINE
  5
1D4
330
1F
100
AcDbEntity
  8
0
  6
Continuous
 62
     7
370
    15
100
AcDbLine
 10
33.9172852719
 20
4.6739046111
 30
0.0
 11
33.9172852719
 21
2.0485658779
 31
0.0
  0
ARC
  5
1D5
330
1F
100
AcDbEntity
  8
0
  6
Continuous
 62
     7
370
    15
100
AcDbCircle
 10
33.9172853791
 20
-187.7483654502
 30
0.0
 40
192.4222703421467
100
AcDbArc
 50
89.7110770541
 51
90.0
  0
ARC
  5
1D6
330
1F
100
AcDbEntity
  8
0
  6
Continuous
 62
     7
370
    15
100
AcDbCircle
 10
34.8824171495
 20
3.6435236216
 30
0.0
 40
1.027947851087044
100
AcDbArc
 50
69.4252135516
 51
89.7110770541
  0
ARC
  5
1D7
330
1F
100
AcDbEntity
  8
0
  6
Continuous
 62
     7
370
    15
100
AcDbCircle
 10
35.038742878
 20
4.0599778426
 30
0.0
 40
0.5831199613177438
100
AcDbArc
 50
41.8508157403
 51
69.4252135516
  0
ARC
  5
1D8
330
1F
100
AcDbEntity
  8
0
  6
Continuous
 62
     7
370
    15
100
AcDbCircle
 10
35.0364866001
 20
4.0579568936
 30
0.0
 40
0.5861489916256631
100
AcDbArc
 50
14.3491619941
 51
41.8508157403
  0
ARC
  5
1D9
330
1F
100
AcDbEntity
  8
0
  6
Continuous
 62
     7
370
    15
100
AcDbCircle
 10
34.5935805071
 20
3.9446567355
 30
0.0
 40
1.04331715875603
100
AcDbArc
 50
354.4055559002
 51
14.3491619941
  0
ARC
  5
1DA
330
1F
100
AcDbEntity
  8
0
  6
Continuous
 62
     7
370
    15
100
AcDbCircle
 10
34.8368596013
 20
3.9208268288
 30
0.0
 40
0.7988737458440164
100
AcDbArc
 50
337.2180616714
 51
354.4055559002
  0
ARC
  5
1DB
330
1F
100
AcDbEntity
  8
0
  6
Continuous
 62
     7
370
    15
100
AcDbCircle
 10
35.0708514354
 20
3.822552504
 30
0.0
 40
0.5450824509733155
100
AcDbArc
 50
305.1385274196
 51
337.2180616714
  0
ARC
  5
1DC
330
1F
100
AcDbEntity
  8
0
  6
Continuous
 62
     7
370
    15
100
AcDbCircle
 10
34.7663924147
 20
4.2551352615
 30
0.0
 40
1.074065567385317
100
AcDbArc
 50
294.2641981995
 51
305.1385274195
  0
ARC
  5
1DD
330
1F
100
AcDbEntity
  8
0
  6
Continuous
 62
     7
370
    15
100
AcDbCircle
 10
35.0219970196
 20
2.7675335688
 30
0.0
 40
0.5412973353429585
100
AcDbArc
 50
55.6442039272
 51
69.9276174471
  0
ARC
  5
1DE
330
1F
100
AcDbEntity
  8
0
  6
Continuous
 62
     7
370
    15
100
AcDbCircle
 10
34.7791179651
 20
2.6004442214
 30
0.0
 40
0.8310630759151766
100
AcDbArc
 50
23.2583832262
 51
39.8201507447
  0
LINE
  5
1DF
330
1F
100
AcDbEntity
  8
0
  6
Continuous
 62
     7
370
    15
100
AcDbLine
 10
35.3070425363
 20
2.0485658779
 30
0.0
 11
35.9145056018
 21
2.0485658779
 31
0.0
  0
LINE
  5
1E0
330
1F
100
AcDbEntity
  8
0
  6
Continuous
 62
     7
370
    15
100
AcDbLine
 10
35.0128288874
 20
2.7604390516
 30
0.0
 11
35.3070425363
 21
2.0485658779
 31
0.0
  0
ARC
  5
1E1
330
1F
100
AcDbEntity
  8
0
  6
Continuous
 62
     7
370
    15
100
AcDbCircle
 10
34.401302537
 20
2.5077223676
 30
0.0
 40
0.6616869019611481
100
AcDbArc
 50
22.4529849732
 51
39.2230979438
  0
ARC
  5
1E2
330
1F
100
AcDbEntity
  8
0
  6
Continuous
 62
     7
370
    15
100
AcDbCircle
 10
34.6862173575
 20
2.7402845481
 30
0.0
 40
0.2939075894411801
100
AcDbArc
 50
39.2230979438
 51
85.448414028
  0
ARC
  5
1E3
330
1F
100
AcDbEntity
  8
0
  6
Continuous
 62
     7
370
    15
100
AcDbCircle
 10
35.0782894614
 20
2.8498828237
 30
0.0
 40
0.4415464516983741
100
AcDbArc
 50
39.8201507447
 51
55.6442039272
  0
ARC
  5
1E4
330
1F
100
AcDbEntity
  8
0
  6
Continuous
 62
     7
370
    15
100
AcDbCircle
 10
-35.9036704416
 20
-27.7795299326
 30
0.0
 40
77.76609675066753
100
AcDbArc
 50
22.5544788949
 51
23.2583832262
  0
LINE
  5
1E5
330
1F
100
AcDbEntity
  8
0
  6
Continuous
 62
     7
370
    15
100
AcDbLine
 10
38.8495893885
 20
4.0355947449
 30
0.0
 11
38.8495893885
 21
4.5912590458
 31
0.0
  0
ARC
  5
1E6
330
1F
100
AcDbEntity
  8
0
  6
Continuous
 62
     7
370
    15
100
AcDbCircle
 10
40.6949176255
 20
7.7175046501
 30
0.0
 40
4.118458281129612
100
AcDbArc
 50
242.6758633249
 51
243.3805325646
  0
ARC
  5
1E7
330
1F
100
AcDbEntity
  8
0
  6
Continuous
 62
     7
370
    15
100
AcDbCircle
 10
38.1742583803
 20
2.8388605701
 30
0.0
 40
1.372888647424367
100
AcDbArc
 50
62.6758633249
 51
64.7898710438
  0
ARC
  5
1E8
330
1F
100
AcDbEntity
  8
0
  6
Continuous
 62
     7
370
    15
100
AcDbCircle
 10
38.1203292676
 20
3.7045940356
 30
0.0
 40
0.528121100589384
100
AcDbArc
 50
87.6618286821
 51
112.306558765
  0
ARC
  5
1E9
330
1F
100
AcDbEntity
  8
0
  6
Continuous
 62
     7
370
    15
100
AcDbCircle
 10
38.0106360309
 20
3.9719665994
 30
0.0
 40
0.2391216299286174
100
AcDbArc
 50
112.306558765
 51
147.065770036
  0
ARC
  5
1EA
330
1F
100
AcDbEntity
  8
0
  6
Continuous
 62
     7
370
    15
100
AcDbCircle
 10
38.0367009321
 20
3.9550823612
 30
0.0
 40
0.2701773310414476
100
AcDbArc
 50
147.065770036
 51
179.7067611624
  0
ARC
  5
1EB
330
1F
100
AcDbEntity
  8
0
  6
Continuous
 62
     7
370
    15
100
AcDbCircle
 10
37.9823538403
 20
3.9553605111
 30
0.0
 40
0.2158295274918676
100
AcDbArc
 50
179.7067611624
 51
235.7084925238
  0
ARC
  5
1EC
330
1F
100
AcDbEntity
  8
0
  6
Continuous
 62
     7
370
    15
100
AcDbCircle
 10
38.1462168605
 20
4.1956512156
 30
0.0
 40
0.5066743522039141
100
AcDbArc
 50
235.7084925237
 51
252.2534825857
  0
ARC
  5
1ED
330
1F
100
AcDbEntity
  8
0
  6
Continuous
 62
     7
370
    15
100
AcDbCircle
 10
38.8417378495
 20
6.3689131129
 30
0.0
 40
2.788519377764981
100
AcDbArc
 50
252.2534825857
 51
259.1102561713
  0
ARC
  5
1EE
330
1F
100
AcDbEntity
  8
0
  6
Continuous
 62
     7
370
    15
100
AcDbCircle
 10
38.320761166
 20
2.916486919
 30
0.0
 40
0.68016712493028
100
AcDbArc
 50
45.670440012
 51
62.9281769251
  0
ARC
  5
1EF
330
1F
100
AcDbEntity
  8
0
  6
Continuous
 62
     7
370
    15
100
AcDbCircle
 10
38.3531710458
 20
2.9496642956
 30
0.0
 40
0.6337867559829247
100
AcDbArc
 50
12.0854278023
 51
45.670440012
  0
ARC
  5
1F0
330
1F
100
AcDbEntity
  8
0
  6
Continuous
 62
     7
370
    15
100
AcDbCircle
 10
37.8224378038
 20
2.8360261262
 30
0.0
 40
1.176549510470414
100
AcDbArc
 50
356.937726665
 51
12.0854278023
  0
ARC
  5
1F1
330
1F
100
AcDbEntity
  8
0
  6
Continuous
 62
     7
370
    15
100
AcDbCircle
 10
37.8862938527
 20
2.8326099743
 30
0.0
 40
1.112602148734827
100
AcDbArc
 50
341.3581691659
 51
356.937726665
  0
ARC
  5
1F2
330
1F
100
AcDbEntity
  8
0
  6
Continuous
 62
     7
370
    15
100
AcDbCircle
 10
38.3161431369
 20
2.6876002519
 30
0.0
 40
0.6589522543558073
100
AcDbArc
 50
301.4441774583
 51
341.3581691658
  0
ARC
  5
1F3
330
1F
100
AcDbEntity
  8
0
  6
Continuous
 62
     7
370
    15
100
AcDbCircle
 10
38.2443404594
 20
2.8050282266
 30
0.0
 40
0.7965929232868139
100
AcDbArc
 50
282.5174711087
 51
301.4441774583
  0
ARC
  5
1F4
330
1F
100
AcDbEntity
  8
0
  6
Continuous
 62
     7
370
    15
100
AcDbCircle
 10
38.1167438799
 20
3.3797497981
 30
0.0
 40
1.385308280522245
100
AcDbArc
 50
262.1481376797
 51
282.5174711087
  0
ARC
  5
1F5
330
1F
100
AcDbEntity
  8
0
  6
Continuous
 62
     7
370
    15
100
AcDbCircle
 10
38.2947824652
 20
4.6707710847
 30
0.0
 40
2.688547974602727
100
AcDbArc
 50
247.564204013
 51
262.1481376797
  0
LINE
  5
1F6
330
1F
100
AcDbEntity
  8
0
  6
Continuous
 62
     7
370
    15
100
AcDbLine
 10
37.2687038062
 20
2.7572166755
 30
0.0
 11
37.2687038062
 21
2.1857236161
 31
0.0
  0
ARC
  5
1F7
330
1F
100
AcDbEntity
  8
0
  6
Continuous
 62
     7
370
    15
100
AcDbCircle
 10
40.5146144421
 20
8.1959287393
 30
0.0
 40
6.333682993125745
100
AcDbArc
 50
239.1705751925
 51
240.6511861203
  0
ARC
  5
1F8
330
1F
100
AcDbEntity
  8
0
  6
Continuous
 62
     7
370
    15
100
AcDbCircle
 10
38.0692881213
 20
3.8470941288
 30
0.0
 40
1.344496357580353
100
AcDbArc
 50
240.6511861203
 51
243.86509938
  0
ARC
  5
1F9
330
1F
100
AcDbEntity
  8
0
  6
Continuous
 62
     7
370
    15
100
AcDbCircle
 10
38.1382818208
 20
3.9877109238
 30
0.0
 40
1.50112717707546
100
AcDbArc
 50
243.86509938
 51
267.8010837219
  0
ARC
  5
1FA
330
1F
100
AcDbEntity
  8
0
  6
Continuous
 62
     7
370
    15
100
AcDbCircle
 10
38.0982724334
 20
2.945723343
 30
0.0
 40
0.4583717552553753
100
AcDbArc
 50
267.8010837219
 51
294.8281542752
  0
ARC
  5
1FB
330
1F
100
AcDbEntity
  8
0
  6
Continuous
 62
     7
370
    15
100
AcDbCircle
 10
38.1828277283
 20
2.7629648231
 30
0.0
 40
0.2570007680873223
100
AcDbArc
 50
294.8281542752
 51
333.5145370584
  0
ARC
  5
1FC
330
1F
100
AcDbEntity
  8
0
  6
Continuous
 62
     7
370
    15
100
AcDbCircle
 10
38.1416611052
 20
2.7834767047
 30
0.0
 40
0.3029945518221706
100
AcDbArc
 50
333.5145370584
 51
9.0371249797
  0
ARC
  5
1FD
330
1F
100
AcDbEntity
  8
0
  6
Continuous
 62
     7
370
    15
100
AcDbCircle
 10
38.2100137299
 20
2.7943481019
 30
0.0
 40
0.233782785684061
100
AcDbArc
 50
9.0371249796
 51
58.2835045137
  0
ARC
  5
1FE
330
1F
100
AcDbEntity
  8
0
  6
Continuous
 62
     7
370
    15
100
AcDbCircle
 10
37.9947167526
 20
2.4459769659
 30
0.0
 40
0.6433132934719321
100
AcDbArc
 50
58.2835045137
 51
71.2831716242
  0
ARC
  5
1FF
330
1F
100
AcDbEntity
  8
0
  6
Continuous
 62
     7
370
    15
100
AcDbCircle
 10
37.328884652
 20
0.4807616014
 30
0.0
 40
2.718259995188254
100
AcDbArc
 50
71.2831716242
 51
77.9456876847
  0
ARC
  5
200
330
1F
100
AcDbEntity
  8
0
  6
Continuous
 62
     7
370
    15
100
AcDbCircle
 10
38.1196483359
 20
4.1837486043
 30
0.0
 40
1.068218572983463
100
AcDbArc
 50
240.938993977
 51
257.9456876847
  0
ARC
  5
201
330
1F
100
AcDbEntity
  8
0
  6
Continuous
 62
     7
370
    15
100
AcDbCircle
 10
37.923347536
 20
3.8305001442
 30
0.0
 40
0.664091762901202
100
AcDbArc
 50
196.530054064
 51
240.938993977
  0
ARC
  5
202
330
1F
100
AcDbEntity
  8
0
  6
Continuous
 62
     7
370
    15
100
AcDbCircle
 10
38.235438068
 20
3.9231236677
 30
0.0
 40
0.9896368708144356
100
AcDbArc
 50
160.4626352857
 51
196.530054064
  0
ARC
  5
203
330
1F
100
AcDbEntity
  8
0
  6
Continuous
 62
     7
370
    15
100
AcDbCircle
 10
37.9220992834
 20
4.0343127681
 30
0.0
 40
0.657154976563869
100
AcDbArc
 50
122.9217391807
 51
160.4626352857
  0
ARC
  5
204
330
1F
100
AcDbEntity
  8
0
  6
Continuous
 62
     7
370
    15
100
AcDbCircle
 10
38.0095067837
 20
3.8993136842
 30
0.0
 40
0.8179804216139445
100
AcDbArc
 50
98.5543269867
 51
122.9217391807
  0
ARC
  5
205
330
1F
100
AcDbEntity
  8
0
  6
Continuous
 62
     7
370
    15
100
AcDbCircle
 10
38.1018918582
 20
3.2851349436
 30
0.0
 40
1.439068601598735
100
AcDbArc
 50
80.7446811116
 51
98.5543269867
  0
ARC
  5
206
330
1F
100
AcDbEntity
  8
0
  6
Continuous
 62
     7
370
    15
100
AcDbCircle
 10
38.0765015131
 20
2.6312119449
 30
0.0
 40
1.602397594200468
100
AcDbArc
 50
64.7898710438
 51
87.6618286821
  0
ARC
  5
207
330
1F
100
AcDbEntity
  8
0
  6
Continuous
 62
     7
370
    15
100
AcDbCircle
 10
38.0911000379
 20
2.4671449525
 30
0.0
 40
1.184798115438917
100
AcDbArc
 50
62.9281769251
 51
79.1102561713
  0
ARC
  5
208
330
1F
100
AcDbEntity
  8
0
  6
Continuous
 62
     7
370
    15
100
AcDbCircle
 10
37.5762422401
 20
0.0594127413
 30
0.0
 40
4.707338977111649
100
AcDbArc
 50
74.3058269115
 51
80.7446811116
  0
LINE
  5
209
330
1F
100
AcDbEntity
  8
0
  6
Continuous
 62
     7
370
    15
100
AcDbLine
 10
40.0659972247
 20
4.1833025052
 30
0.0
 11
40.0659972247
 21
3.4500387146
 31
0.0
  0
ARC
  5
20A
330
1F
100
AcDbEntity
  8
0
  6
Continuous
 62
     7
370
    15
100
AcDbCircle
 10
40.065997198
 20
-5.8122552682
 30
0.0
 40
9.262292310757223
100
AcDbArc
 50
88.4151767656
 51
90.0
  0
ARC
  5
20B
330
1F
100
AcDbEntity
  8
0
  6
Continuous
 62
     7
370
    15
100
AcDbCircle
 10
40.3419084717
 20
4.1601626412
 30
0.0
 40
0.7139417477733682
100
AcDbArc
 50
268.4151767656
 51
279.5070588215
  0
ARC
  5
20C
330
1F
100
AcDbEntity
  8
0
  6
Continuous
 62
     7
370
    15
100
AcDbCircle
 10
40.4093743972
 20
3.7573070668
 30
0.0
 40
0.3054760026500957
100
AcDbArc
 50
279.5070588215
 51
334.5730572649
  0
ARC
  5
20D
330
1F
100
AcDbEntity
  8
0
  6
Continuous
 62
     7
370
    15
100
AcDbCircle
 10
40.2672756412
 20
3.8248624215
 30
0.0
 40
0.4628157064942349
100
AcDbArc
 50
334.5730572649
 51
18.6899446305
  0
ARC
  5
20E
330
1F
100
AcDbEntity
  8
0
  6
Continuous
 62
     7
370
    15
100
AcDbCircle
 10
40.4225183384
 20
3.8773788108
 30
0.0
 40
0.2989307890757725
100
AcDbArc
 50
18.6899446305
 51
87.7525967378
  0
ARC
  5
20F
330
1F
100
AcDbEntity
  8
0
  6
Continuous
 62
     7
370
    15
100
AcDbCircle
 10
40.065997198
 20
-5.2071854618
 30
0.0
 40
9.390488155520744
100
AcDbArc
 50
87.7525967378
 51
90.0
  0
ARC
  5
210
330
1F
100
AcDbEntity
  8
0
  6
Continuous
 62
     7
370
    15
100
AcDbCircle
 10
40.4793121318
 20
3.6418790779
 30
0.0
 40
1.032674369817038
100
AcDbArc
 50
71.000449951
 51
90.0755475889
  0
ARC
  5
211
330
1F
100
AcDbEntity
  8
0
  6
Continuous
 62
     7
370
    15
100
AcDbCircle
 10
40.5830337594
 20
3.943116242
 30
0.0
 40
0.7140805765796275
100
AcDbArc
 50
42.1301218182
 51
71.000449951
  0
ARC
  5
212
330
1F
100
AcDbEntity
  8
0
  6
Continuous
 62
     7
370
    15
100
AcDbCircle
 10
40.5541439748
 20
3.9169847172
 30
0.0
 40
0.753035374060926
100
AcDbArc
 50
14.032207706
 51
42.1301218182
  0
ARC
  5
213
330
1F
100
AcDbEntity
  8
0
  6
Continuous
 62
     7
370
    15
100
AcDbCircle
 10
40.1438520198
 20
3.814442434
 30
0.0
 40
1.175947194830123
100
AcDbArc
 50
344.1562627268
 51
14.032207706
  0
ARC
  5
214
330
1F
100
AcDbEntity
  8
0
  6
Continuous
 62
     7
370
    15
100
AcDbCircle
 10
40.5935298106
 20
3.6868256131
 30
0.0
 40
0.7085114575609024
100
AcDbArc
 50
314.545767637
 51
344.1562627268
  0
ARC
  5
215
330
1F
100
AcDbEntity
  8
0
  6
Continuous
 62
     7
370
    15
100
AcDbCircle
 10
40.065997198
 20
15.0916052669
 30
0.0
 40
12.13217042260462
100
AcDbArc
 50
270.0
 51
272.5607429763
  0
LINE
  5
216
330
1F
100
AcDbEntity
  8
0
  6
Continuous
 62
     7
370
    15
100
AcDbLine
 10
40.0659972247
 20
2.0485658779
 30
0.0
 11
40.0659972247
 21
2.9594366087
 31
0.0
  0
LINE
  5
217
330
1F
100
AcDbEntity
  8
0
  6
Continuous
 62
     7
370
    15
100
AcDbLine
 10
39.4955745315
 20
2.0485658779
 30
0.0
 11
40.0659972247
 21
2.0485658779
 31
0.0
  0
LINE
  5
218
330
1F
100
AcDbEntity
  8
0
  6
Continuous
 62
     7
370
    15
100
AcDbLine
 10
39.4955745315
 20
4.6739046111
 30
0.0
 11
39.4955745315
 21
2.0485658779
 31
0.0
  0
ARC
  5
219
330
1F
100
AcDbEntity
  8
0
  6
Continuous
 62
     7
370
    15
100
AcDbCircle
 10
39.4955745353
 20
749.7143954551
 30
0.0
 40
745.0404905631412
100
AcDbArc
 50
270.0
 51
270.0755475889
  0
ARC
  5
21A
330
1F
100
AcDbEntity
  8
0
  6
Continuous
 62
     7
370
    15
100
AcDbCircle
 10
40.5752233859
 20
3.7054246246
 30
0.0
 40
0.7346083618150382
100
AcDbArc
 50
272.5607429763
 51
314.545767637
  0
LINE
  5
21B
330
1F
100
AcDbEntity
  8
0
  6
Continuous
 62
     7
370
    15
100
AcDbLine
 10
42.6395663553
 20
3.0139450564
 30
0.0
 11
42.3373165568
 21
4.0584531261
 31
0.0
  0
LINE
  5
21C
330
1F
100
AcDbEntity
  8
0
  6
Continuous
 62
     7
370
    15
100
AcDbLine
 10
42.3373165568
 20
4.0584531261
 30
0.0
 11
42.033585024
 21
3.0139450564
 31
0.0
  0
LINE
  5
21D
330
1F
100
AcDbEntity
  8
0
  6
Continuous
 62
     7
370
    15
100
AcDbLine
 10
42.033585024
 20
3.0139450564
 30
0.0
 11
42.6395663553
 21
3.0139450564
 31
0.0
  0
LINE
  5
21E
330
1F
100
AcDbEntity
  8
0
  6
Continuous
 62
     7
370
    15
100
AcDbLine
 10
41.7505961405
 20
2.0485658779
 30
0.0
 11
41.8913497151
 21
2.5268596246
 31
0.0
  0
LINE
  5
21F
330
1F
100
AcDbEntity
  8
0
  6
Continuous
 62
     7
370
    15
100
AcDbLine
 10
41.1772101679
 20
2.0485658779
 30
0.0
 11
41.7505961405
 21
2.0485658779
 31
0.0
  0
LINE
  5
220
330
1F
100
AcDbEntity
  8
0
  6
Continuous
 62
     7
370
    15
100
AcDbLine
 10
41.9965444626
 20
4.6739046111
 30
0.0
 11
41.1772101679
 21
2.0485658779
 31
0.0
  0
LINE
  5
221
330
1F
100
AcDbEntity
  8
0
  6
Continuous
 62
     7
370
    15
100
AcDbLine
 10
42.6766069168
 20
4.6739046111
 30
0.0
 11
41.9965444626
 21
4.6739046111
 31
0.0
  0
LINE
  5
222
330
1F
100
AcDbEntity
  8
0
  6
Continuous
 62
     7
370
    15
100
AcDbLine
 10
43.4959412114
 20
2.0485658779
 30
0.0
 11
42.6766069168
 21
4.6739046111
 31
0.0
  0
LINE
  5
223
330
1F
100
AcDbEntity
  8
0
  6
Continuous
 62
     7
370
    15
100
AcDbLine
 10
42.9225554717
 20
2.0485658779
 30
0.0
 11
43.4959412114
 21
2.0485658779
 31
0.0
  0
LINE
  5
224
330
1F
100
AcDbEntity
  8
0
  6
Continuous
 62
     7
370
    15
100
AcDbLine
 10
41.8913497151
 20
2.5268596246
 30
0.0
 11
42.7832833984
 21
2.5268596246
 31
0.0
  0
LINE
  5
225
330
1F
100
AcDbEntity
  8
0
  6
Continuous
 62
     7
370
    15
100
AcDbLine
 10
42.7832833984
 20
2.5268596246
 30
0.0
 11
42.9225554717
 21
2.0485658779
 31
0.0
  0
ARC
  5
226
330
1F
100
AcDbEntity
  8
0
  6
Continuous
 62
     7
370
    15
100
AcDbCircle
 10
45.0235933354
 20
2.9149486739
 30
0.0
 40
0.8835076313730705
100
AcDbArc
 50
294.0144141647
 51
297.8790031116
  0
ARC
  5
227
330
1F
100
AcDbEntity
  8
0
  6
Continuous
 62
     7
370
    15
100
AcDbCircle
 10
44.8448550063
 20
3.3161298821
 30
0.0
 40
1.322704343680106
100
AcDbArc
 50
260.617287102
 51
294.0144141648
  0
ARC
  5
228
330
1F
100
AcDbEntity
  8
0
  6
Continuous
 62
     7
370
    15
100
AcDbCircle
 10
44.8142714723
 20
3.1310431765
 30
0.0
 40
1.135107858807997
100
AcDbArc
 50
240.7372929213
 51
260.617287102
  0
ARC
  5
229
330
1F
100
AcDbEntity
  8
0
  6
Continuous
 62
     7
370
    15
100
AcDbCircle
 10
44.7871297539
 20
3.0826033536
 30
0.0
 40
1.07958228527894
100
AcDbArc
 50
197.7655973751
 51
240.7372929213
  0
ARC
  5
22A
330
1F
100
AcDbEntity
  8
0
  6
Continuous
 62
     7
370
    15
100
AcDbCircle
 10
45.6932803571
 20
3.3729364256
 30
0.0
 40
2.031108537330953
100
AcDbArc
 50
176.0777263755
 51
197.7655973751
  0
ARC
  5
22B
330
1F
100
AcDbEntity
  8
0
  6
Continuous
 62
     7
370
    15
100
AcDbCircle
 10
45.3064915162
 20
3.3994561096
 30
0.0
 40
1.643411618242649
100
AcDbArc
 50
153.2944977609
 51
176.0777263755
  0
ARC
  5
22C
330
1F
100
AcDbEntity
  8
0
  6
Continuous
 62
     7
370
    15
100
AcDbCircle
 10
44.7674392854
 20
3.6706360013
 30
0.0
 40
1.039991498286325
100
AcDbArc
 50
112.7489819089
 51
153.2944977609
  0
ARC
  5
22D
330
1F
100
AcDbEntity
  8
0
  6
Continuous
 62
     7
370
    15
100
AcDbCircle
 10
44.8343388251
 20
3.5110907578
 30
0.0
 40
1.212995062202918
100
AcDbArc
 50
80.8130374271
 51
112.7489819089
  0
ARC
  5
22E
330
1F
100
AcDbEntity
  8
0
  6
Continuous
 62
     7
370
    15
100
AcDbCircle
 10
44.7836347762
 20
3.1975825166
 30
0.0
 40
1.530577048291757
100
AcDbArc
 50
60.2325788073
 51
80.8130374271
  0
LINE
  5
22F
330
1F
100
AcDbEntity
  8
0
  6
Continuous
 62
     7
370
    15
100
AcDbLine
 10
45.5435363138
 20
3.982840909
 30
0.0
 11
45.5435363138
 21
4.5261968507
 31
0.0
  0
ARC
  5
230
330
1F
100
AcDbEntity
  8
0
  6
Continuous
 62
     7
370
    15
100
AcDbCircle
 10
47.271074319
 20
6.2610364991
 30
0.0
 40
2.859118645064377
100
AcDbArc
 50
231.8339147485
 51
232.8272334314
  0
ARC
  5
231
330
1F
100
AcDbEntity
  8
0
  6
Continuous
 62
     7
370
    15
100
AcDbCircle
 10
44.9153183861
 20
3.2637557105
 30
0.0
 40
0.9531350375552814
100
AcDbArc
 50
51.8339147484
 51
54.813870797
  0
ARC
  5
232
330
1F
100
AcDbEntity
  8
0
  6
Continuous
 62
     7
370
    15
100
AcDbCircle
 10
44.859728947
 20
3.1849121414
 30
0.0
 40
1.049605209808821
100
AcDbArc
 50
54.813870797
 51
86.5104373161
  0
ARC
  5
233
330
1F
100
AcDbEntity
  8
0
  6
Continuous
 62
     7
370
    15
100
AcDbCircle
 10
44.8888491838
 20
3.6624514023
 30
0.0
 40
0.5711789000279703
100
AcDbArc
 50
86.5104373161
 51
129.966121703
  0
ARC
  5
234
330
1F
100
AcDbEntity
  8
0
  6
Continuous
 62
     7
370
    15
100
AcDbCircle
 10
44.9339659413
 20
3.6086187332
 30
0.0
 40
0.6414176220128561
100
AcDbArc
 50
129.966121703
 51
162.3345052244
  0
ARC
  5
235
330
1F
100
AcDbEntity
  8
0
  6
Continuous
 62
     7
370
    15
100
AcDbCircle
 10
45.757287888
 20
3.3464094077
 30
0.0
 40
1.505485187857601
100
AcDbArc
 50
162.3345052244
 51
183.2991721929
  0
ARC
  5
236
330
1F
100
AcDbEntity
  8
0
  6
Continuous
 62
     7
370
    15
100
AcDbCircle
 10
44.8790398241
 20
3.0499035363
 30
0.0
 40
0.559600903202898
100
AcDbArc
 50
207.2327867025
 51
257.9257751494
  0
ARC
  5
237
330
1F
100
AcDbEntity
  8
0
  6
Continuous
 62
     7
370
    15
100
AcDbCircle
 10
44.9230669357
 20
3.2557233652
 30
0.0
 40
0.7700770028453812
100
AcDbArc
 50
257.9257751494
 51
295.240823526
  0
ARC
  5
238
330
1F
100
AcDbEntity
  8
0
  6
Continuous
 62
     7
370
    15
100
AcDbCircle
 10
44.5509025782
 20
4.0451523999
 30
0.0
 40
1.642833847553903
100
AcDbArc
 50
295.240823526
 51
307.1727665687
  0
LINE
  5
239
330
1F
100
AcDbEntity
  8
0
  6
Continuous
 62
     7
370
    15
100
AcDbLine
 10
45.5435363138
 20
2.1927606894
 30
0.0
 11
45.5435363138
 21
2.7361129059
 31
0.0
  0
ARC
  5
23A
330
1F
100
AcDbEntity
  8
0
  6
Continuous
 62
     7
370
    15
100
AcDbCircle
 10
43.7070088571
 20
5.4037491063
 30
0.0
 40
3.699093233118886
100
AcDbArc
 50
297.8790031116
 51
299.7674211928
  0
ARC
  5
23B
330
1F
100
AcDbEntity
  8
0
  6
Continuous
 62
     7
370
    15
100
AcDbCircle
 10
45.4170583997
 20
3.3267968308
 30
0.0
 40
1.164690883529682
100
AcDbArc
 50
183.2991721929
 51
207.2327867025
  0
LINE
  5
23C
330
1F
100
AcDbEntity
  8
0
  6
Continuous
 62
     7
370
    15
100
AcDbLine
 10
47.5555725889
 20
4.162202461
 30
0.0
 11
47.5555725889
 21
4.6739046111
 31
0.0
  0
LINE
  5
23D
330
1F
100
AcDbEntity
  8
0
  6
Continuous
 62
     7
370
    15
100
AcDbLine
 10
46.5865947799
 20
4.162202461
 30
0.0
 11
47.5555725889
 21
4.162202461
 31
0.0
  0
LINE
  5
23E
330
1F
100
AcDbEntity
  8
0
  6
Continuous
 62
     7
370
    15
100
AcDbLine
 10
46.5865947799
 20
3.6733586921
 30
0.0
 11
46.5865947799
 21
4.162202461
 31
0.0
  0
LINE
  5
23F
330
1F
100
AcDbEntity
  8
0
  6
Continuous
 62
     7
370
    15
100
AcDbLine
 10
47.4977896111
 20
3.6733586921
 30
0.0
 11
46.5865947799
 21
3.6733586921
 31
0.0
  0
LINE
  5
240
330
1F
100
AcDbEntity
  8
0
  6
Continuous
 62
     7
370
    15
100
AcDbLine
 10
47.4977896111
 20
3.1616528167
 30
0.0
 11
47.4977896111
 21
3.6733586921
 31
0.0
  0
LINE
  5
241
330
1F
100
AcDbEntity
  8
0
  6
Continuous
 62
     7
370
    15
100
AcDbLine
 10
46.5865947799
 20
3.1616528167
 30
0.0
 11
47.4977896111
 21
3.1616528167
 31
0.0
  0
LINE
  5
242
330
1F
100
AcDbEntity
  8
0
  6
Continuous
 62
     7
370
    15
100
AcDbLine
 10
46.5865947799
 20
2.5602717533
 30
0.0
 11
46.5865947799
 21
3.1616528167
 31
0.0
  0
LINE
  5
243
330
1F
100
AcDbEntity
  8
0
  6
Continuous
 62
     7
370
    15
100
AcDbLine
 10
47.5881679477
 20
2.5602717533
 30
0.0
 11
46.5865947799
 21
2.5602717533
 31
0.0
  0
LINE
  5
244
330
1F
100
AcDbEntity
  8
0
  6
Continuous
 62
     7
370
    15
100
AcDbLine
 10
47.5881679477
 20
2.0485658779
 30
0.0
 11
47.5881679477
 21
2.5602717533
 31
0.0
  0
LINE
  5
245
330
1F
100
AcDbEntity
  8
0
  6
Continuous
 62
     7
370
    15
100
AcDbLine
 10
46.0161722758
 20
2.0485658779
 30
0.0
 11
47.5881679477
 21
2.0485658779
 31
0.0
  0
LINE
  5
246
330
1F
100
AcDbEntity
  8
0
  6
Continuous
 62
     7
370
    15
100
AcDbLine
 10
46.0161722758
 20
4.6739046111
 30
0.0
 11
46.0161722758
 21
2.0485658779
 31
0.0
  0
LINE
  5
247
330
1F
100
AcDbEntity
  8
0
  6
Continuous
 62
     7
370
    15
100
AcDbLine
 10
47.5555725889
 20
4.6739046111
 30
0.0
 11
46.0161722758
 21
4.6739046111
 31
0.0
  0
LINE
  5
248
330
1F
100
AcDbEntity
  8
0
  6
Continuous
 62
     7
370
    15
100
AcDbLine
 10
49.9617189662
 20
2.8293122186
 30
0.0
 11
49.9617189662
 21
3.3410143687
 31
0.0
  0
LINE
  5
249
330
1F
100
AcDbEntity
  8
0
  6
Continuous
 62
     7
370
    15
100
AcDbLine
 10
49.0312634529
 20
2.8293122186
 30
0.0
 11
49.9617189662
 21
2.8293122186
 31
0.0
  0
LINE
  5
24A
330
1F
100
AcDbEntity
  8
0
  6
Continuous
 62
     7
370
    15
100
AcDbLine
 10
49.9617189662
 20
3.3410143687
 30
0.0
 11
49.0312634529
 21
3.3410143687
 31
0.0
  0
LINE
  5
24B
330
1F
100
AcDbEntity
  8
0
  6
Continuous
 62
     7
370
    15
100
AcDbLine
 10
49.0312634529
 20
3.3410143687
 30
0.0
 11
49.0312634529
 21
2.8293122186
 31
0.0
  0
LINE
  5
24C
330
1F
100
AcDbEntity
  8
0
  6
Continuous
 62
     7
370
    15
100
AcDbLine
 10
53.2360936077
 20
4.162202461
 30
0.0
 11
53.2360936077
 21
4.6739046111
 31
0.0
  0
LINE
  5
24D
330
1F
100
AcDbEntity
  8
0
  6
Continuous
 62
     7
370
    15
100
AcDbLine
 10
52.5026929127
 20
4.162202461
 30
0.0
 11
53.2360936077
 21
4.162202461
 31
0.0
  0
LINE
  5
24E
330
1F
100
AcDbEntity
  8
0
  6
Continuous
 62
     7
370
    15
100
AcDbLine
 10
52.5026929127
 20
2.0485658779
 30
0.0
 11
52.5026929127
 21
4.162202461
 31
0.0
  0
LINE
  5
24F
330
1F
100
AcDbEntity
  8
0
  6
Continuous
 62
     7
370
    15
100
AcDbLine
 10
51.9322699429
 20
2.0485658779
 30
0.0
 11
52.5026929127
 21
2.0485658779
 31
0.0
  0
LINE
  5
250
330
1F
100
AcDbEntity
  8
0
  6
Continuous
 62
     7
370
    15
100
AcDbLine
 10
51.9322699429
 20
4.162202461
 30
0.0
 11
51.9322699429
 21
2.0485658779
 31
0.0
  0
LINE
  5
251
330
1F
100
AcDbEntity
  8
0
  6
Continuous
 62
     7
370
    15
100
AcDbLine
 10
51.197388445
 20
4.162202461
 30
0.0
 11
51.9322699429
 21
4.162202461
 31
0.0
  0
LINE
  5
252
330
1F
100
AcDbEntity
  8
0
  6
Continuous
 62
     7
370
    15
100
AcDbLine
 10
51.197388445
 20
4.6739046111
 30
0.0
 11
51.197388445
 21
4.162202461
 31
0.0
  0
LINE
  5
253
330
1F
100
AcDbEntity
  8
0
  6
Continuous
 62
     7
370
    15
100
AcDbLine
 10
53.2360936077
 20
4.6739046111
 30
0.0
 11
51.197388445
 21
4.6739046111
 31
0.0
  0
LINE
  5
254
330
1F
100
AcDbEntity
  8
0
  6
Continuous
 62
     7
370
    15
100
AcDbLine
 10
54.9369894461
 20
2.0485658779
 30
0.0
 11
55.531119232
 21
2.0485658779
 31
0.0
  0
LINE
  5
255
330
1F
100
AcDbEntity
  8
0
  6
Continuous
 62
     7
370
    15
100
AcDbLine
 10
54.4199061142
 20
2.9453661873
 30
0.0
 11
54.9369894461
 21
2.0485658779
 31
0.0
  0
LINE
  5
256
330
1F
100
AcDbEntity
  8
0
  6
Continuous
 62
     7
370
    15
100
AcDbLine
 10
53.9072661222
 20
2.0485658779
 30
0.0
 11
54.4199061142
 21
2.9453661873
 31
0.0
  0
LINE
  5
257
330
1F
100
AcDbEntity
  8
0
  6
Continuous
 62
     7
370
    15
100
AcDbLine
 10
53.3101747306
 20
2.0485658779
 30
0.0
 11
53.9072661222
 21
2.0485658779
 31
0.0
  0
LINE
  5
258
330
1F
100
AcDbEntity
  8
0
  6
Continuous
 62
     7
370
    15
100
AcDbLine
 10
54.0776525186
 20
3.3884931936
 30
0.0
 11
53.3101747306
 21
2.0485658779
 31
0.0
  0
LINE
  5
259
330
1F
100
AcDbEntity
  8
0
  6
Continuous
 62
     7
370
    15
100
AcDbLine
 10
53.3398066209
 20
4.6739046111
 30
0.0
 11
54.0776525186
 21
3.3884931936
 31
0.0
  0
LINE
  5
25A
330
1F
100
AcDbEntity
  8
0
  6
Continuous
 62
     7
370
    15
100
AcDbLine
 10
53.9354172097
 20
4.6739046111
 30
0.0
 11
53.3398066209
 21
4.6739046111
 31
0.0
  0
LINE
  5
25B
330
1F
100
AcDbEntity
  8
0
  6
Continuous
 62
     7
370
    15
100
AcDbLine
 10
54.4199061142
 20
3.8280998005
 30
0.0
 11
53.9354172097
 21
4.6739046111
 31
0.0
  0
LINE
  5
25C
330
1F
100
AcDbEntity
  8
0
  6
Continuous
 62
     7
370
    15
100
AcDbLine
 10
54.9029123531
 20
4.6739046111
 30
0.0
 11
54.4199061142
 21
3.8280998005
 31
0.0
  0
LINE
  5
25D
330
1F
100
AcDbEntity
  8
0
  6
Continuous
 62
     7
370
    15
100
AcDbLine
 10
55.5014864103
 20
4.6739046111
 30
0.0
 11
54.9029123531
 21
4.6739046111
 31
0.0
  0
LINE
  5
25E
330
1F
100
AcDbEntity
  8
0
  6
Continuous
 62
     7
370
    15
100
AcDbLine
 10
55.531119232
 20
2.0485658779
 30
0.0
 11
54.7636405127
 21
3.3884931936
 31
0.0
  0
LINE
  5
25F
330
1F
100
AcDbEntity
  8
0
  6
Continuous
 62
     7
370
    15
100
AcDbLine
 10
54.7636405127
 20
3.3884931936
 30
0.0
 11
55.5014864103
 21
4.6739046111
 31
0.0
  0
ARC
  5
260
330
1F
100
AcDbEntity
  8
0
  6
Continuous
 62
     7
370
    15
100
AcDbCircle
 10
56.7676556903
 20
3.9349166186
 30
0.0
 40
0.241317537827914
100
AcDbArc
 50
15.5741225284
 51
45.127014142
  0
ARC
  5
261
330
1F
100
AcDbEntity
  8
0
  6
Continuous
 62
     7
370
    15
100
AcDbCircle
 10
56.4408316614
 20
-1.6093003669
 30
0.0
 40
5.792603060626418
100
AcDbArc
 50
86.5567790271
 51
90.0
  0
LINE
  5
262
330
1F
100
AcDbEntity
  8
0
  6
Continuous
 62
     7
370
    15
100
AcDbLine
 10
56.4408313976
 20
4.1833025052
 30
0.0
 11
56.4408313976
 21
3.5098221733
 31
0.0
  0
ARC
  5
263
330
1F
100
AcDbEntity
  8
0
  6
Continuous
 62
     7
370
    15
100
AcDbCircle
 10
56.4408316614
 20
13.2151728749
 30
0.0
 40
9.70534918452859
100
AcDbArc
 50
270.0
 51
271.9039083027
  0
ARC
  5
264
330
1F
100
AcDbEntity
  8
0
  6
Continuous
 62
     7
370
    15
100
AcDbCircle
 10
56.754889768
 20
3.767459209
 30
0.0
 40
0.2524170464587567
100
AcDbArc
 50
271.9039083027
 51
342.9810349287
  0
ARC
  5
265
330
1F
100
AcDbEntity
  8
0
  6
Continuous
 62
     7
370
    15
100
AcDbCircle
 10
56.4408316614
 20
0.2466899203
 30
0.0
 40
2.795391172441581
100
AcDbArc
 50
85.448414028
 51
90.0
  0
LINE
  5
266
330
1F
100
AcDbEntity
  8
0
  6
Continuous
 62
     7
370
    15
100
AcDbLine
 10
56.4408313976
 20
2.0485658779
 30
0.0
 11
56.4408313976
 21
3.042082174
 31
0.0
  0
LINE
  5
267
330
1F
100
AcDbEntity
  8
0
  6
Continuous
 62
     7
370
    15
100
AcDbLine
 10
55.8704093592
 20
2.0485658779
 30
0.0
 11
56.4408313976
 21
2.0485658779
 31
0.0
  0
ARC
  5
268
330
1F
100
AcDbEntity
  8
0
  6
Continuous
 62
     7
370
    15
100
AcDbCircle
 10
55.8704089987
 20
-187.7483654502
 30
0.0
 40
192.4222703421937
100
AcDbArc
 50
89.7110770541
 51
90.0
  0
ARC
  5
269
330
1F
100
AcDbEntity
  8
0
  6
Continuous
 62
     7
370
    15
100
AcDbCircle
 10
56.8355407691
 20
3.6435236216
 30
0.0
 40
1.027947851087106
100
AcDbArc
 50
69.4252135516
 51
89.7110770541
  0
ARC
  5
26A
330
1F
100
AcDbEntity
  8
0
  6
Continuous
 62
     7
370
    15
100
AcDbCircle
 10
56.9918664976
 20
4.0599778426
 30
0.0
 40
0.5831199613179983
100
AcDbArc
 50
41.8508157403
 51
69.4252135516
  0
ARC
  5
26B
330
1F
100
AcDbEntity
  8
0
  6
Continuous
 62
     7
370
    15
100
AcDbCircle
 10
56.9896102197
 20
4.0579568936
 30
0.0
 40
0.5861489916256515
100
AcDbArc
 50
14.3491619941
 51
41.8508157403
  0
ARC
  5
26C
330
1F
100
AcDbEntity
  8
0
  6
Continuous
 62
     7
370
    15
100
AcDbCircle
 10
56.5467041267
 20
3.9446567355
 30
0.0
 40
1.043317158755966
100
AcDbArc
 50
354.4055559002
 51
14.3491619941
  0
ARC
  5
26D
330
1F
100
AcDbEntity
  8
0
  6
Continuous
 62
     7
370
    15
100
AcDbCircle
 10
56.7899832209
 20
3.9208268288
 30
0.0
 40
0.7988737458441442
100
AcDbArc
 50
337.2180616714
 51
354.4055559001
  0
ARC
  5
26E
330
1F
100
AcDbEntity
  8
0
  6
Continuous
 62
     7
370
    15
100
AcDbCircle
 10
57.023975055
 20
3.822552504
 30
0.0
 40
0.5450824509732609
100
AcDbArc
 50
305.1385274195
 51
337.2180616714
  0
ARC
  5
26F
330
1F
100
AcDbEntity
  8
0
  6
Continuous
 62
     7
370
    15
100
AcDbCircle
 10
56.7195160343
 20
4.2551352615
 30
0.0
 40
1.074065567385386
100
AcDbArc
 50
294.2641981995
 51
305.1385274195
  0
ARC
  5
270
330
1F
100
AcDbEntity
  8
0
  6
Continuous
 62
     7
370
    15
100
AcDbCircle
 10
56.9751206392
 20
2.7675335688
 30
0.0
 40
0.5412973353432269
100
AcDbArc
 50
55.6442039272
 51
69.9276174471
  0
ARC
  5
271
330
1F
100
AcDbEntity
  8
0
  6
Continuous
 62
     7
370
    15
100
AcDbCircle
 10
57.031413081
 20
2.8498828237
 30
0.0
 40
0.4415464516984091
100
AcDbArc
 50
39.8201507447
 51
55.6442039272
  0
ARC
  5
272
330
1F
100
AcDbEntity
  8
0
  6
Continuous
 62
     7
370
    15
100
AcDbCircle
 10
56.7322415847
 20
2.6004442214
 30
0.0
 40
0.8310630759153145
100
AcDbArc
 50
23.2583832262
 51
39.8201507447
  0
ARC
  5
273
330
1F
100
AcDbEntity
  8
0
  6
Continuous
 62
     7
370
    15
100
AcDbCircle
 10
-13.9505468221
 20
-27.7795299327
 30
0.0
 40
77.7660967507943
100
AcDbArc
 50
22.5544788949
 51
23.2583832262
  0
LINE
  5
274
330
1F
100
AcDbEntity
  8
0
  6
Continuous
 62
     7
370
    15
100
AcDbLine
 10
57.2601661579
 20
2.0485658779
 30
0.0
 11
57.8676287578
 21
2.0485658779
 31
0.0
  0
LINE
  5
275
330
1F
100
AcDbEntity
  8
0
  6
Continuous
 62
     7
370
    15
100
AcDbLine
 10
56.9659520434
 20
2.7604390516
 30
0.0
 11
57.2601661579
 21
2.0485658779
 31
0.0
  0
ARC
  5
276
330
1F
100
AcDbEntity
  8
0
  6
Continuous
 62
     7
370
    15
100
AcDbCircle
 10
56.3544261566
 20
2.5077223676
 30
0.0
 40
0.6616869019612335
100
AcDbArc
 50
22.4529849732
 51
39.2230979437
  0
ARC
  5
277
330
1F
100
AcDbEntity
  8
0
  6
Continuous
 62
     7
370
    15
100
AcDbCircle
 10
56.6393409771
 20
2.7402845481
 30
0.0
 40
0.2939075894411872
100
AcDbArc
 50
39.2230979437
 51
85.448414028
  0
ARC
  5
278
330
1F
100
AcDbEntity
  8
0
  6
Continuous
 62
     7
370
    15
100
AcDbCircle
 10
56.474629398
 20
3.8532448512
 30
0.0
 40
0.5455126817447492
100
AcDbArc
 50
342.9810349287
 51
15.5741225284
  0
ARC
  5
279
330
1F
100
AcDbEntity
  8
0
  6
Continuous
 62
     7
370
    15
100
AcDbCircle
 10
56.7748509103
 20
3.9421438106
 30
0.0
 40
0.2311193274666516
100
AcDbArc
 50
45.127014142
 51
86.5567790271
  0
LINE
  5
27A
330
1F
100
AcDbEntity
  8
0
  6
Continuous
 62
     7
370
    15
100
AcDbLine
 10
55.8704093592
 20
4.6739046111
 30
0.0
 11
55.8704093592
 21
2.0485658779
 31
0.0
  0
LINE
  5
27B
330
1F
100
AcDbEntity
  8
0
  6
Continuous
 62
     7
370
    15
100
AcDbLine
 10
57.9861581819
 20
2.0485658779
 30
0.0
 11
58.5832495736
 21
2.0485658779
 31
0.0
  0
LINE
  5
27C
330
1F
100
AcDbEntity
  8
0
  6
Continuous
 62
     7
370
    15
100
AcDbLine
 10
58.7536369012
 20
3.3884931936
 30
0.0
 11
57.9861581819
 21
2.0485658779
 31
0.0
  0
LINE
  5
27D
330
1F
100
AcDbEntity
  8
0
  6
Continuous
 62
     7
370
    15
100
AcDbLine
 10
58.0157910036
 20
4.6739046111
 30
0.0
 11
58.7536369012
 21
3.3884931936
 31
0.0
  0
LINE
  5
27E
330
1F
100
AcDbEntity
  8
0
  6
Continuous
 62
     7
370
    15
100
AcDbLine
 10
58.6114015923
 20
4.6739046111
 30
0.0
 11
58.0157910036
 21
4.6739046111
 31
0.0
  0
LINE
  5
27F
330
1F
100
AcDbEntity
  8
0
  6
Continuous
 62
     7
370
    15
100
AcDbLine
 10
59.0958904968
 20
3.8280998005
 30
0.0
 11
58.6114015923
 21
4.6739046111
 31
0.0
  0
LINE
  5
280
330
1F
100
AcDbEntity
  8
0
  6
Continuous
 62
     7
370
    15
100
AcDbLine
 10
59.5788967358
 20
4.6739046111
 30
0.0
 11
59.0958904968
 21
3.8280998005
 31
0.0
  0
LINE
  5
281
330
1F
100
AcDbEntity
  8
0
  6
Continuous
 62
     7
370
    15
100
AcDbLine
 10
60.177470793
 20
4.6739046111
 30
0.0
 11
59.5788967358
 21
4.6739046111
 31
0.0
  0
LINE
  5
282
330
1F
100
AcDbEntity
  8
0
  6
Continuous
 62
     7
370
    15
100
AcDbLine
 10
59.4396248953
 20
3.3884931936
 30
0.0
 11
60.177470793
 21
4.6739046111
 31
0.0
  0
LINE
  5
283
330
1F
100
AcDbEntity
  8
0
  6
Continuous
 62
     7
370
    15
100
AcDbLine
 10
59.6129738288
 20
2.0485658779
 30
0.0
 11
60.2071036147
 21
2.0485658779
 31
0.0
  0
LINE
  5
284
330
1F
100
AcDbEntity
  8
0
  6
Continuous
 62
     7
370
    15
100
AcDbLine
 10
58.5832495736
 20
2.0485658779
 30
0.0
 11
59.0958904968
 21
2.9453661873
 31
0.0
  0
LINE
  5
285
330
1F
100
AcDbEntity
  8
0
  6
Continuous
 62
     7
370
    15
100
AcDbLine
 10
60.2071036147
 20
2.0485658779
 30
0.0
 11
59.4396248953
 21
3.3884931936
 31
0.0
  0
LINE
  5
286
330
1F
100
AcDbEntity
  8
0
  6
Continuous
 62
     7
370
    15
100
AcDbLine
 10
59.0958904968
 20
2.9453661873
 30
0.0
 11
59.6129738288
 21
2.0485658779
 31
0.0
  0
LINE
  5
287
330
1F
100
AcDbEntity
  8
0
  6
Continuous
 62
     7
370
    15
100
AcDbLine
 10
61.1168157802
 20
2.5602717533
 30
0.0
 11
61.1168157802
 21
4.6739046111
 31
0.0
  0
LINE
  5
288
330
1F
100
AcDbEntity
  8
0
  6
Continuous
 62
     7
370
    15
100
AcDbLine
 10
62.1183898793
 20
2.0485658779
 30
0.0
 11
62.1183898793
 21
2.5602717533
 31
0.0
  0
LINE
  5
289
330
1F
100
AcDbEntity
  8
0
  6
Continuous
 62
     7
370
    15
100
AcDbLine
 10
60.5463937418
 20
2.0485658779
 30
0.0
 11
62.1183898793
 21
2.0485658779
 31
0.0
  0
LINE
  5
28A
330
1F
100
AcDbEntity
  8
0
  6
Continuous
 62
     7
370
    15
100
AcDbLine
 10
60.5463937418
 20
4.6739046111
 30
0.0
 11
60.5463937418
 21
2.0485658779
 31
0.0
  0
LINE
  5
28B
330
1F
100
AcDbEntity
  8
0
  6
Continuous
 62
     7
370
    15
100
AcDbLine
 10
61.1168157802
 20
4.6739046111
 30
0.0
 11
60.5463937418
 21
4.6739046111
 31
0.0
  0
LINE
  5
28C
330
1F
100
AcDbEntity
  8
0
  6
Continuous
 62
     7
370
    15
100
AcDbLine
 10
62.1183898793
 20
2.5602717533
 30
0.0
 11
61.1168157802
 21
2.5602717533
 31
0.0
  0
LINE
  5
28D
330
1F
100
AcDbEntity
  8
0
  6
Continuous
 62
     7
370
    15
100
AcDbLine
 10
63.6785321431
 20
3.0139450564
 30
0.0
 11
63.3762825774
 21
4.0584531261
 31
0.0
  0
LINE
  5
28E
330
1F
100
AcDbEntity
  8
0
  6
Continuous
 62
     7
370
    15
100
AcDbLine
 10
63.3762825774
 20
4.0584531261
 30
0.0
 11
63.0725503461
 21
3.0139450564
 31
0.0
  0
LINE
  5
28F
330
1F
100
AcDbEntity
  8
0
  6
Continuous
 62
     7
370
    15
100
AcDbLine
 10
63.0725503461
 20
3.0139450564
 30
0.0
 11
63.6785321431
 21
3.0139450564
 31
0.0
  0
LINE
  5
290
330
1F
100
AcDbEntity
  8
0
  6
Continuous
 62
     7
370
    15
100
AcDbLine
 10
62.7895623939
 20
2.0485658779
 30
0.0
 11
62.9303150372
 21
2.5268596246
 31
0.0
  0
LINE
  5
291
330
1F
100
AcDbEntity
  8
0
  6
Continuous
 62
     7
370
    15
100
AcDbLine
 10
62.2161750244
 20
2.0485658779
 30
0.0
 11
62.7895623939
 21
2.0485658779
 31
0.0
  0
LINE
  5
292
330
1F
100
AcDbEntity
  8
0
  6
Continuous
 62
     7
370
    15
100
AcDbLine
 10
63.0355097847
 20
4.6739046111
 30
0.0
 11
62.2161750244
 21
2.0485658779
 31
0.0
  0
LINE
  5
293
330
1F
100
AcDbEntity
  8
0
  6
Continuous
 62
     7
370
    15
100
AcDbLine
 10
63.7155727045
 20
4.6739046111
 30
0.0
 11
63.0355097847
 21
4.6739046111
 31
0.0
  0
LINE
  5
294
330
1F
100
AcDbEntity
  8
0
  6
Continuous
 62
     7
370
    15
100
AcDbLine
 10
64.5349074648
 20
2.0485658779
 30
0.0
 11
63.7155727045
 21
4.6739046111
 31
0.0
  0
LINE
  5
295
330
1F
100
AcDbEntity
  8
0
  6
Continuous
 62
     7
370
    15
100
AcDbLine
 10
63.961521958
 20
2.0485658779
 30
0.0
 11
64.5349074648
 21
2.0485658779
 31
0.0
  0
LINE
  5
296
330
1F
100
AcDbEntity
  8
0
  6
Continuous
 62
     7
370
    15
100
AcDbLine
 10
63.8222482549
 20
2.5268596246
 30
0.0
 11
63.961521958
 21
2.0485658779
 31
0.0
  0
LINE
  5
297
330
1F
100
AcDbEntity
  8
0
  6
Continuous
 62
     7
370
    15
100
AcDbLine
 10
62.9303150372
 20
2.5268596246
 30
0.0
 11
63.8222482549
 21
2.5268596246
 31
0.0
  0
ARC
  5
298
330
1F
100
AcDbEntity
  8
0
  6
Continuous
 62
     7
370
    15
100
AcDbCircle
 10
65.5902382984
 20
2.8617046392
 30
0.0
 40
0.4928964610348932
100
AcDbArc
 50
341.2886514974
 51
14.2030811835
  0
ARC
  5
299
330
1F
100
AcDbEntity
  8
0
  6
Continuous
 62
     7
370
    15
100
AcDbCircle
 10
65.8051057165
 20
2.9160867495
 30
0.0
 40
0.2712539079980337
100
AcDbArc
 50
14.2030811835
 51
59.1043624537
  0
ARC
  5
29A
330
1F
100
AcDbEntity
  8
0
  6
Continuous
 62
     7
370
    15
100
AcDbCircle
 10
65.7847288757
 20
2.8820336457
 30
0.0
 40
0.3109380297202712
100
AcDbArc
 50
59.1043624537
 51
88.8568118633
  0
ARC
  5
29B
330
1F
100
AcDbEntity
  8
0
  6
Continuous
 62
     7
370
    15
100
AcDbCircle
 10
65.3986898921
 20
-16.4633991854
 30
0.0
 40
19.66022219012998
100
AcDbArc
 50
88.8568118633
 51
90.0
  0
LINE
  5
29C
330
1F
100
AcDbEntity
  8
0
  6
Continuous
 62
     7
370
    15
100
AcDbLine
 10
65.3986905263
 20
3.1968232824
 30
0.0
 11
65.3986905263
 21
2.5092762544
 31
0.0
  0
ARC
  5
29D
330
1F
100
AcDbEntity
  8
0
  6
Continuous
 62
     7
370
    15
100
AcDbCircle
 10
65.6219254068
 20
5.854308754
 30
0.0
 40
3.346893665024344
100
AcDbArc
 50
269.044491969
 51
271.911016062
  0
ARC
  5
29E
330
1F
100
AcDbEntity
  8
0
  6
Continuous
 62
     7
370
    15
100
AcDbCircle
 10
66.1796895636
 20
3.1069638425
 30
0.0
 40
0.352460879930129
100
AcDbArc
 50
60.9882858806
 51
68.6999010987
  0
ARC
  5
29F
330
1F
100
AcDbEntity
  8
0
  6
Continuous
 62
     7
370
    15
100
AcDbCircle
 10
65.949617919
 20
2.8659886876
 30
0.0
 40
0.6939734871423818
100
AcDbArc
 50
13.6510564091
 51
35.3456737916
  0
ARC
  5
2A0
330
1F
100
AcDbEntity
  8
0
  6
Continuous
 62
     7
370
    15
100
AcDbCircle
 10
65.6875541131
 20
2.8023415337
 30
0.0
 40
0.9636555194752466
100
AcDbArc
 50
340.3243147814
 51
13.6510564091
  0
ARC
  5
2A1
330
1F
100
AcDbEntity
  8
0
  6
Continuous
 62
     7
370
    15
100
AcDbCircle
 10
66.0420058632
 20
2.6755991112
 30
0.0
 40
0.587225333665865
100
AcDbArc
 50
297.2219422301
 51
340.3243147814
  0
ARC
  5
2A2
330
1F
100
AcDbEntity
  8
0
  6
Continuous
 62
     7
370
    15
100
AcDbCircle
 10
64.8282672294
 20
110.7623160068
 30
0.0
 40
108.7137483262872
100
AcDbArc
 50
270.0
 51
270.5693371168
  0
LINE
  5
2A3
330
1F
100
AcDbEntity
  8
0
  6
Continuous
 62
     7
370
    15
100
AcDbLine
 10
64.8282666253
 20
4.6739046111
 30
0.0
 11
64.8282666253
 21
2.0485658779
 31
0.0
  0
ARC
  5
2A4
330
1F
100
AcDbEntity
  8
0
  6
Continuous
 62
     7
370
    15
100
AcDbCircle
 10
64.8282672294
 20
-158.3581353466
 30
0.0
 40
163.0320402385511
100
AcDbArc
 50
89.6588018075
 51
90.0
  0
ARC
  5
2A5
330
1F
100
AcDbEntity
  8
0
  6
Continuous
 62
     7
370
    15
100
AcDbCircle
 10
65.7923677589
 20
3.5367386914
 30
0.0
 40
1.134295567460354
100
AcDbArc
 50
71.01572147
 51
89.6588018075
  0
ARC
  5
2A6
330
1F
100
AcDbEntity
  8
0
  6
Continuous
 62
     7
370
    15
100
AcDbCircle
 10
65.9656068578
 20
4.0403103938
 30
0.0
 40
0.6017580148749142
100
AcDbArc
 50
48.0376866382
 51
71.01572147
  0
ARC
  5
2A7
330
1F
100
AcDbEntity
  8
0
  6
Continuous
 62
     7
370
    15
100
AcDbCircle
 10
66.0037146306
 20
4.0826893871
 30
0.0
 40
0.5447651958807542
100
AcDbArc
 50
15.0755301182
 51
48.0376866382
  0
ARC
  5
2A8
330
1F
100
AcDbEntity
  8
0
  6
Continuous
 62
     7
370
    15
100
AcDbCircle
 10
65.8676044287
 20
3.9721137782
 30
0.0
 40
0.6945304479677332
100
AcDbArc
 50
339.0663709321
 51
358.4616691454
  0
ARC
  5
2A9
330
1F
100
AcDbEntity
  8
0
  6
Continuous
 62
     7
370
    15
100
AcDbCircle
 10
66.0999932001
 20
3.8832168133
 30
0.0
 40
0.4457188496934227
100
AcDbArc
 50
316.9803883574
 51
339.0663709321
  0
ARC
  5
2AA
330
1F
100
AcDbEntity
  8
0
  6
Continuous
 62
     7
370
    15
100
AcDbCircle
 10
65.9566128809
 20
4.0170129075
 30
0.0
 40
0.641829305117148
100
AcDbArc
 50
298.6104787253
 51
316.9803883574
  0
ARC
  5
2AB
330
1F
100
AcDbEntity
  8
0
  6
Continuous
 62
     7
370
    15
100
AcDbCircle
 10
66.6915615625
 20
4.4198409331
 30
0.0
 40
1.056673321756959
100
AcDbArc
 50
246.1293626927
 51
248.6999010987
  0
ARC
  5
2AC
330
1F
100
AcDbEntity
  8
0
  6
Continuous
 62
     7
370
    15
100
AcDbCircle
 10
65.701236846
 20
4.0336760399
 30
0.0
 40
0.3763700399258204
100
AcDbArc
 50
271.9851342143
 51
295.5626465048
  0
ARC
  5
2AD
330
1F
100
AcDbEntity
  8
0
  6
Continuous
 62
     7
370
    15
100
AcDbCircle
 10
65.7737246012
 20
3.8821289548
 30
0.0
 40
0.2083789876335939
100
AcDbArc
 50
295.5626465048
 51
341.1813754909
  0
ARC
  5
2AE
330
1F
100
AcDbEntity
  8
0
  6
Continuous
 62
     7
370
    15
100
AcDbCircle
 10
65.7397509539
 20
3.9665190276
 30
0.0
 40
0.2506443879537631
100
AcDbArc
 50
9.0725306819
 51
44.4300354791
  0
ARC
  5
2AF
330
1F
100
AcDbEntity
  8
0
  6
Continuous
 62
     7
370
    15
100
AcDbCircle
 10
65.3986898921
 20
-5.8605112822
 30
0.0
 40
10.07370729978928
100
AcDbArc
 50
87.8681339954
 51
90.0
  0
LINE
  5
2B0
330
1F
100
AcDbEntity
  8
0
  6
Continuous
 62
     7
370
    15
100
AcDbLine
 10
65.3986905263
 20
4.2131942346
 30
0.0
 11
65.3986905263
 21
3.6575336589
 31
0.0
  0
ARC
  5
2B1
330
1F
100
AcDbEntity
  8
0
  6
Continuous
 62
     7
370
    15
100
AcDbCircle
 10
65.3986898921
 20
-5.4514560365
 30
0.0
 40
9.10898791560022
100
AcDbArc
 50
89.0074328929
 51
90.0
  0
ARC
  5
2B2
330
1F
100
AcDbEntity
  8
0
  6
Continuous
 62
     7
370
    15
100
AcDbCircle
 10
65.6090848115
 20
6.6923425067
 30
0.0
 40
3.036633068089326
100
AcDbArc
 50
269.0074328929
 51
271.9851342143
  0
ARC
  5
2B3
330
1F
100
AcDbEntity
  8
0
  6
Continuous
 62
     7
370
    15
100
AcDbCircle
 10
65.7152886765
 20
3.0561441314
 30
0.0
 40
0.5471719010649966
100
AcDbArc
 50
271.911016062
 51
288.8963602434
  0
ARC
  5
2B4
330
1F
100
AcDbEntity
  8
0
  6
Continuous
 62
     7
370
    15
100
AcDbCircle
 10
65.3986898921
 20
-7.5304736426
 30
0.0
 40
10.03975019748005
100
AcDbArc
 50
89.044491969
 51
90.0
  0
ARC
  5
2B5
330
1F
100
AcDbEntity
  8
0
  6
Continuous
 62
     7
370
    15
100
AcDbCircle
 10
66.108570713
 20
2.9787238795
 30
0.0
 40
0.4991011848341408
100
AcDbArc
 50
35.3456737916
 51
60.9882858806
  0
ARC
  5
2B6
330
1F
100
AcDbEntity
  8
0
  6
Continuous
 62
     7
370
    15
100
AcDbCircle
 10
65.8069747327
 20
2.7882955533
 30
0.0
 40
0.2640655718340425
100
AcDbArc
 50
288.8963602434
 51
341.2886514974
  0
ARC
  5
2B7
330
1F
100
AcDbEntity
  8
0
  6
Continuous
 62
     7
370
    15
100
AcDbCircle
 10
65.6180834076
 20
3.978814763
 30
0.0
 40
0.9441414316026505
100
AcDbArc
 50
358.4616691454
 51
15.0755301182
  0
ARC
  5
2B8
330
1F
100
AcDbEntity
  8
0
  6
Continuous
 62
     7
370
    15
100
AcDbCircle
 10
65.7654411476
 20
3.9917031196
 30
0.0
 40
0.2146690555089563
100
AcDbArc
 50
44.4300354791
 51
87.8681339954
  0
ARC
  5
2B9
330
1F
100
AcDbEntity
  8
0
  6
Continuous
 62
     7
370
    15
100
AcDbCircle
 10
65.5942642035
 20
3.9432873605
 30
0.0
 40
0.3979743064921237
100
AcDbArc
 50
341.181375491
 51
9.0725306819
  0
ARC
  5
2BA
330
1F
100
AcDbEntity
  8
0
  6
Continuous
 62
     7
370
    15
100
AcDbCircle
 10
65.8995883196
 20
2.9524528372
 30
0.0
 40
0.8985623573491903
100
AcDbArc
 50
270.5693371168
 51
297.2219422301
  0
LINE
  5
2BB
330
1F
100
AcDbEntity
  8
0
  6
Continuous
 62
     7
370
    15
100
AcDbLine
 10
68.6804719762
 20
4.0355947449
 30
0.0
 11
68.6804719762
 21
4.5912590458
 31
0.0
  0
ARC
  5
2BC
330
1F
100
AcDbEntity
  8
0
  6
Continuous
 62
     7
370
    15
100
AcDbCircle
 10
70.5258004599
 20
7.7175046502
 30
0.0
 40
4.11845828117463
100
AcDbArc
 50
242.6758633249
 51
243.3805325645
  0
ARC
  5
2BD
330
1F
100
AcDbEntity
  8
0
  6
Continuous
 62
     7
370
    15
100
AcDbCircle
 10
68.0051412146
 20
2.8388605701
 30
0.0
 40
1.372888647416671
100
AcDbArc
 50
62.6758633249
 51
64.7898710438
  0
ARC
  5
2BE
330
1F
100
AcDbEntity
  8
0
  6
Continuous
 62
     7
370
    15
100
AcDbCircle
 10
67.9512121019
 20
3.7045940356
 30
0.0
 40
0.5281211005894295
100
AcDbArc
 50
87.6618286821
 51
112.306558765
  0
ARC
  5
2BF
330
1F
100
AcDbEntity
  8
0
  6
Continuous
 62
     7
370
    15
100
AcDbCircle
 10
67.9219828723
 20
2.4671449525
 30
0.0
 40
1.184798115438808
100
AcDbArc
 50
62.9281769251
 51
79.1102561713
  0
ARC
  5
2C0
330
1F
100
AcDbEntity
  8
0
  6
Continuous
 62
     7
370
    15
100
AcDbCircle
 10
68.1516440004
 20
2.916486919
 30
0.0
 40
0.6801671249303359
100
AcDbArc
 50
45.670440012
 51
62.9281769251
  0
ARC
  5
2C1
330
1F
100
AcDbEntity
  8
0
  6
Continuous
 62
     7
370
    15
100
AcDbCircle
 10
68.1840538802
 20
2.9496642956
 30
0.0
 40
0.6337867559828921
100
AcDbArc
 50
12.0854278023
 51
45.670440012
  0
ARC
  5
2C2
330
1F
100
AcDbEntity
  8
0
  6
Continuous
 62
     7
370
    15
100
AcDbCircle
 10
67.6533206382
 20
2.8360261262
 30
0.0
 40
1.176549510470343
100
AcDbArc
 50
356.937726665
 51
12.0854278023
  0
ARC
  5
2C3
330
1F
100
AcDbEntity
  8
0
  6
Continuous
 62
     7
370
    15
100
AcDbCircle
 10
68.1470259712
 20
2.6876002519
 30
0.0
 40
0.6589522543559365
100
AcDbArc
 50
301.4441774583
 51
341.3581691658
  0
ARC
  5
2C4
330
1F
100
AcDbEntity
  8
0
  6
Continuous
 62
     7
370
    15
100
AcDbCircle
 10
68.0752232937
 20
2.8050282266
 30
0.0
 40
0.7965929232868324
100
AcDbArc
 50
282.5174711087
 51
301.4441774583
  0
ARC
  5
2C5
330
1F
100
AcDbEntity
  8
0
  6
Continuous
 62
     7
370
    15
100
AcDbCircle
 10
67.9476267143
 20
3.3797497981
 30
0.0
 40
1.385308280522271
100
AcDbArc
 50
262.1481376797
 51
282.5174711087
  0
LINE
  5
2C6
330
1F
100
AcDbEntity
  8
0
  6
Continuous
 62
     7
370
    15
100
AcDbLine
 10
67.0995872961
 20
2.7572166755
 30
0.0
 11
67.0995872961
 21
2.1857236161
 31
0.0
  0
ARC
  5
2C7
330
1F
100
AcDbEntity
  8
0
  6
Continuous
 62
     7
370
    15
100
AcDbCircle
 10
70.3454972764
 20
8.1959287393
 30
0.0
 40
6.333682993114254
100
AcDbArc
 50
239.1705751925
 51
240.6511861203
  0
ARC
  5
2C8
330
1F
100
AcDbEntity
  8
0
  6
Continuous
 62
     7
370
    15
100
AcDbCircle
 10
67.9691646552
 20
3.9877109238
 30
0.0
 40
1.501127177075469
100
AcDbArc
 50
243.86509938
 51
267.8010837219
  0
ARC
  5
2C9
330
1F
100
AcDbEntity
  8
0
  6
Continuous
 62
     7
370
    15
100
AcDbCircle
 10
67.9291552678
 20
2.945723343
 30
0.0
 40
0.4583717552557027
100
AcDbArc
 50
267.8010837219
 51
294.8281542752
  0
ARC
  5
2CA
330
1F
100
AcDbEntity
  8
0
  6
Continuous
 62
     7
370
    15
100
AcDbCircle
 10
68.0137105627
 20
2.7629648231
 30
0.0
 40
0.2570007680873428
100
AcDbArc
 50
294.8281542752
 51
333.5145370584
  0
ARC
  5
2CB
330
1F
100
AcDbEntity
  8
0
  6
Continuous
 62
     7
370
    15
100
AcDbCircle
 10
67.9725439396
 20
2.7834767047
 30
0.0
 40
0.3029945518221009
100
AcDbArc
 50
333.5145370584
 51
9.0371249797
  0
ARC
  5
2CC
330
1F
100
AcDbEntity
  8
0
  6
Continuous
 62
     7
370
    15
100
AcDbCircle
 10
68.0408965642
 20
2.7943481019
 30
0.0
 40
0.2337827856840833
100
AcDbArc
 50
9.0371249796
 51
58.2835045137
  0
ARC
  5
2CD
330
1F
100
AcDbEntity
  8
0
  6
Continuous
 62
     7
370
    15
100
AcDbCircle
 10
67.1597674864
 20
0.4807616014
 30
0.0
 40
2.718259995188009
100
AcDbArc
 50
71.2831716242
 51
77.9456876848
  0
ARC
  5
2CE
330
1F
100
AcDbEntity
  8
0
  6
Continuous
 62
     7
370
    15
100
AcDbCircle
 10
67.7542303703
 20
3.8305001442
 30
0.0
 40
0.6640917629010366
100
AcDbArc
 50
196.530054064
 51
240.938993977
  0
ARC
  5
2CF
330
1F
100
AcDbEntity
  8
0
  6
Continuous
 62
     7
370
    15
100
AcDbCircle
 10
68.0663209024
 20
3.9231236677
 30
0.0
 40
0.9896368708145172
100
AcDbArc
 50
160.4626352857
 51
196.530054064
  0
ARC
  5
2D0
330
1F
100
AcDbEntity
  8
0
  6
Continuous
 62
     7
370
    15
100
AcDbCircle
 10
67.7529821177
 20
4.0343127681
 30
0.0
 40
0.6571549765637913
100
AcDbArc
 50
122.9217391807
 51
160.4626352857
  0
ARC
  5
2D1
330
1F
100
AcDbEntity
  8
0
  6
Continuous
 62
     7
370
    15
100
AcDbCircle
 10
67.8403896181
 20
3.8993136842
 30
0.0
 40
0.817980421613711
100
AcDbArc
 50
98.5543269867
 51
122.9217391807
  0
ARC
  5
2D2
330
1F
100
AcDbEntity
  8
0
  6
Continuous
 62
     7
370
    15
100
AcDbCircle
 10
67.4071250745
 20
0.0594127413
 30
0.0
 40
4.707338977111921
100
AcDbArc
 50
74.3058269115
 51
80.7446811116
  0
ARC
  5
2D3
330
1F
100
AcDbEntity
  8
0
  6
Continuous
 62
     7
370
    15
100
AcDbCircle
 10
68.1256652996
 20
4.6707710847
 30
0.0
 40
2.688547974602992
100
AcDbArc
 50
247.564204013
 51
262.1481376797
  0
ARC
  5
2D4
330
1F
100
AcDbEntity
  8
0
  6
Continuous
 62
     7
370
    15
100
AcDbCircle
 10
67.8675837664
 20
3.9550823612
 30
0.0
 40
0.2701773310415301
100
AcDbArc
 50
147.065770036
 51
179.7067611625
  0
ARC
  5
2D5
330
1F
100
AcDbEntity
  8
0
  6
Continuous
 62
     7
370
    15
100
AcDbCircle
 10
67.9770996949
 20
4.1956512156
 30
0.0
 40
0.506674352203924
100
AcDbArc
 50
235.7084925237
 51
252.2534825857
  0
ARC
  5
2D6
330
1F
100
AcDbEntity
  8
0
  6
Continuous
 62
     7
370
    15
100
AcDbCircle
 10
67.7171766871
 20
2.8326099743
 30
0.0
 40
1.11260214873464
100
AcDbArc
 50
341.3581691658
 51
356.937726665
  0
ARC
  5
2D7
330
1F
100
AcDbEntity
  8
0
  6
Continuous
 62
     7
370
    15
100
AcDbCircle
 10
67.8415188653
 20
3.9719665994
 30
0.0
 40
0.239121629928641
100
AcDbArc
 50
112.306558765
 51
147.065770036
  0
ARC
  5
2D8
330
1F
100
AcDbEntity
  8
0
  6
Continuous
 62
     7
370
    15
100
AcDbCircle
 10
67.9001709557
 20
3.8470941288
 30
0.0
 40
1.344496357579933
100
AcDbArc
 50
240.6511861203
 51
243.86509938
  0
ARC
  5
2D9
330
1F
100
AcDbEntity
  8
0
  6
Continuous
 62
     7
370
    15
100
AcDbCircle
 10
67.825599587
 20
2.4459769659
 30
0.0
 40
0.6433132934721122
100
AcDbArc
 50
58.2835045137
 51
71.2831716242
  0
ARC
  5
2DA
330
1F
100
AcDbEntity
  8
0
  6
Continuous
 62
     7
370
    15
100
AcDbCircle
 10
67.9505311703
 20
4.1837486043
 30
0.0
 40
1.068218572983448
100
AcDbArc
 50
240.938993977
 51
257.9456876847
  0
ARC
  5
2DB
330
1F
100
AcDbEntity
  8
0
  6
Continuous
 62
     7
370
    15
100
AcDbCircle
 10
67.9327746926
 20
3.2851349436
 30
0.0
 40
1.439068601598643
100
AcDbArc
 50
80.7446811116
 51
98.5543269867
  0
ARC
  5
2DC
330
1F
100
AcDbEntity
  8
0
  6
Continuous
 62
     7
370
    15
100
AcDbCircle
 10
67.9073843475
 20
2.6312119449
 30
0.0
 40
1.602397594200336
100
AcDbArc
 50
64.7898710438
 51
87.6618286821
  0
ARC
  5
2DD
330
1F
100
AcDbEntity
  8
0
  6
Continuous
 62
     7
370
    15
100
AcDbCircle
 10
67.8132366747
 20
3.9553605111
 30
0.0
 40
0.2158295274918934
100
AcDbArc
 50
179.7067611625
 51
235.7084925237
  0
ARC
  5
2DE
330
1F
100
AcDbEntity
  8
0
  6
Continuous
 62
     7
370
    15
100
AcDbCircle
 10
68.6726206839
 20
6.3689131129
 30
0.0
 40
2.788519377764311
100
AcDbArc
 50
252.2534825857
 51
259.1102561713
  0
LINE
  5
2DF
330
1F
100
AcDbEntity
  8
0
  6
Continuous
 62
     7
370
    15
100
AcDbLine
 10
69.3575714277
 20
2.0485658779
 30
0.0
 11
69.8909529047
 21
2.0485658779
 31
0.0
  0
LINE
  5
2E0
330
1F
100
AcDbEntity
  8
0
  6
Continuous
 62
     7
370
    15
100
AcDbLine
 10
69.3575714277
 20
2.7290795578
 30
0.0
 11
69.3575714277
 21
2.0485658779
 31
0.0
  0
LINE
  5
2E1
330
1F
100
AcDbEntity
  8
0
  6
Continuous
 62
     7
370
    15
100
AcDbLine
 10
69.8909529047
 20
2.7290795578
 30
0.0
 11
69.3575714277
 21
2.7290795578
 31
0.0
  0
LINE
  5
2E2
330
1F
100
AcDbEntity
  8
0
  6
Continuous
 62
     7
370
    15
100
AcDbLine
 10
69.8909529047
 20
2.0485658779
 30
0.0
 11
69.8909529047
 21
2.7290795578
 31
0.0
  0
ARC
  5
2E3
330
1F
100
AcDbEntity
  8
0
  6
Continuous
 62
     7
370
    15
100
AcDbCircle
 10
71.4941304748
 20
3.7207538589
 30
0.0
 40
0.5099026232981647
100
AcDbArc
 50
83.3331496059
 51
86.7911279736
  0
ARC
  5
2E4
330
1F
100
AcDbEntity
  8
0
  6
Continuous
 62
     7
370
    15
100
AcDbCircle
 10
71.4896908528
 20
3.7592199471
 30
0.0
 40
0.4715603842343285
100
AcDbArc
 50
90.00877451
 51
152.4453826104
  0
ARC
  5
2E5
330
1F
100
AcDbEntity
  8
0
  6
Continuous
 62
     7
370
    15
100
AcDbCircle
 10
72.0340792442
 20
3.4751693926
 30
0.0
 40
1.085599013438092
100
AcDbArc
 50
152.4453826104
 51
171.072943811
  0
ARC
  5
2E6
330
1F
100
AcDbEntity
  8
0
  6
Continuous
 62
     7
370
    15
100
AcDbCircle
 10
72.8287416171
 20
3.3503441002
 30
0.0
 40
1.890005403660206
100
AcDbArc
 50
171.072943811
 51
190.0677043498
  0
ARC
  5
2E7
330
1F
100
AcDbEntity
  8
0
  6
Continuous
 62
     7
370
    15
100
AcDbCircle
 10
71.8003160867
 20
3.1677516329
 30
0.0
 40
0.8454963894316495
100
AcDbArc
 50
190.0677043498
 51
212.2348648177
  0
ARC
  5
2E8
330
1F
100
AcDbEntity
  8
0
  6
Continuous
 62
     7
370
    15
100
AcDbCircle
 10
71.5055989492
 20
2.9819077945
 30
0.0
 40
0.497076924702015
100
AcDbArc
 50
212.2348648177
 51
254.9381106475
  0
ARC
  5
2E9
330
1F
100
AcDbEntity
  8
0
  6
Continuous
 62
     7
370
    15
100
AcDbCircle
 10
71.4961831561
 20
2.9469187971
 30
0.0
 40
0.46084314078376
100
AcDbArc
 50
254.9381106475
 51
299.374283104
  0
ARC
  5
2EA
330
1F
100
AcDbEntity
  8
0
  6
Continuous
 62
     7
370
    15
100
AcDbCircle
 10
70.3062707581
 20
3.3745804679
 30
0.0
 40
1.733819996991939
100
AcDbArc
 50
341.2673963913
 51
8.927056189
  0
ARC
  5
2EB
330
1F
100
AcDbEntity
  8
0
  6
Continuous
 62
     7
370
    15
100
AcDbCircle
 10
71.0204083673
 20
3.4867569581
 30
0.0
 40
1.010925751746267
100
AcDbArc
 50
8.927056189
 51
31.8827938598
  0
ARC
  5
2EC
330
1F
100
AcDbEntity
  8
0
  6
Continuous
 62
     7
370
    15
100
AcDbCircle
 10
71.5017782319
 20
3.7861827833
 30
0.0
 40
0.4440282554090598
100
AcDbArc
 50
31.8827938598
 51
83.3331496059
  0
ARC
  5
2ED
330
1F
100
AcDbEntity
  8
0
  6
Continuous
 62
     7
370
    15
100
AcDbCircle
 10
71.5012113714
 20
3.4421128571
 30
0.0
 40
1.279465634495419
100
AcDbArc
 50
79.1587551231
 51
87.4525133623
  0
ARC
  5
2EE
330
1F
100
AcDbEntity
  8
0
  6
Continuous
 62
     7
370
    15
100
AcDbCircle
 10
71.5531139309
 20
3.7131354997
 30
0.0
 40
1.003517906688962
100
AcDbArc
 50
32.313619643
 51
79.1587551231
  0
ARC
  5
2EF
330
1F
100
AcDbEntity
  8
0
  6
Continuous
 62
     7
370
    15
100
AcDbCircle
 10
71.2328802639
 20
3.5105856195
 30
0.0
 40
1.382432218137071
100
AcDbArc
 50
12.0211499758
 51
32.313619643
  0
ARC
  5
2F0
330
1F
100
AcDbEntity
  8
0
  6
Continuous
 62
     7
370
    15
100
AcDbCircle
 10
70.5123681968
 20
3.3571580461
 30
0.0
 40
2.119098804260254
100
AcDbArc
 50
345.9914838951
 51
12.0211499758
  0
ARC
  5
2F1
330
1F
100
AcDbEntity
  8
0
  6
Continuous
 62
     7
370
    15
100
AcDbCircle
 10
71.3615110193
 20
3.1453088996
 30
0.0
 40
1.243928195894216
100
AcDbArc
 50
326.2741425064
 51
345.9914838951
  0
ARC
  5
2F2
330
1F
100
AcDbEntity
  8
0
  6
Continuous
 62
     7
370
    15
100
AcDbCircle
 10
71.5593709726
 20
3.0132236654
 30
0.0
 40
1.006031011755168
100
AcDbArc
 50
285.2057638578
 51
326.2741425064
  0
ARC
  5
2F3
330
1F
100
AcDbEntity
  8
0
  6
Continuous
 62
     7
370
    15
100
AcDbCircle
 10
71.48265385
 20
3.2954773598
 30
0.0
 40
1.298524883398671
100
AcDbArc
 50
259.1389324519
 51
285.2057638578
  0
ARC
  5
2F4
330
1F
100
AcDbEntity
  8
0
  6
Continuous
 62
     7
370
    15
100
AcDbCircle
 10
71.4273772312
 20
3.0073757955
 30
0.0
 40
1.005168417734627
100
AcDbArc
 50
212.3698665775
 51
259.1389324518
  0
ARC
  5
2F5
330
1F
100
AcDbEntity
  8
0
  6
Continuous
 62
     7
370
    15
100
AcDbCircle
 10
71.7448733344
 20
3.2086307979
 30
0.0
 40
1.381077118737533
100
AcDbArc
 50
192.0733198145
 51
212.3698665775
  0
ARC
  5
2F6
330
1F
100
AcDbEntity
  8
0
  6
Continuous
 62
     7
370
    15
100
AcDbCircle
 10
72.459928275
 20
3.3615770557
 30
0.0
 40
2.112306307058977
100
AcDbArc
 50
165.9557163779
 51
192.0733198145
  0
ARC
  5
2F7
330
1F
100
AcDbEntity
  8
0
  6
Continuous
 62
     7
370
    15
100
AcDbCircle
 10
71.6187495457
 20
3.5719971602
 30
0.0
 40
1.245208691493801
100
AcDbArc
 50
146.2237156017
 51
165.9557163779
  0
ARC
  5
2F8
330
1F
100
AcDbEntity
  8
0
  6
Continuous
 62
     7
370
    15
100
AcDbCircle
 10
71.4150698765
 20
3.70822676
 30
0.0
 40
1.000170099546952
100
AcDbArc
 50
120.1731034161
 51
146.2237156017
  0
ARC
  5
2F9
330
1F
100
AcDbEntity
  8
0
  6
Continuous
 62
     7
370
    15
100
AcDbCircle
 10
71.4588858343
 20
3.6328620514
 30
0.0
 40
1.087346228539986
100
AcDbArc
 50
95.206171585
 51
120.1731034161
  0
ARC
  5
2FA
330
1F
100
AcDbEntity
  8
0
  6
Continuous
 62
     7
370
    15
100
AcDbCircle
 10
71.4930270693
 20
3.2581602037
 30
0.0
 40
1.463600263239109
100
AcDbArc
 50
87.4525133623
 51
95.206171585
  0
ARC
  5
2FB
330
1F
100
AcDbEntity
  8
0
  6
Continuous
 62
     7
370
    15
100
AcDbCircle
 10
71.4897088218
 20
3.6418859207
 30
0.0
 40
0.5888944119672022
100
AcDbArc
 50
86.7911279736
 51
90.00877451
  0
ARC
  5
2FC
330
1F
100
AcDbEntity
  8
0
  6
Continuous
 62
     7
370
    15
100
AcDbCircle
 10
71.4793870892
 20
2.976758322
 30
0.0
 40
0.495085002743547
100
AcDbArc
 50
299.374283104
 51
341.2673963913
  0
LINE
  5
2FD
330
1F
100
AcDbEntity
  8
0
  6
Continuous
 62
     7
370
    15
100
AcDbLine
 10
73.6290731029
 20
4.1833025052
 30
0.0
 11
73.6290731029
 21
3.5098221733
 31
0.0
  0
LINE
  5
2FE
330
1F
100
AcDbEntity
  8
0
  6
Continuous
 62
     7
370
    15
100
AcDbLine
 10
73.0586529271
 20
2.0485658779
 30
0.0
 11
73.6290731029
 21
2.0485658779
 31
0.0
  0
ARC
  5
2FF
330
1F
100
AcDbEntity
  8
0
  6
Continuous
 62
     7
370
    15
100
AcDbCircle
 10
74.0237831333
 20
3.6435236216
 30
0.0
 40
1.027947851086915
100
AcDbArc
 50
69.4252135516
 51
89.7110770541
  0
ARC
  5
300
330
1F
100
AcDbEntity
  8
0
  6
Continuous
 62
     7
370
    15
100
AcDbCircle
 10
74.1801088618
 20
4.0599778426
 30
0.0
 40
0.5831199613177347
100
AcDbArc
 50
41.8508157403
 51
69.4252135516
  0
ARC
  5
301
330
1F
100
AcDbEntity
  8
0
  6
Continuous
 62
     7
370
    15
100
AcDbCircle
 10
73.7349464909
 20
3.9446567355
 30
0.0
 40
1.043317158756195
100
AcDbArc
 50
354.4055559002
 51
14.3491619941
  0
LINE
  5
302
330
1F
100
AcDbEntity
  8
0
  6
Continuous
 62
     7
370
    15
100
AcDbLine
 10
74.1541937487
 20
2.7604390516
 30
0.0
 11
74.4484097259
 21
2.0485658779
 31
0.0
  0
ARC
  5
303
330
1F
100
AcDbEntity
  8
0
  6
Continuous
 62
     7
370
    15
100
AcDbCircle
 10
73.5426685208
 20
2.5077223676
 30
0.0
 40
0.6616869019612496
100
AcDbArc
 50
22.4529849732
 51
39.2230979437
  0
ARC
  5
304
330
1F
100
AcDbEntity
  8
0
  6
Continuous
 62
     7
370
    15
100
AcDbCircle
 10
73.8275833413
 20
2.7402845481
 30
0.0
 40
0.2939075894412888
100
AcDbArc
 50
39.2230979437
 51
85.448414028
  0
ARC
  5
305
330
1F
100
AcDbEntity
  8
0
  6
Continuous
 62
     7
370
    15
100
AcDbCircle
 10
73.6628717622
 20
3.8532448512
 30
0.0
 40
0.5455126817448511
100
AcDbArc
 50
342.9810349287
 51
15.5741225284
  0
ARC
  5
306
330
1F
100
AcDbEntity
  8
0
  6
Continuous
 62
     7
370
    15
100
AcDbCircle
 10
73.6290740256
 20
13.2151728749
 30
0.0
 40
9.705349184525707
100
AcDbArc
 50
270.0
 51
271.9039083027
  0
ARC
  5
307
330
1F
100
AcDbEntity
  8
0
  6
Continuous
 62
     7
370
    15
100
AcDbCircle
 10
73.0586513629
 20
-187.7483654501
 30
0.0
 40
192.4222703420703
100
AcDbArc
 50
89.7110770541
 51
90.0
  0
ARC
  5
308
330
1F
100
AcDbEntity
  8
0
  6
Continuous
 62
     7
370
    15
100
AcDbCircle
 10
73.9077583985
 20
4.2551352615
 30
0.0
 40
1.074065567385329
100
AcDbArc
 50
294.2641981995
 51
305.1385274195
  0
ARC
  5
309
330
1F
100
AcDbEntity
  8
0
  6
Continuous
 62
     7
370
    15
100
AcDbCircle
 10
74.1633630034
 20
2.7675335688
 30
0.0
 40
0.5412973353429438
100
AcDbArc
 50
55.6442039272
 51
69.9276174471
  0
ARC
  5
30A
330
1F
100
AcDbEntity
  8
0
  6
Continuous
 62
     7
370
    15
100
AcDbCircle
 10
3.2376955417
 20
-27.7795299329
 30
0.0
 40
77.76609675132859
100
AcDbArc
 50
22.554478895
 51
23.2583832262
  0
ARC
  5
30B
330
1F
100
AcDbEntity
  8
0
  6
Continuous
 62
     7
370
    15
100
AcDbCircle
 10
73.6290740256
 20
-1.6093003669
 30
0.0
 40
5.792603060626123
100
AcDbArc
 50
86.5567790271
 51
90.0
  0
ARC
  5
30C
330
1F
100
AcDbEntity
  8
0
  6
Continuous
 62
     7
370
    15
100
AcDbCircle
 10
73.9630932746
 20
3.9421438106
 30
0.0
 40
0.2311193274667411
100
AcDbArc
 50
45.1270141421
 51
86.5567790271
  0
ARC
  5
30D
330
1F
100
AcDbEntity
  8
0
  6
Continuous
 62
     7
370
    15
100
AcDbCircle
 10
73.9558980545
 20
3.9349166186
 30
0.0
 40
0.2413175378278325
100
AcDbArc
 50
15.5741225284
 51
45.1270141421
  0
LINE
  5
30E
330
1F
100
AcDbEntity
  8
0
  6
Continuous
 62
     7
370
    15
100
AcDbLine
 10
73.0586529271
 20
4.6739046111
 30
0.0
 11
73.0586529271
 21
2.0485658779
 31
0.0
  0
ARC
  5
30F
330
1F
100
AcDbEntity
  8
0
  6
Continuous
 62
     7
370
    15
100
AcDbCircle
 10
74.2196554452
 20
2.8498828237
 30
0.0
 40
0.4415464516984997
100
AcDbArc
 50
39.8201507447
 51
55.6442039272
  0
ARC
  5
310
330
1F
100
AcDbEntity
  8
0
  6
Continuous
 62
     7
370
    15
100
AcDbCircle
 10
73.9431321322
 20
3.767459209
 30
0.0
 40
0.2524170464587237
100
AcDbArc
 50
271.9039083027
 51
342.9810349287
  0
LINE
  5
311
330
1F
100
AcDbEntity
  8
0
  6
Continuous
 62
     7
370
    15
100
AcDbLine
 10
73.6290731029
 20
2.0485658779
 30
0.0
 11
73.6290731029
 21
3.042082174
 31
0.0
  0
ARC
  5
312
330
1F
100
AcDbEntity
  8
0
  6
Continuous
 62
     7
370
    15
100
AcDbCircle
 10
74.2122174193
 20
3.822552504
 30
0.0
 40
0.5450824509733312
100
AcDbArc
 50
305.1385274195
 51
337.2180616714
  0
ARC
  5
313
330
1F
100
AcDbEntity
  8
0
  6
Continuous
 62
     7
370
    15
100
AcDbCircle
 10
73.9204839489
 20
2.6004442214
 30
0.0
 40
0.8310630759149047
100
AcDbArc
 50
23.2583832262
 51
39.8201507447
  0
LINE
  5
314
330
1F
100
AcDbEntity
  8
0
  6
Continuous
 62
     7
370
    15
100
AcDbLine
 10
74.4484097259
 20
2.0485658779
 30
0.0
 11
75.0558704631
 21
2.0485658779
 31
0.0
  0
ARC
  5
315
330
1F
100
AcDbEntity
  8
0
  6
Continuous
 62
     7
370
    15
100
AcDbCircle
 10
73.6290740256
 20
0.2466899203
 30
0.0
 40
2.795391172442353
100
AcDbArc
 50
85.448414028
 51
90.0
  0
ARC
  5
316
330
1F
100
AcDbEntity
  8
0
  6
Continuous
 62
     7
370
    15
100
AcDbCircle
 10
74.1778525839
 20
4.0579568936
 30
0.0
 40
0.5861489916260051
100
AcDbArc
 50
14.3491619941
 51
41.8508157404
  0
ARC
  5
317
330
1F
100
AcDbEntity
  8
0
  6
Continuous
 62
     7
370
    15
100
AcDbCircle
 10
73.9782255851
 20
3.9208268288
 30
0.0
 40
0.7988737458439144
100
AcDbArc
 50
337.2180616714
 51
354.4055559002
  0
ARC
  5
318
330
1F
100
AcDbEntity
  8
0
  6
Continuous
 62
     7
370
    15
100
AcDbCircle
 10
76.484608798
 20
3.5261680254
 30
0.0
 40
1.531531449446851
100
AcDbArc
 50
259.4578913074
 51
283.9119151449
  0
ARC
  5
319
330
1F
100
AcDbEntity
  8
0
  6
Continuous
 62
     7
370
    15
100
AcDbCircle
 10
76.6088989716
 20
3.2219349989
 30
0.0
 40
1.329435172688355
100
AcDbArc
 50
192.9282397104
 51
214.1326962967
  0
ARC
  5
31A
330
1F
100
AcDbEntity
  8
0
  6
Continuous
 62
     7
370
    15
100
AcDbCircle
 10
77.229830457
 20
3.3644694256
 30
0.0
 40
1.966515993552098
100
AcDbArc
 50
167.730909279
 51
192.9282397104
  0
ARC
  5
31B
330
1F
100
AcDbEntity
  8
0
  6
Continuous
 62
     7
370
    15
100
AcDbCircle
 10
76.4208203167
 20
3.6046612887
 30
0.0
 40
1.115275615875533
100
AcDbArc
 50
93.8998025091
 51
150.2271920765
  0
ARC
  5
31C
330
1F
100
AcDbEntity
  8
0
  6
Continuous
 62
     7
370
    15
100
AcDbCircle
 10
76.4715851305
 20
2.8599783073
 30
0.0
 40
1.861686902624371
100
AcDbArc
 50
63.5090244078
 51
93.8998025091
  0
LINE
  5
31D
330
1F
100
AcDbEntity
  8
0
  6
Continuous
 62
     7
370
    15
100
AcDbLine
 10
77.3020044462
 20
3.982840909
 30
0.0
 11
77.3020044462
 21
4.5261968507
 31
0.0
  0
ARC
  5
31E
330
1F
100
AcDbEntity
  8
0
  6
Continuous
 62
     7
370
    15
100
AcDbCircle
 10
76.2591746586
 20
2.3336915994
 30
0.0
 40
1.951201499348409
100
AcDbArc
 50
57.6930669334
 51
71.5708727199
  0
ARC
  5
31F
330
1F
100
AcDbEntity
  8
0
  6
Continuous
 62
     7
370
    15
100
AcDbCircle
 10
76.579939444
 20
3.2963119683
 30
0.0
 40
0.936544896245051
100
AcDbArc
 50
71.57087272
 51
100.6719689418
  0
ARC
  5
320
330
1F
100
AcDbEntity
  8
0
  6
Continuous
 62
     7
370
    15
100
AcDbCircle
 10
76.7464517192
 20
3.4736742736
 30
0.0
 40
0.880213488602195
100
AcDbArc
 50
148.5015699258
 51
168.6784732038
  0
ARC
  5
321
330
1F
100
AcDbEntity
  8
0
  6
Continuous
 62
     7
370
    15
100
AcDbCircle
 10
76.5204183447
 20
3.1146286525
 30
0.0
 40
0.6262628215378897
100
AcDbArc
 50
205.9788239448
 51
265.0498316246
  0
LINE
  5
322
330
1F
100
AcDbEntity
  8
0
  6
Continuous
 62
     7
370
    15
100
AcDbLine
 10
76.8427022295
 20
3.0526321961
 30
0.0
 11
76.8427022295
 21
2.5426883831
 31
0.0
  0
LINE
  5
323
330
1F
100
AcDbEntity
  8
0
  6
Continuous
 62
     7
370
    15
100
AcDbLine
 10
76.494521697
 20
3.5063054993
 30
0.0
 11
76.494521697
 21
3.0526321961
 31
0.0
  0
LINE
  5
324
330
1F
100
AcDbEntity
  8
0
  6
Continuous
 62
     7
370
    15
100
AcDbLine
 10
77.3834914462
 20
3.5063054993
 30
0.0
 11
76.494521697
 21
3.5063054993
 31
0.0
  0
LINE
  5
325
330
1F
100
AcDbEntity
  8
0
  6
Continuous
 62
     7
370
    15
100
AcDbLine
 10
77.3834914462
 20
2.2437524631
 30
0.0
 11
77.3834914462
 21
3.5063054993
 31
0.0
  0
ARC
  5
326
330
1F
100
AcDbEntity
  8
0
  6
Continuous
 62
     7
370
    15
100
AcDbCircle
 10
76.3024721393
 20
4.2614923308
 30
0.0
 40
2.289077221429113
100
AcDbArc
 50
283.9119151449
 51
298.1805454529
  0
ARC
  5
327
330
1F
100
AcDbEntity
  8
0
  6
Continuous
 62
     7
370
    15
100
AcDbCircle
 10
76.602025424
 20
3.5009983193
 30
0.0
 40
1.324036967993136
100
AcDbArc
 50
150.2271920765
 51
167.730909279
  0
ARC
  5
328
330
1F
100
AcDbEntity
  8
0
  6
Continuous
 62
     7
370
    15
100
AcDbCircle
 10
76.5204154106
 20
3.6121809825
 30
0.0
 40
0.6151162965878519
100
AcDbArc
 50
100.6719689418
 51
148.5015699258
  0
LINE
  5
329
330
1F
100
AcDbEntity
  8
0
  6
Continuous
 62
     7
370
    15
100
AcDbLine
 10
76.494521697
 20
3.0526321961
 30
0.0
 11
76.8427022295
 21
3.0526321961
 31
0.0
  0
ARC
  5
32A
330
1F
100
AcDbEntity
  8
0
  6
Continuous
 62
     7
370
    15
100
AcDbCircle
 10
77.3919729791
 20
3.3444341639
 30
0.0
 40
1.538545246074758
100
AcDbArc
 50
168.6784732038
 51
187.7351215055
  0
ARC
  5
32B
330
1F
100
AcDbEntity
  8
0
  6
Continuous
 62
     7
370
    15
100
AcDbCircle
 10
76.8374592629
 20
3.2691148165
 30
0.0
 40
0.9789396121498775
100
AcDbArc
 50
187.7351215055
 51
205.9788239448
  0
ARC
  5
32C
330
1F
100
AcDbEntity
  8
0
  6
Continuous
 62
     7
370
    15
100
AcDbCircle
 10
76.540274
 20
3.343876051
 30
0.0
 40
0.8563684859104835
100
AcDbArc
 50
265.0498316246
 51
290.6802070241
  0
ARC
  5
32D
330
1F
100
AcDbEntity
  8
0
  6
Continuous
 62
     7
370
    15
100
AcDbCircle
 10
76.4018743183
 20
3.081596409
 30
0.0
 40
1.079326942364916
100
AcDbArc
 50
214.1326962967
 51
259.4578913074
  0
ENDSEC
  0
SECTION
  2
OBJECTS
  0
DICTIONARY
  5
C
330
0
100
AcDbDictionary
281
     1
  3
ACAD_GROUP
350
D
  3
ACAD_LAYOUT
350
1A
  3
ACAD_MLINESTYLE
350
17
  3
ACAD_PLOTSETTINGS
350
19
  3
ACAD_PLOTSTYLENAME
350
E
  0
DICTIONARY
  5
D
102
{ACAD_REACTORS
330
C
102
}
330
C
100
AcDbDictionary
281
     1
  0
DICTIONARY
  5
1A
102
{ACAD_REACTORS
330
C
102
}
330
C
100
AcDbDictionary
281
     1
  3
Layout1
350
1E
  3
Layout2
350
26
  3
Model
350
22
  0
DICTIONARY
  5
17
102
{ACAD_REACTORS
330
C
102
}
330
C
100
AcDbDictionary
281
     1
  3
Standard
350
18
  0
DICTIONARY
  5
19
102
{ACAD_REACTORS
330
C
102
}
330
C
100
AcDbDictionary
281
     1
  0
ACDBDICTIONARYWDFLT
  5
E
102
{ACAD_REACTORS
330
C
102
}
330
C
100
AcDbDictionary
281
     1
  3
Normal
350
F
100
AcDbDictionaryWithDefault
340
F
  0
LAYOUT
  5
1E
102
{ACAD_REACTORS
330
1A
102
}
330
1A
100
AcDbPlotSettings
  1

  2
none_device
  4

  6

 40
0.0
 41
0.0
 42
0.0
 43
0.0
 44
0.0
 45
0.0
 46
0.0
 47
0.0
 48
0.0
 49
0.0
140
0.0
141
0.0
142
1.0
143
1.0
 70
   688
 72
     0
 73
     0
 74
     5
  7

 75
    16
147
1.0
148
0.0
149
0.0
100
AcDbLayout
  1
Layout1
 70
     1
 71
     1
 10
0.0
 20
0.0
 11
420.0
 21
297.0
 12
0.0
 22
0.0
 32
0.0
 14
1.0000000000E+20
 24
1.0000000000E+20
 34
1.0000000000E+20
 15
-1.0000000000E+20
 25
-1.0000000000E+20
 35
-1.0000000000E+20
146
0.0
 13
0.0
 23
0.0
 33
0.0
 16
1.0
 26
0.0
 36
0.0
 17
0.0
 27
1.0
 37
0.0
 76
     0
330
1B
  0
LAYOUT
  5
26
102
{ACAD_REACTORS
330
1A
102
}
330
1A
100
AcDbPlotSettings
  1

  2
none_device
  4

  6

 40
0.0
 41
0.0
 42
0.0
 43
0.0
 44
0.0
 45
0.0
 46
0.0
 47
0.0
 48
0.0
 49
0.0
140
0.0
141
0.0
142
1.0
143
1.0
 70
   688
 72
     0
 73
     0
 74
     5
  7

 75
    16
147
1.0
148
0.0
149
0.0
100
AcDbLayout
  1
Layout2
 70
     1
 71
     2
 10
0.0
 20
0.0
 11
0.0
 21
0.0
 12
0.0
 22
0.0
 32
0.0
 14
0.0
 24
0.0
 34
0.0
 15
0.0
 25
0.0
 35
0.0
146
0.0
 13
0.0
 23
0.0
 33
0.0
 16
1.0
 26
0.0
 36
0.0
 17
0.0
 27
1.0
 37
0.0
 76
     0
330
23
  0
LAYOUT
  5
22
102
{ACAD_REACTORS
330
1A
102
}
330
1A
100
AcDbPlotSettings
  1

  2
none_device
  4

  6

 40
0.0
 41
0.0
 42
0.0
 43
0.0
 44
0.0
 45
0.0
 46
0.0
 47
0.0
 48
0.0
 49
0.0
140
0.0
141
0.0
142
1.0
143
1.0
 70
  1712
 72
     0
 73
     0
 74
     0
  7

 75
     0
147
1.0
148
0.0
149
0.0
100
AcDbLayout
  1
Model
 70
     1
 71
     0
 10
0.0
 20
0.0
 11
152.4
 21
152.4
 12
0.0
 22
0.0
 32
0.0
 14
0.0
 24
0.0
 34
0.0
 15
152.4
 25
152.4
 35
0.0
146
0.0
 13
0.0
 23
0.0
 33
0.0
 16
1.0
 26
0.0
 36
0.0
 17
0.0
 27
1.0
 37
0.0
 76
     0
330
1F
331
29
  0
MLINESTYLE
  5
18
102
{ACAD_REACTORS
330
17
102
}
330
17
100
AcDbMlineStyle
  2
Standard
 70
     0
  3

 62
   256
 51
90.0
 52
90.0
 71
     2
 49
0.5
 62
   256
  6
BYLAYER
 49
-0.5
 62
   256
  6
BYLAYER
  0
ACDBPLACEHOLDER
  5
F
102
{ACAD_REACTORS
330
E
102
}
330
E
  0
ENDSEC
  0
EOF
